<svg width="310" height="401" viewBox="0 0 310 401" fill="none" xmlns="http://www.w3.org/2000/svg">
<g filter="url(#filter0_d_0_843)">
<rect x="15" y="5" width="280" height="371" rx="15" fill="white"/>
</g>
<mask id="mask0_0_843" style="mask-type:alpha" maskUnits="userSpaceOnUse" x="15" y="5" width="280" height="371">
<rect x="15" y="5" width="280" height="371" rx="15" fill="white"/>
</mask>
<g mask="url(#mask0_0_843)">
<path d="M83.5398 205C83.4332 205 83.3332 204.96 83.2398 204.88C83.1598 204.8 83.1198 204.7 83.1198 204.58L83.1598 204.4L87.9798 191.5C88.0732 191.167 88.3065 191 88.6798 191H90.8598C91.2065 191 91.4398 191.167 91.5598 191.5L96.3798 204.4C96.3932 204.44 96.3998 204.5 96.3998 204.58C96.3998 204.7 96.3598 204.8 96.2798 204.88C96.1998 204.96 96.1065 205 95.9998 205H94.2598C94.0865 205 93.9532 204.96 93.8598 204.88C93.7665 204.8 93.7065 204.713 93.6798 204.62L92.7398 202.18H86.7998L85.8598 204.62C85.7532 204.873 85.5598 205 85.2798 205H83.5398ZM92.0398 199.88L89.7598 193.7L87.4998 199.88H92.0398ZM102.02 205.2C100.673 205.2 99.6398 204.767 98.9198 203.9C98.1998 203.033 97.8132 201.88 97.7598 200.44L97.7398 199.78L97.7598 199.14C97.7998 197.74 98.1798 196.6 98.8998 195.72C99.6332 194.84 100.673 194.4 102.02 194.4C103.313 194.4 104.34 194.84 105.1 195.72V191.28C105.1 191.133 105.147 191.02 105.24 190.94C105.333 190.847 105.447 190.8 105.58 190.8H107.28C107.427 190.8 107.54 190.847 107.62 190.94C107.713 191.02 107.76 191.133 107.76 191.28V204.52C107.76 204.653 107.713 204.767 107.62 204.86C107.54 204.953 107.427 205 107.28 205H105.7C105.567 205 105.453 204.953 105.36 204.86C105.267 204.767 105.22 204.653 105.22 204.52V203.78C104.46 204.727 103.393 205.2 102.02 205.2ZM102.76 203.06C103.533 203.06 104.107 202.813 104.48 202.32C104.853 201.827 105.06 201.22 105.1 200.5C105.113 200.34 105.12 200.08 105.12 199.72C105.12 199.373 105.113 199.12 105.1 198.96C105.073 198.293 104.86 197.727 104.46 197.26C104.073 196.78 103.507 196.54 102.76 196.54C101.32 196.54 100.553 197.427 100.46 199.2L100.44 199.8L100.46 200.4C100.553 202.173 101.32 203.06 102.76 203.06ZM114.535 205.2C113.189 205.2 112.155 204.767 111.435 203.9C110.715 203.033 110.329 201.88 110.275 200.44L110.255 199.78L110.275 199.14C110.315 197.74 110.695 196.6 111.415 195.72C112.149 194.84 113.189 194.4 114.535 194.4C115.829 194.4 116.855 194.84 117.615 195.72V191.28C117.615 191.133 117.662 191.02 117.755 190.94C117.849 190.847 117.962 190.8 118.095 190.8H119.795C119.942 190.8 120.055 190.847 120.135 190.94C120.229 191.02 120.275 191.133 120.275 191.28V204.52C120.275 204.653 120.229 204.767 120.135 204.86C120.055 204.953 119.942 205 119.795 205H118.215C118.082 205 117.969 204.953 117.875 204.86C117.782 204.767 117.735 204.653 117.735 204.52V203.78C116.975 204.727 115.909 205.2 114.535 205.2ZM115.275 203.06C116.049 203.06 116.622 202.813 116.995 202.32C117.369 201.827 117.575 201.22 117.615 200.5C117.629 200.34 117.635 200.08 117.635 199.72C117.635 199.373 117.629 199.12 117.615 198.96C117.589 198.293 117.375 197.727 116.975 197.26C116.589 196.78 116.022 196.54 115.275 196.54C113.835 196.54 113.069 197.427 112.975 199.2L112.955 199.8L112.975 200.4C113.069 202.173 113.835 203.06 115.275 203.06ZM132.321 205C131.107 205 130.194 204.687 129.581 204.06C128.981 203.42 128.681 202.487 128.681 201.26V196.72H127.101C126.967 196.72 126.854 196.673 126.761 196.58C126.667 196.473 126.621 196.353 126.621 196.22V195.08C126.621 194.947 126.667 194.833 126.761 194.74C126.854 194.647 126.967 194.6 127.101 194.6H128.681V191.28C128.681 191.133 128.727 191.02 128.821 190.94C128.914 190.847 129.027 190.8 129.161 190.8H130.781C130.927 190.8 131.041 190.847 131.121 190.94C131.214 191.02 131.261 191.133 131.261 191.28V194.6H133.761C133.907 194.6 134.021 194.647 134.101 194.74C134.194 194.82 134.241 194.933 134.241 195.08V196.22C134.241 196.367 134.194 196.487 134.101 196.58C134.007 196.673 133.894 196.72 133.761 196.72H131.261V201.06C131.261 201.633 131.361 202.067 131.561 202.36C131.761 202.653 132.094 202.8 132.561 202.8H133.941C134.074 202.8 134.187 202.847 134.281 202.94C134.374 203.033 134.421 203.147 134.421 203.28V204.52C134.421 204.653 134.374 204.767 134.281 204.86C134.201 204.953 134.087 205 133.941 205H132.321ZM141.045 205.2C139.485 205.2 138.278 204.8 137.425 204C136.572 203.187 136.112 202.08 136.045 200.68L136.025 199.8L136.045 198.92C136.112 197.533 136.578 196.433 137.445 195.62C138.312 194.807 139.512 194.4 141.045 194.4C142.578 194.4 143.778 194.807 144.645 195.62C145.512 196.433 145.978 197.533 146.045 198.92C146.058 199.08 146.065 199.373 146.065 199.8C146.065 200.227 146.058 200.52 146.045 200.68C145.978 202.08 145.518 203.187 144.665 204C143.812 204.8 142.605 205.2 141.045 205.2ZM141.045 203.22C141.752 203.22 142.298 203 142.685 202.56C143.072 202.107 143.285 201.447 143.325 200.58C143.338 200.447 143.345 200.187 143.345 199.8C143.345 199.413 143.338 199.153 143.325 199.02C143.285 198.153 143.072 197.5 142.685 197.06C142.298 196.607 141.752 196.38 141.045 196.38C140.338 196.38 139.792 196.607 139.405 197.06C139.018 197.5 138.805 198.153 138.765 199.02L138.745 199.8L138.765 200.58C138.805 201.447 139.018 202.107 139.405 202.56C139.792 203 140.338 203.22 141.045 203.22ZM158.991 205.2C157.151 205.2 155.725 204.727 154.711 203.78C153.711 202.833 153.178 201.5 153.111 199.78C153.098 199.42 153.091 198.833 153.091 198.02C153.091 197.193 153.098 196.593 153.111 196.22C153.178 194.513 153.718 193.187 154.731 192.24C155.758 191.28 157.178 190.8 158.991 190.8C160.178 190.8 161.211 191.007 162.091 191.42C162.971 191.82 163.651 192.373 164.131 193.08C164.611 193.773 164.865 194.56 164.891 195.44V195.48C164.891 195.587 164.845 195.68 164.751 195.76C164.671 195.827 164.578 195.86 164.471 195.86H162.571C162.411 195.86 162.291 195.827 162.211 195.76C162.131 195.693 162.065 195.567 162.011 195.38C161.798 194.54 161.445 193.953 160.951 193.62C160.458 193.273 159.798 193.1 158.971 193.1C157.051 193.1 156.051 194.173 155.971 196.32C155.958 196.68 155.951 197.233 155.951 197.98C155.951 198.727 155.958 199.293 155.971 199.68C156.051 201.827 157.051 202.9 158.971 202.9C159.798 202.9 160.458 202.727 160.951 202.38C161.458 202.033 161.811 201.447 162.011 200.62C162.051 200.433 162.111 200.307 162.191 200.24C162.285 200.173 162.411 200.14 162.571 200.14H164.471C164.591 200.14 164.691 200.18 164.771 200.26C164.865 200.34 164.905 200.44 164.891 200.56C164.865 201.44 164.611 202.233 164.131 202.94C163.651 203.633 162.971 204.187 162.091 204.6C161.211 205 160.178 205.2 158.991 205.2ZM167.773 205C167.64 205 167.526 204.953 167.433 204.86C167.34 204.767 167.293 204.653 167.293 204.52V191.28C167.293 191.133 167.34 191.02 167.433 190.94C167.526 190.847 167.64 190.8 167.773 190.8H169.553C169.7 190.8 169.813 190.847 169.893 190.94C169.986 191.02 170.033 191.133 170.033 191.28V195.84C170.833 194.88 171.913 194.4 173.273 194.4C174.5 194.4 175.48 194.807 176.213 195.62C176.946 196.42 177.313 197.513 177.313 198.9V204.52C177.313 204.653 177.266 204.767 177.173 204.86C177.093 204.953 176.98 205 176.833 205H175.033C174.9 205 174.786 204.953 174.693 204.86C174.6 204.767 174.553 204.653 174.553 204.52V199.02C174.553 198.233 174.36 197.627 173.973 197.2C173.6 196.76 173.053 196.54 172.333 196.54C171.626 196.54 171.066 196.76 170.653 197.2C170.24 197.64 170.033 198.247 170.033 199.02V204.52C170.033 204.653 169.986 204.767 169.893 204.86C169.813 204.953 169.7 205 169.553 205H167.773ZM180.581 205C180.448 205 180.335 204.953 180.241 204.86C180.148 204.767 180.101 204.653 180.101 204.52V195.1C180.101 194.967 180.148 194.853 180.241 194.76C180.335 194.653 180.448 194.6 180.581 194.6H182.201C182.348 194.6 182.468 194.647 182.561 194.74C182.655 194.833 182.701 194.953 182.701 195.1V195.92C183.021 195.493 183.421 195.167 183.901 194.94C184.395 194.713 184.955 194.6 185.581 194.6H186.401C186.548 194.6 186.661 194.647 186.741 194.74C186.835 194.82 186.881 194.933 186.881 195.08V196.52C186.881 196.653 186.835 196.767 186.741 196.86C186.661 196.953 186.548 197 186.401 197H184.841C184.215 197 183.721 197.18 183.361 197.54C183.001 197.9 182.821 198.393 182.821 199.02V204.52C182.821 204.653 182.775 204.767 182.681 204.86C182.588 204.953 182.468 205 182.321 205H180.581ZM193.154 205.2C191.594 205.2 190.388 204.8 189.534 204C188.681 203.187 188.221 202.08 188.154 200.68L188.134 199.8L188.154 198.92C188.221 197.533 188.688 196.433 189.554 195.62C190.421 194.807 191.621 194.4 193.154 194.4C194.688 194.4 195.888 194.807 196.754 195.62C197.621 196.433 198.088 197.533 198.154 198.92C198.168 199.08 198.174 199.373 198.174 199.8C198.174 200.227 198.168 200.52 198.154 200.68C198.088 202.08 197.628 203.187 196.774 204C195.921 204.8 194.714 205.2 193.154 205.2ZM193.154 203.22C193.861 203.22 194.408 203 194.794 202.56C195.181 202.107 195.394 201.447 195.434 200.58C195.448 200.447 195.454 200.187 195.454 199.8C195.454 199.413 195.448 199.153 195.434 199.02C195.394 198.153 195.181 197.5 194.794 197.06C194.408 196.607 193.861 196.38 193.154 196.38C192.448 196.38 191.901 196.607 191.514 197.06C191.128 197.5 190.914 198.153 190.874 199.02L190.854 199.8L190.874 200.58C190.914 201.447 191.128 202.107 191.514 202.56C191.901 203 192.448 203.22 193.154 203.22ZM201.12 205C200.987 205 200.874 204.953 200.78 204.86C200.687 204.767 200.64 204.653 200.64 204.52V195.08C200.64 194.947 200.687 194.833 200.78 194.74C200.874 194.647 200.987 194.6 201.12 194.6H202.68C202.814 194.6 202.927 194.647 203.02 194.74C203.114 194.833 203.16 194.947 203.16 195.08V195.76C203.854 194.853 204.82 194.4 206.06 194.4C207.54 194.4 208.574 194.993 209.16 196.18C209.48 195.647 209.934 195.22 210.52 194.9C211.107 194.567 211.74 194.4 212.42 194.4C213.514 194.4 214.407 194.773 215.1 195.52C215.794 196.267 216.14 197.353 216.14 198.78V204.52C216.14 204.653 216.094 204.767 216 204.86C215.92 204.953 215.807 205 215.66 205H214.02C213.887 205 213.774 204.953 213.68 204.86C213.587 204.767 213.54 204.653 213.54 204.52V198.94C213.54 198.1 213.36 197.493 213 197.12C212.654 196.733 212.187 196.54 211.6 196.54C211.08 196.54 210.634 196.733 210.26 197.12C209.9 197.507 209.72 198.113 209.72 198.94V204.52C209.72 204.653 209.674 204.767 209.58 204.86C209.487 204.953 209.374 205 209.24 205H207.6C207.467 205 207.354 204.953 207.26 204.86C207.167 204.767 207.12 204.653 207.12 204.52V198.94C207.12 198.1 206.934 197.493 206.56 197.12C206.2 196.733 205.74 196.54 205.18 196.54C204.647 196.54 204.194 196.733 203.82 197.12C203.46 197.507 203.28 198.113 203.28 198.94V204.52C203.28 204.653 203.234 204.767 203.14 204.86C203.047 204.953 202.934 205 202.8 205H201.12ZM223.417 205.2C221.937 205.2 220.757 204.773 219.877 203.92C219.011 203.053 218.551 201.84 218.497 200.28L218.477 199.78L218.497 199.28C218.564 197.76 219.031 196.567 219.897 195.7C220.777 194.833 221.951 194.4 223.417 194.4C224.991 194.4 226.204 194.88 227.057 195.84C227.924 196.8 228.357 198.08 228.357 199.68V200.1C228.357 200.233 228.311 200.347 228.217 200.44C228.124 200.533 228.004 200.58 227.857 200.58H221.217V200.74C221.244 201.473 221.444 202.093 221.817 202.6C222.204 203.093 222.731 203.34 223.397 203.34C224.184 203.34 224.817 203.033 225.297 202.42C225.417 202.273 225.511 202.18 225.577 202.14C225.657 202.1 225.771 202.08 225.917 202.08H227.637C227.757 202.08 227.857 202.12 227.937 202.2C228.031 202.267 228.077 202.353 228.077 202.46C228.077 202.78 227.884 203.16 227.497 203.6C227.124 204.027 226.584 204.4 225.877 204.72C225.171 205.04 224.351 205.2 223.417 205.2ZM225.637 198.9V198.84C225.637 198.053 225.437 197.42 225.037 196.94C224.651 196.46 224.111 196.22 223.417 196.22C222.724 196.22 222.184 196.46 221.797 196.94C221.411 197.42 221.217 198.053 221.217 198.84V198.9H225.637Z" fill="#242A45"/>
<path opacity="0.5" d="M86.7184 235C86.6184 235 86.5334 234.97 86.4634 234.91C86.4034 234.84 86.3734 234.755 86.3734 234.655V224.86C86.3734 224.75 86.4034 224.665 86.4634 224.605C86.5334 224.535 86.6184 224.5 86.7184 224.5H87.4684C87.6284 224.5 87.7584 224.58 87.8584 224.74L91.0234 230.8L94.2184 224.74C94.2384 224.68 94.2784 224.625 94.3384 224.575C94.4084 224.525 94.4934 224.5 94.5934 224.5H95.3284C95.4384 224.5 95.5234 224.535 95.5834 224.605C95.6534 224.665 95.6884 224.75 95.6884 224.86V234.655C95.6884 234.755 95.6534 234.84 95.5834 234.91C95.5134 234.97 95.4284 235 95.3284 235H94.5934C94.4934 235 94.4084 234.97 94.3384 234.91C94.2784 234.84 94.2484 234.755 94.2484 234.655V227.275L91.7434 232.165C91.6434 232.375 91.4834 232.48 91.2634 232.48H90.7984C90.5784 232.48 90.4184 232.375 90.3184 232.165L87.7984 227.275V234.655C87.7984 234.755 87.7634 234.84 87.6934 234.91C87.6334 234.97 87.5534 235 87.4534 235H86.7184ZM98.3125 225.745C98.2125 225.745 98.1275 225.715 98.0575 225.655C97.9975 225.585 97.9675 225.5 97.9675 225.4V224.59C97.9675 224.49 97.9975 224.405 98.0575 224.335C98.1275 224.265 98.2125 224.23 98.3125 224.23H99.2575C99.3575 224.23 99.4425 224.265 99.5125 224.335C99.5825 224.405 99.6175 224.49 99.6175 224.59V225.4C99.6175 225.5 99.5825 225.585 99.5125 225.655C99.4425 225.715 99.3575 225.745 99.2575 225.745H98.3125ZM98.4325 235C98.3325 235 98.2475 234.97 98.1775 234.91C98.1175 234.84 98.0875 234.755 98.0875 234.655V227.545C98.0875 227.445 98.1175 227.365 98.1775 227.305C98.2475 227.235 98.3325 227.2 98.4325 227.2H99.1525C99.2525 227.2 99.3325 227.235 99.3925 227.305C99.4625 227.365 99.4975 227.445 99.4975 227.545V234.655C99.4975 234.755 99.4625 234.84 99.3925 234.91C99.3325 234.97 99.2525 235 99.1525 235H98.4325ZM102.065 235C101.965 235 101.88 234.97 101.81 234.91C101.75 234.84 101.72 234.755 101.72 234.655V227.545C101.72 227.445 101.75 227.365 101.81 227.305C101.88 227.235 101.965 227.2 102.065 227.2H102.77C102.87 227.2 102.95 227.235 103.01 227.305C103.08 227.365 103.115 227.445 103.115 227.545V228.205C103.405 227.835 103.745 227.55 104.135 227.35C104.535 227.15 105.03 227.05 105.62 227.05C106.58 227.05 107.325 227.36 107.855 227.98C108.395 228.59 108.665 229.405 108.665 230.425V234.655C108.665 234.755 108.63 234.84 108.56 234.91C108.5 234.97 108.42 235 108.32 235H107.57C107.47 235 107.385 234.97 107.315 234.91C107.255 234.84 107.225 234.755 107.225 234.655V230.5C107.225 229.79 107.05 229.24 106.7 228.85C106.36 228.46 105.865 228.265 105.215 228.265C104.585 228.265 104.085 228.465 103.715 228.865C103.345 229.255 103.16 229.8 103.16 230.5V234.655C103.16 234.755 103.125 234.84 103.055 234.91C102.995 234.97 102.915 235 102.815 235H102.065ZM111.042 225.745C110.942 225.745 110.857 225.715 110.787 225.655C110.727 225.585 110.697 225.5 110.697 225.4V224.59C110.697 224.49 110.727 224.405 110.787 224.335C110.857 224.265 110.942 224.23 111.042 224.23H111.987C112.087 224.23 112.172 224.265 112.242 224.335C112.312 224.405 112.347 224.49 112.347 224.59V225.4C112.347 225.5 112.312 225.585 112.242 225.655C112.172 225.715 112.087 225.745 111.987 225.745H111.042ZM111.162 235C111.062 235 110.977 234.97 110.907 234.91C110.847 234.84 110.817 234.755 110.817 234.655V227.545C110.817 227.445 110.847 227.365 110.907 227.305C110.977 227.235 111.062 227.2 111.162 227.2H111.882C111.982 227.2 112.062 227.235 112.122 227.305C112.192 227.365 112.227 227.445 112.227 227.545V234.655C112.227 234.755 112.192 234.84 112.122 234.91C112.062 234.97 111.982 235 111.882 235H111.162ZM114.795 235C114.695 235 114.61 234.97 114.54 234.91C114.48 234.84 114.45 234.755 114.45 234.655V227.545C114.45 227.445 114.48 227.365 114.54 227.305C114.61 227.235 114.695 227.2 114.795 227.2H115.47C115.57 227.2 115.65 227.235 115.71 227.305C115.78 227.365 115.815 227.445 115.815 227.545V228.07C116.335 227.39 117.06 227.05 117.99 227.05C119.1 227.05 119.885 227.51 120.345 228.43C120.585 228.01 120.925 227.675 121.365 227.425C121.805 227.175 122.3 227.05 122.85 227.05C123.67 227.05 124.34 227.33 124.86 227.89C125.38 228.45 125.64 229.26 125.64 230.32V234.655C125.64 234.755 125.605 234.84 125.535 234.91C125.475 234.97 125.395 235 125.295 235H124.59C124.49 235 124.405 234.97 124.335 234.91C124.275 234.84 124.245 234.755 124.245 234.655V230.455C124.245 229.675 124.08 229.115 123.75 228.775C123.43 228.435 123.005 228.265 122.475 228.265C122.005 228.265 121.6 228.44 121.26 228.79C120.92 229.13 120.75 229.685 120.75 230.455V234.655C120.75 234.755 120.715 234.84 120.645 234.91C120.585 234.97 120.505 235 120.405 235H119.7C119.6 235 119.515 234.97 119.445 234.91C119.385 234.84 119.355 234.755 119.355 234.655V230.455C119.355 229.675 119.185 229.115 118.845 228.775C118.515 228.435 118.095 228.265 117.585 228.265C117.115 228.265 116.71 228.44 116.37 228.79C116.03 229.13 115.86 229.68 115.86 230.44V234.655C115.86 234.755 115.825 234.84 115.755 234.91C115.695 234.97 115.615 235 115.515 235H114.795ZM130.69 235.15C129.74 235.15 129.005 234.845 128.485 234.235C127.965 233.615 127.705 232.795 127.705 231.775V227.545C127.705 227.445 127.735 227.365 127.795 227.305C127.865 227.235 127.95 227.2 128.05 227.2H128.8C128.9 227.2 128.98 227.235 129.04 227.305C129.11 227.365 129.145 227.445 129.145 227.545V231.7C129.145 233.19 129.795 233.935 131.095 233.935C131.725 233.935 132.225 233.74 132.595 233.35C132.965 232.95 133.15 232.4 133.15 231.7V227.545C133.15 227.445 133.18 227.365 133.24 227.305C133.31 227.235 133.395 227.2 133.495 227.2H134.245C134.345 227.2 134.425 227.235 134.485 227.305C134.545 227.365 134.575 227.445 134.575 227.545V234.655C134.575 234.755 134.545 234.84 134.485 234.91C134.425 234.97 134.345 235 134.245 235H133.54C133.44 235 133.355 234.97 133.285 234.91C133.225 234.84 133.195 234.755 133.195 234.655V233.995C132.915 234.375 132.575 234.665 132.175 234.865C131.775 235.055 131.28 235.15 130.69 235.15ZM137.148 235C137.048 235 136.963 234.97 136.893 234.91C136.833 234.84 136.803 234.755 136.803 234.655V227.545C136.803 227.445 136.833 227.365 136.893 227.305C136.963 227.235 137.048 227.2 137.148 227.2H137.823C137.923 227.2 138.003 227.235 138.063 227.305C138.133 227.365 138.168 227.445 138.168 227.545V228.07C138.688 227.39 139.413 227.05 140.343 227.05C141.453 227.05 142.238 227.51 142.698 228.43C142.938 228.01 143.278 227.675 143.718 227.425C144.158 227.175 144.653 227.05 145.203 227.05C146.023 227.05 146.693 227.33 147.213 227.89C147.733 228.45 147.993 229.26 147.993 230.32V234.655C147.993 234.755 147.958 234.84 147.888 234.91C147.828 234.97 147.748 235 147.648 235H146.943C146.843 235 146.758 234.97 146.688 234.91C146.628 234.84 146.598 234.755 146.598 234.655V230.455C146.598 229.675 146.433 229.115 146.103 228.775C145.783 228.435 145.358 228.265 144.828 228.265C144.358 228.265 143.953 228.44 143.613 228.79C143.273 229.13 143.103 229.685 143.103 230.455V234.655C143.103 234.755 143.068 234.84 142.998 234.91C142.938 234.97 142.858 235 142.758 235H142.053C141.953 235 141.868 234.97 141.798 234.91C141.738 234.84 141.708 234.755 141.708 234.655V230.455C141.708 229.675 141.538 229.115 141.198 228.775C140.868 228.435 140.448 228.265 139.938 228.265C139.468 228.265 139.063 228.44 138.723 228.79C138.383 229.13 138.213 229.68 138.213 230.44V234.655C138.213 234.755 138.178 234.84 138.108 234.91C138.048 234.97 137.968 235 137.868 235H137.148ZM156.13 235C155.87 235 155.685 234.875 155.575 234.625L152.8 227.665L152.77 227.515C152.77 227.425 152.8 227.35 152.86 227.29C152.92 227.23 152.995 227.2 153.085 227.2H153.805C153.975 227.2 154.1 227.285 154.18 227.455L156.46 233.365L158.74 227.455C158.83 227.285 158.95 227.2 159.1 227.2H159.835C159.915 227.2 159.985 227.23 160.045 227.29C160.115 227.35 160.15 227.425 160.15 227.515L160.12 227.665L157.33 234.625C157.22 234.875 157.035 235 156.775 235H156.13ZM164.562 235.15C163.532 235.15 162.707 234.835 162.087 234.205C161.477 233.565 161.142 232.695 161.082 231.595L161.067 231.085L161.082 230.59C161.152 229.51 161.492 228.65 162.102 228.01C162.722 227.37 163.537 227.05 164.547 227.05C165.657 227.05 166.517 227.405 167.127 228.115C167.737 228.815 168.042 229.765 168.042 230.965V231.22C168.042 231.32 168.007 231.405 167.937 231.475C167.877 231.535 167.797 231.565 167.697 231.565H162.507V231.7C162.537 232.35 162.732 232.905 163.092 233.365C163.462 233.815 163.947 234.04 164.547 234.04C165.007 234.04 165.382 233.95 165.672 233.77C165.972 233.58 166.192 233.385 166.332 233.185C166.422 233.065 166.487 232.995 166.527 232.975C166.577 232.945 166.662 232.93 166.782 232.93H167.517C167.607 232.93 167.682 232.955 167.742 233.005C167.802 233.055 167.832 233.125 167.832 233.215C167.832 233.435 167.692 233.7 167.412 234.01C167.142 234.32 166.757 234.59 166.257 234.82C165.767 235.04 165.202 235.15 164.562 235.15ZM166.617 230.53V230.485C166.617 229.795 166.427 229.235 166.047 228.805C165.677 228.365 165.177 228.145 164.547 228.145C163.917 228.145 163.417 228.365 163.047 228.805C162.687 229.235 162.507 229.795 162.507 230.485V230.53H166.617ZM170.181 235C170.081 235 169.996 234.97 169.926 234.91C169.866 234.84 169.836 234.755 169.836 234.655V227.56C169.836 227.46 169.866 227.375 169.926 227.305C169.996 227.235 170.081 227.2 170.181 227.2H170.871C170.971 227.2 171.056 227.235 171.126 227.305C171.196 227.375 171.231 227.46 171.231 227.56V228.22C171.641 227.54 172.341 227.2 173.331 227.2H173.916C174.016 227.2 174.096 227.235 174.156 227.305C174.226 227.365 174.261 227.445 174.261 227.545V228.16C174.261 228.26 174.226 228.34 174.156 228.4C174.096 228.46 174.016 228.49 173.916 228.49H173.016C172.476 228.49 172.051 228.65 171.741 228.97C171.431 229.28 171.276 229.705 171.276 230.245V234.655C171.276 234.755 171.241 234.84 171.171 234.91C171.101 234.97 171.016 235 170.916 235H170.181ZM178.234 235.15C177.534 235.15 176.944 235.04 176.464 234.82C175.994 234.59 175.639 234.33 175.399 234.04C175.169 233.75 175.054 233.51 175.054 233.32C175.054 233.22 175.089 233.145 175.159 233.095C175.239 233.035 175.319 233.005 175.399 233.005H176.074C176.174 233.005 176.264 233.055 176.344 233.155C176.584 233.435 176.844 233.655 177.124 233.815C177.404 233.975 177.779 234.055 178.249 234.055C178.769 234.055 179.189 233.955 179.509 233.755C179.839 233.545 180.004 233.26 180.004 232.9C180.004 232.66 179.934 232.465 179.794 232.315C179.664 232.155 179.434 232.02 179.104 231.91C178.784 231.79 178.304 231.66 177.664 231.52C176.794 231.33 176.174 231.055 175.804 230.695C175.444 230.335 175.264 229.87 175.264 229.3C175.264 228.92 175.374 228.56 175.594 228.22C175.824 227.87 176.154 227.59 176.584 227.38C177.024 227.16 177.549 227.05 178.159 227.05C178.799 227.05 179.344 227.155 179.794 227.365C180.244 227.575 180.579 227.825 180.799 228.115C181.029 228.395 181.144 228.63 181.144 228.82C181.144 228.91 181.109 228.985 181.039 229.045C180.979 229.105 180.904 229.135 180.814 229.135H180.184C180.064 229.135 179.964 229.085 179.884 228.985C179.724 228.795 179.584 228.65 179.464 228.55C179.354 228.44 179.189 228.345 178.969 228.265C178.759 228.185 178.489 228.145 178.159 228.145C177.679 228.145 177.309 228.25 177.049 228.46C176.789 228.66 176.659 228.925 176.659 229.255C176.659 229.465 176.714 229.645 176.824 229.795C176.934 229.935 177.144 230.065 177.454 230.185C177.774 230.305 178.234 230.43 178.834 230.56C179.784 230.76 180.454 231.05 180.844 231.43C181.244 231.8 181.444 232.275 181.444 232.855C181.444 233.285 181.319 233.675 181.069 234.025C180.819 234.375 180.449 234.65 179.959 234.85C179.479 235.05 178.904 235.15 178.234 235.15ZM183.405 225.745C183.305 225.745 183.22 225.715 183.15 225.655C183.09 225.585 183.06 225.5 183.06 225.4V224.59C183.06 224.49 183.09 224.405 183.15 224.335C183.22 224.265 183.305 224.23 183.405 224.23H184.35C184.45 224.23 184.535 224.265 184.605 224.335C184.675 224.405 184.71 224.49 184.71 224.59V225.4C184.71 225.5 184.675 225.585 184.605 225.655C184.535 225.715 184.45 225.745 184.35 225.745H183.405ZM183.525 235C183.425 235 183.34 234.97 183.27 234.91C183.21 234.84 183.18 234.755 183.18 234.655V227.545C183.18 227.445 183.21 227.365 183.27 227.305C183.34 227.235 183.425 227.2 183.525 227.2H184.245C184.345 227.2 184.425 227.235 184.485 227.305C184.555 227.365 184.59 227.445 184.59 227.545V234.655C184.59 234.755 184.555 234.84 184.485 234.91C184.425 234.97 184.345 235 184.245 235H183.525ZM190.008 235.15C188.908 235.15 188.053 234.84 187.443 234.22C186.843 233.6 186.523 232.775 186.483 231.745L186.468 231.1L186.483 230.455C186.523 229.435 186.848 228.615 187.458 227.995C188.068 227.365 188.918 227.05 190.008 227.05C191.098 227.05 191.948 227.365 192.558 227.995C193.168 228.615 193.493 229.435 193.533 230.455C193.543 230.565 193.548 230.78 193.548 231.1C193.548 231.42 193.543 231.635 193.533 231.745C193.493 232.775 193.168 233.6 192.558 234.22C191.958 234.84 191.108 235.15 190.008 235.15ZM190.008 233.995C190.638 233.995 191.133 233.795 191.493 233.395C191.863 232.995 192.063 232.42 192.093 231.67C192.103 231.57 192.108 231.38 192.108 231.1C192.108 230.82 192.103 230.63 192.093 230.53C192.063 229.78 191.863 229.205 191.493 228.805C191.133 228.405 190.638 228.205 190.008 228.205C189.378 228.205 188.878 228.405 188.508 228.805C188.138 229.205 187.943 229.78 187.923 230.53L187.908 231.1L187.923 231.67C187.943 232.42 188.138 232.995 188.508 233.395C188.878 233.795 189.378 233.995 190.008 233.995ZM195.771 235C195.671 235 195.586 234.97 195.516 234.91C195.456 234.84 195.426 234.755 195.426 234.655V227.545C195.426 227.445 195.456 227.365 195.516 227.305C195.586 227.235 195.671 227.2 195.771 227.2H196.476C196.576 227.2 196.656 227.235 196.716 227.305C196.786 227.365 196.821 227.445 196.821 227.545V228.205C197.111 227.835 197.451 227.55 197.841 227.35C198.241 227.15 198.736 227.05 199.326 227.05C200.286 227.05 201.031 227.36 201.561 227.98C202.101 228.59 202.371 229.405 202.371 230.425V234.655C202.371 234.755 202.336 234.84 202.266 234.91C202.206 234.97 202.126 235 202.026 235H201.276C201.176 235 201.091 234.97 201.021 234.91C200.961 234.84 200.931 234.755 200.931 234.655V230.5C200.931 229.79 200.756 229.24 200.406 228.85C200.066 228.46 199.571 228.265 198.921 228.265C198.291 228.265 197.791 228.465 197.421 228.865C197.051 229.255 196.866 229.8 196.866 230.5V234.655C196.866 234.755 196.831 234.84 196.761 234.91C196.701 234.97 196.621 235 196.521 235H195.771ZM211.71 235.15C210.91 235.15 210.215 234.99 209.625 234.67C209.035 234.34 208.585 233.9 208.275 233.35C207.965 232.8 207.81 232.2 207.81 231.55C207.81 231.02 207.915 230.52 208.125 230.05C208.345 229.57 208.59 229.145 208.86 228.775L211.71 224.8C211.72 224.79 211.75 224.755 211.8 224.695C211.84 224.635 211.895 224.59 211.965 224.56C212.035 224.52 212.115 224.5 212.205 224.5H213C213.09 224.5 213.16 224.535 213.21 224.605C213.27 224.665 213.3 224.74 213.3 224.83C213.3 224.9 213.28 224.965 213.24 225.025L211.05 228.085C211.27 228.015 211.555 227.98 211.905 227.98C212.625 227.99 213.26 228.155 213.81 228.475C214.37 228.795 214.8 229.225 215.1 229.765C215.41 230.305 215.565 230.895 215.565 231.535C215.565 232.175 215.41 232.775 215.1 233.335C214.8 233.885 214.355 234.325 213.765 234.655C213.185 234.985 212.5 235.15 211.71 235.15ZM211.695 233.875C212.125 233.875 212.52 233.785 212.88 233.605C213.25 233.425 213.54 233.16 213.75 232.81C213.97 232.45 214.08 232.025 214.08 231.535C214.08 231.055 213.97 230.64 213.75 230.29C213.54 229.94 213.25 229.675 212.88 229.495C212.52 229.315 212.125 229.225 211.695 229.225C211.275 229.225 210.88 229.315 210.51 229.495C210.15 229.675 209.86 229.94 209.64 230.29C209.42 230.64 209.31 231.055 209.31 231.535C209.31 232.025 209.42 232.45 209.64 232.81C209.86 233.16 210.15 233.425 210.51 233.605C210.87 233.785 211.265 233.875 211.695 233.875ZM217.208 235C217.108 235 217.023 234.97 216.953 234.91C216.893 234.84 216.863 234.755 216.863 234.655V234.175C216.863 233.945 216.988 233.725 217.238 233.515L220.418 230.335C221.188 229.695 221.718 229.175 222.008 228.775C222.298 228.365 222.443 227.935 222.443 227.485C222.443 226.905 222.278 226.45 221.948 226.12C221.628 225.79 221.158 225.625 220.538 225.625C219.958 225.625 219.493 225.8 219.143 226.15C218.793 226.49 218.578 226.945 218.498 227.515C218.478 227.635 218.428 227.725 218.348 227.785C218.278 227.835 218.198 227.86 218.108 227.86H217.328C217.238 227.86 217.163 227.835 217.103 227.785C217.043 227.725 217.013 227.655 217.013 227.575C217.033 227.035 217.178 226.52 217.448 226.03C217.718 225.53 218.113 225.125 218.633 224.815C219.163 224.495 219.798 224.335 220.538 224.335C221.668 224.335 222.518 224.63 223.088 225.22C223.668 225.8 223.958 226.54 223.958 227.44C223.958 228.07 223.798 228.64 223.478 229.15C223.168 229.65 222.683 230.19 222.023 230.77L219.143 233.695H223.823C223.933 233.695 224.018 233.73 224.078 233.8C224.148 233.86 224.183 233.94 224.183 234.04V234.655C224.183 234.755 224.148 234.84 224.078 234.91C224.008 234.97 223.923 235 223.823 235H217.208Z" fill="#242A45"/>
<path fill-rule="evenodd" clip-rule="evenodd" d="M17 278C17 279.105 16.1046 280 15 280C13.8954 280 13 279.105 13 278C13 276.895 13.8954 276 15 276C16.1046 276 17 276.895 17 278ZM297 278C297 279.105 296.105 280 295 280C293.895 280 293 279.105 293 278C293 276.895 293.895 276 295 276C296.105 276 297 276.895 297 278ZM278 280C279.105 280 280 279.105 280 278C280 276.895 279.105 276 278 276C276.895 276 276 276.895 276 278C276 279.105 276.895 280 278 280ZM245 278C245 279.105 244.105 280 243 280C241.895 280 241 279.105 241 278C241 276.895 241.895 276 243 276C244.105 276 245 276.895 245 278ZM208 280C209.105 280 210 279.105 210 278C210 276.895 209.105 276 208 276C206.895 276 206 276.895 206 278C206 279.105 206.895 280 208 280ZM175 278C175 279.105 174.105 280 173 280C171.895 280 171 279.105 171 278C171 276.895 171.895 276 173 276C174.105 276 175 276.895 175 278ZM155 280C156.105 280 157 279.105 157 278C157 276.895 156.105 276 155 276C153.895 276 153 276.895 153 278C153 279.105 153.895 280 155 280ZM140 278C140 279.105 139.105 280 138 280C136.895 280 136 279.105 136 278C136 276.895 136.895 276 138 276C139.105 276 140 276.895 140 278ZM260 280C261.105 280 262 279.105 262 278C262 276.895 261.105 276 260 276C258.895 276 258 276.895 258 278C258 279.105 258.895 280 260 280ZM227 278C227 279.105 226.105 280 225 280C223.895 280 223 279.105 223 278C223 276.895 223.895 276 225 276C226.105 276 227 276.895 227 278ZM190 280C191.105 280 192 279.105 192 278C192 276.895 191.105 276 190 276C188.895 276 188 276.895 188 278C188 279.105 188.895 280 190 280ZM122 278C122 279.105 121.105 280 120 280C118.895 280 118 279.105 118 278C118 276.895 118.895 276 120 276C121.105 276 122 276.895 122 278ZM103 280C104.105 280 105 279.105 105 278C105 276.895 104.105 276 103 276C101.895 276 101 276.895 101 278C101 279.105 101.895 280 103 280ZM87 278C87 279.105 86.1046 280 85 280C83.8954 280 83 279.105 83 278C83 276.895 83.8954 276 85 276C86.1046 276 87 276.895 87 278ZM68 280C69.1046 280 70 279.105 70 278C70 276.895 69.1046 276 68 276C66.8954 276 66 276.895 66 278C66 279.105 66.8954 280 68 280ZM52 278C52 279.105 51.1046 280 50 280C48.8954 280 48 279.105 48 278C48 276.895 48.8954 276 50 276C51.1046 276 52 276.895 52 278ZM33 280C34.1046 280 35 279.105 35 278C35 276.895 34.1046 276 33 276C31.8954 276 31 276.895 31 278C31 279.105 31.8954 280 33 280Z" fill="#495DCF" fill-opacity="0.20012"/>
<g clip-path="url(#clip0_0_843)">
<g filter="url(#filter1_d_0_843)">
<rect x="39" y="304" width="232" height="48" rx="5" fill="#5267DF"/>
</g>
<path d="M75.3445 333C75.2698 333 75.1998 332.972 75.1345 332.916C75.0785 332.86 75.0505 332.79 75.0505 332.706L75.0785 332.58L78.4525 323.55C78.5178 323.317 78.6812 323.2 78.9425 323.2H80.4685C80.7112 323.2 80.8745 323.317 80.9585 323.55L84.3325 332.58C84.3418 332.608 84.3465 332.65 84.3465 332.706C84.3465 332.79 84.3185 332.86 84.2625 332.916C84.2065 332.972 84.1412 333 84.0665 333H82.8485C82.7272 333 82.6338 332.972 82.5685 332.916C82.5032 332.86 82.4612 332.799 82.4425 332.734L81.7845 331.026H77.6265L76.9685 332.734C76.8938 332.911 76.7585 333 76.5625 333H75.3445ZM81.2945 329.416L79.6985 325.09L78.1165 329.416H81.2945ZM88.3555 333.14C87.4128 333.14 86.6895 332.837 86.1855 332.23C85.6815 331.623 85.4108 330.816 85.3735 329.808L85.3595 329.346L85.3735 328.898C85.4015 327.918 85.6675 327.12 86.1715 326.504C86.6848 325.888 87.4128 325.58 88.3555 325.58C89.2608 325.58 89.9795 325.888 90.5115 326.504V323.396C90.5115 323.293 90.5442 323.214 90.6095 323.158C90.6748 323.093 90.7542 323.06 90.8475 323.06H92.0375C92.1402 323.06 92.2195 323.093 92.2755 323.158C92.3408 323.214 92.3735 323.293 92.3735 323.396V332.664C92.3735 332.757 92.3408 332.837 92.2755 332.902C92.2195 332.967 92.1402 333 92.0375 333H90.9315C90.8382 333 90.7588 332.967 90.6935 332.902C90.6282 332.837 90.5955 332.757 90.5955 332.664V332.146C90.0635 332.809 89.3168 333.14 88.3555 333.14ZM88.8735 331.642C89.4148 331.642 89.8162 331.469 90.0775 331.124C90.3388 330.779 90.4835 330.354 90.5115 329.85C90.5208 329.738 90.5255 329.556 90.5255 329.304C90.5255 329.061 90.5208 328.884 90.5115 328.772C90.4928 328.305 90.3435 327.909 90.0635 327.582C89.7928 327.246 89.3962 327.078 88.8735 327.078C87.8655 327.078 87.3288 327.699 87.2635 328.94L87.2495 329.36L87.2635 329.78C87.3288 331.021 87.8655 331.642 88.8735 331.642ZM97.1914 333.14C96.2488 333.14 95.5254 332.837 95.0214 332.23C94.5174 331.623 94.2468 330.816 94.2094 329.808L94.1954 329.346L94.2094 328.898C94.2374 327.918 94.5034 327.12 95.0074 326.504C95.5208 325.888 96.2488 325.58 97.1914 325.58C98.0968 325.58 98.8154 325.888 99.3474 326.504V323.396C99.3474 323.293 99.3801 323.214 99.4454 323.158C99.5108 323.093 99.5901 323.06 99.6834 323.06H100.873C100.976 323.06 101.055 323.093 101.111 323.158C101.177 323.214 101.209 323.293 101.209 323.396V332.664C101.209 332.757 101.177 332.837 101.111 332.902C101.055 332.967 100.976 333 100.873 333H99.7674C99.6741 333 99.5948 332.967 99.5294 332.902C99.4641 332.837 99.4314 332.757 99.4314 332.664V332.146C98.8994 332.809 98.1528 333.14 97.1914 333.14ZM97.7094 331.642C98.2508 331.642 98.6521 331.469 98.9134 331.124C99.1748 330.779 99.3194 330.354 99.3474 329.85C99.3568 329.738 99.3614 329.556 99.3614 329.304C99.3614 329.061 99.3568 328.884 99.3474 328.772C99.3288 328.305 99.1794 327.909 98.8994 327.582C98.6288 327.246 98.2321 327.078 97.7094 327.078C96.7014 327.078 96.1648 327.699 96.0994 328.94L96.0854 329.36L96.0994 329.78C96.1648 331.021 96.7014 331.642 97.7094 331.642ZM109.953 333.14C109.281 333.14 108.683 333.023 108.161 332.79C107.647 332.557 107.251 332.23 106.971 331.81C106.691 331.381 106.551 330.886 106.551 330.326C106.551 329.747 106.719 329.248 107.055 328.828C107.391 328.399 107.867 328.007 108.483 327.652C108.081 327.223 107.797 326.84 107.629 326.504C107.461 326.168 107.377 325.818 107.377 325.454C107.377 325.015 107.489 324.614 107.713 324.25C107.937 323.886 108.263 323.597 108.693 323.382C109.122 323.167 109.631 323.06 110.219 323.06C110.769 323.06 111.25 323.167 111.661 323.382C112.081 323.587 112.403 323.872 112.627 324.236C112.851 324.6 112.963 324.997 112.963 325.426C112.963 325.977 112.785 326.448 112.431 326.84C112.085 327.223 111.581 327.601 110.919 327.974L112.935 329.976C113.271 329.407 113.518 328.786 113.677 328.114C113.686 328.039 113.714 327.983 113.761 327.946C113.817 327.899 113.887 327.876 113.971 327.876H114.993C115.067 327.876 115.133 327.904 115.189 327.96C115.245 328.016 115.273 328.081 115.273 328.156C115.263 328.52 115.133 328.973 114.881 329.514C114.638 330.055 114.344 330.559 113.999 331.026L115.483 332.538C115.557 332.594 115.595 332.664 115.595 332.748C115.595 332.823 115.571 332.883 115.525 332.93C115.478 332.977 115.413 333 115.329 333H113.985C113.845 333 113.719 332.953 113.607 332.86L112.837 332.104C112.062 332.795 111.101 333.14 109.953 333.14ZM109.939 326.938C110.396 326.695 110.741 326.467 110.975 326.252C111.217 326.028 111.339 325.767 111.339 325.468C111.339 325.16 111.231 324.913 111.017 324.726C110.802 324.53 110.531 324.432 110.205 324.432C109.887 324.432 109.617 324.53 109.393 324.726C109.178 324.913 109.071 325.16 109.071 325.468C109.071 325.683 109.131 325.897 109.253 326.112C109.383 326.327 109.612 326.602 109.939 326.938ZM109.953 331.698C110.279 331.698 110.597 331.637 110.905 331.516C111.222 331.395 111.507 331.213 111.759 330.97L109.519 328.758C109.145 328.963 108.851 329.187 108.637 329.43C108.422 329.673 108.315 329.953 108.315 330.27C108.315 330.699 108.478 331.045 108.805 331.306C109.131 331.567 109.514 331.698 109.953 331.698ZM121.027 333C120.933 333 120.854 332.967 120.789 332.902C120.723 332.837 120.691 332.757 120.691 332.664V323.536C120.691 323.433 120.723 323.354 120.789 323.298C120.854 323.233 120.933 323.2 121.027 323.2H122.343C122.445 323.2 122.525 323.233 122.581 323.298C122.646 323.354 122.679 323.433 122.679 323.536V332.664C122.679 332.757 122.646 332.837 122.581 332.902C122.525 332.967 122.445 333 122.343 333H121.027ZM125.292 333C125.199 333 125.12 332.967 125.054 332.902C124.989 332.837 124.956 332.757 124.956 332.664V326.056C124.956 325.963 124.989 325.883 125.054 325.818C125.12 325.753 125.199 325.72 125.292 325.72H126.44C126.534 325.72 126.613 325.753 126.678 325.818C126.744 325.883 126.776 325.963 126.776 326.056V326.63C127.327 325.93 128.106 325.58 129.114 325.58C129.973 325.58 130.654 325.865 131.158 326.434C131.662 326.994 131.914 327.759 131.914 328.73V332.664C131.914 332.757 131.882 332.837 131.816 332.902C131.76 332.967 131.681 333 131.578 333H130.346C130.253 333 130.174 332.967 130.108 332.902C130.043 332.837 130.01 332.757 130.01 332.664V328.814C130.01 328.263 129.875 327.839 129.604 327.54C129.343 327.232 128.96 327.078 128.456 327.078C127.962 327.078 127.57 327.232 127.28 327.54C127 327.848 126.86 328.273 126.86 328.814V332.664C126.86 332.757 126.828 332.837 126.762 332.902C126.706 332.967 126.627 333 126.524 333H125.292ZM136.701 333.14C136.001 333.14 135.413 333.037 134.937 332.832C134.461 332.617 134.106 332.37 133.873 332.09C133.649 331.801 133.537 331.553 133.537 331.348C133.537 331.255 133.569 331.18 133.635 331.124C133.7 331.068 133.775 331.04 133.859 331.04H134.965C135.049 331.04 135.119 331.073 135.175 331.138C135.212 331.166 135.31 331.25 135.469 331.39C135.627 331.539 135.814 331.656 136.029 331.74C136.243 331.824 136.481 331.866 136.743 331.866C137.116 331.866 137.424 331.791 137.667 331.642C137.909 331.493 138.031 331.287 138.031 331.026C138.031 330.83 137.975 330.671 137.863 330.55C137.76 330.429 137.569 330.321 137.289 330.228C137.009 330.125 136.593 330.018 136.043 329.906C135.249 329.738 134.661 329.481 134.279 329.136C133.905 328.791 133.719 328.333 133.719 327.764C133.719 327.391 133.831 327.041 134.055 326.714C134.279 326.378 134.61 326.107 135.049 325.902C135.497 325.687 136.029 325.58 136.645 325.58C137.27 325.58 137.811 325.683 138.269 325.888C138.726 326.084 139.071 326.322 139.305 326.602C139.547 326.873 139.669 327.115 139.669 327.33C139.669 327.414 139.636 327.489 139.571 327.554C139.515 327.61 139.445 327.638 139.361 327.638H138.325C138.25 327.638 138.171 327.605 138.087 327.54C138.021 327.493 137.919 327.405 137.779 327.274C137.639 327.143 137.475 327.041 137.289 326.966C137.102 326.891 136.883 326.854 136.631 326.854C136.285 326.854 136.015 326.929 135.819 327.078C135.632 327.227 135.539 327.423 135.539 327.666C135.539 327.843 135.585 327.988 135.679 328.1C135.772 328.212 135.954 328.319 136.225 328.422C136.495 328.525 136.901 328.627 137.443 328.73C138.339 328.907 138.978 329.183 139.361 329.556C139.753 329.929 139.949 330.387 139.949 330.928C139.949 331.581 139.664 332.113 139.095 332.524C138.525 332.935 137.727 333.14 136.701 333.14ZM144.906 333C144.057 333 143.418 332.781 142.988 332.342C142.568 331.894 142.358 331.241 142.358 330.382V327.204H141.252C141.159 327.204 141.08 327.171 141.014 327.106C140.949 327.031 140.916 326.947 140.916 326.854V326.056C140.916 325.963 140.949 325.883 141.014 325.818C141.08 325.753 141.159 325.72 141.252 325.72H142.358V323.396C142.358 323.293 142.391 323.214 142.456 323.158C142.522 323.093 142.601 323.06 142.694 323.06H143.828C143.931 323.06 144.01 323.093 144.066 323.158C144.132 323.214 144.164 323.293 144.164 323.396V325.72H145.914C146.017 325.72 146.096 325.753 146.152 325.818C146.218 325.874 146.25 325.953 146.25 326.056V326.854C146.25 326.957 146.218 327.041 146.152 327.106C146.087 327.171 146.008 327.204 145.914 327.204H144.164V330.242C144.164 330.643 144.234 330.947 144.374 331.152C144.514 331.357 144.748 331.46 145.074 331.46H146.04C146.134 331.46 146.213 331.493 146.278 331.558C146.344 331.623 146.376 331.703 146.376 331.796V332.664C146.376 332.757 146.344 332.837 146.278 332.902C146.222 332.967 146.143 333 146.04 333H144.906ZM149.982 333.14C149.506 333.14 149.068 333.047 148.666 332.86C148.274 332.664 147.962 332.403 147.728 332.076C147.504 331.749 147.392 331.39 147.392 330.998C147.392 330.363 147.649 329.85 148.162 329.458C148.676 329.066 149.38 328.8 150.276 328.66L152.194 328.38V328.086C152.194 327.675 152.092 327.367 151.886 327.162C151.681 326.957 151.35 326.854 150.892 326.854C150.584 326.854 150.332 326.915 150.136 327.036C149.95 327.148 149.8 327.26 149.688 327.372C149.576 327.493 149.502 327.573 149.464 327.61C149.427 327.722 149.357 327.778 149.254 327.778H148.176C148.092 327.778 148.018 327.75 147.952 327.694C147.896 327.638 147.868 327.563 147.868 327.47C147.878 327.237 147.99 326.971 148.204 326.672C148.428 326.373 148.769 326.117 149.226 325.902C149.684 325.687 150.244 325.58 150.906 325.58C152.008 325.58 152.81 325.827 153.314 326.322C153.818 326.817 154.07 327.465 154.07 328.268V332.664C154.07 332.757 154.038 332.837 153.972 332.902C153.916 332.967 153.837 333 153.734 333H152.6C152.507 333 152.428 332.967 152.362 332.902C152.297 332.837 152.264 332.757 152.264 332.664V332.118C152.059 332.417 151.765 332.664 151.382 332.86C151.009 333.047 150.542 333.14 149.982 333.14ZM150.458 331.81C150.972 331.81 151.392 331.642 151.718 331.306C152.045 330.97 152.208 330.48 152.208 329.836V329.542L150.808 329.766C150.267 329.85 149.856 329.985 149.576 330.172C149.306 330.359 149.17 330.587 149.17 330.858C149.17 331.157 149.296 331.39 149.548 331.558C149.8 331.726 150.104 331.81 150.458 331.81ZM156.466 333C156.373 333 156.294 332.967 156.228 332.902C156.163 332.837 156.13 332.757 156.13 332.664V323.396C156.13 323.293 156.163 323.214 156.228 323.158C156.294 323.093 156.373 323.06 156.466 323.06H157.628C157.731 323.06 157.81 323.093 157.866 323.158C157.932 323.214 157.964 323.293 157.964 323.396V332.664C157.964 332.757 157.932 332.837 157.866 332.902C157.81 332.967 157.731 333 157.628 333H156.466ZM160.421 333C160.328 333 160.249 332.967 160.183 332.902C160.118 332.837 160.085 332.757 160.085 332.664V323.396C160.085 323.293 160.118 323.214 160.183 323.158C160.249 323.093 160.328 323.06 160.421 323.06H161.583C161.686 323.06 161.765 323.093 161.821 323.158C161.887 323.214 161.919 323.293 161.919 323.396V332.664C161.919 332.757 161.887 332.837 161.821 332.902C161.765 332.967 161.686 333 161.583 333H160.421ZM167.98 333C167.886 333 167.807 332.967 167.742 332.902C167.676 332.837 167.644 332.757 167.644 332.664V323.55C167.644 323.447 167.672 323.363 167.728 323.298C167.793 323.233 167.877 323.2 167.98 323.2H174.14C174.242 323.2 174.326 323.233 174.392 323.298C174.457 323.363 174.49 323.447 174.49 323.55V324.474C174.49 324.577 174.457 324.661 174.392 324.726C174.326 324.782 174.242 324.81 174.14 324.81H169.534V327.288H173.832C173.934 327.288 174.018 327.321 174.084 327.386C174.149 327.442 174.182 327.521 174.182 327.624V328.492C174.182 328.595 174.149 328.679 174.084 328.744C174.018 328.8 173.934 328.828 173.832 328.828H169.534V331.39H174.252C174.354 331.39 174.438 331.423 174.504 331.488C174.569 331.553 174.602 331.637 174.602 331.74V332.664C174.602 332.767 174.569 332.851 174.504 332.916C174.438 332.972 174.354 333 174.252 333H167.98ZM176.127 333C176.043 333 175.968 332.972 175.903 332.916C175.847 332.851 175.819 332.776 175.819 332.692C175.819 332.608 175.851 332.529 175.917 332.454L178.297 329.262L176.085 326.266C176.029 326.191 176.001 326.112 176.001 326.028C176.001 325.944 176.029 325.874 176.085 325.818C176.15 325.753 176.225 325.72 176.309 325.72H177.527C177.62 325.72 177.69 325.743 177.737 325.79C177.793 325.827 177.849 325.883 177.905 325.958L179.487 328.058L181.069 325.958C181.078 325.949 181.115 325.907 181.181 325.832C181.237 325.757 181.325 325.72 181.447 325.72H182.609C182.693 325.72 182.763 325.753 182.819 325.818C182.884 325.874 182.917 325.939 182.917 326.014C182.917 326.107 182.889 326.191 182.833 326.266L180.593 329.29L182.987 332.454C183.052 332.529 183.085 332.608 183.085 332.692C183.085 332.776 183.052 332.851 182.987 332.916C182.931 332.972 182.861 333 182.777 333H181.503C181.353 333 181.227 332.925 181.125 332.776L179.445 330.55L177.737 332.776C177.634 332.925 177.508 333 177.359 333H176.127ZM187.877 333C187.028 333 186.388 332.781 185.959 332.342C185.539 331.894 185.329 331.241 185.329 330.382V327.204H184.223C184.13 327.204 184.05 327.171 183.985 327.106C183.92 327.031 183.887 326.947 183.887 326.854V326.056C183.887 325.963 183.92 325.883 183.985 325.818C184.05 325.753 184.13 325.72 184.223 325.72H185.329V323.396C185.329 323.293 185.362 323.214 185.427 323.158C185.492 323.093 185.572 323.06 185.665 323.06H186.799C186.902 323.06 186.981 323.093 187.037 323.158C187.102 323.214 187.135 323.293 187.135 323.396V325.72H188.885C188.988 325.72 189.067 325.753 189.123 325.818C189.188 325.874 189.221 325.953 189.221 326.056V326.854C189.221 326.957 189.188 327.041 189.123 327.106C189.058 327.171 188.978 327.204 188.885 327.204H187.135V330.242C187.135 330.643 187.205 330.947 187.345 331.152C187.485 331.357 187.718 331.46 188.045 331.46H189.011C189.104 331.46 189.184 331.493 189.249 331.558C189.314 331.623 189.347 331.703 189.347 331.796V332.664C189.347 332.757 189.314 332.837 189.249 332.902C189.193 332.967 189.114 333 189.011 333H187.877ZM193.975 333.14C192.939 333.14 192.113 332.841 191.497 332.244C190.89 331.637 190.568 330.788 190.531 329.696L190.517 329.346L190.531 328.996C190.578 327.932 190.904 327.097 191.511 326.49C192.127 325.883 192.948 325.58 193.975 325.58C195.076 325.58 195.926 325.916 196.523 326.588C197.13 327.26 197.433 328.156 197.433 329.276V329.57C197.433 329.663 197.4 329.743 197.335 329.808C197.27 329.873 197.186 329.906 197.083 329.906H192.435V330.018C192.454 330.531 192.594 330.965 192.855 331.32C193.126 331.665 193.494 331.838 193.961 331.838C194.512 331.838 194.955 331.623 195.291 331.194C195.375 331.091 195.44 331.026 195.487 330.998C195.543 330.97 195.622 330.956 195.725 330.956H196.929C197.013 330.956 197.083 330.984 197.139 331.04C197.204 331.087 197.237 331.147 197.237 331.222C197.237 331.446 197.102 331.712 196.831 332.02C196.57 332.319 196.192 332.58 195.697 332.804C195.202 333.028 194.628 333.14 193.975 333.14ZM195.529 328.73V328.688C195.529 328.137 195.389 327.694 195.109 327.358C194.838 327.022 194.46 326.854 193.975 326.854C193.49 326.854 193.112 327.022 192.841 327.358C192.57 327.694 192.435 328.137 192.435 328.688V328.73H195.529ZM199.505 333C199.412 333 199.332 332.967 199.267 332.902C199.202 332.837 199.169 332.757 199.169 332.664V326.056C199.169 325.963 199.202 325.883 199.267 325.818C199.332 325.753 199.412 325.72 199.505 325.72H200.653C200.746 325.72 200.826 325.753 200.891 325.818C200.956 325.883 200.989 325.963 200.989 326.056V326.63C201.54 325.93 202.319 325.58 203.327 325.58C204.186 325.58 204.867 325.865 205.371 326.434C205.875 326.994 206.127 327.759 206.127 328.73V332.664C206.127 332.757 206.094 332.837 206.029 332.902C205.973 332.967 205.894 333 205.791 333H204.559C204.466 333 204.386 332.967 204.321 332.902C204.256 332.837 204.223 332.757 204.223 332.664V328.814C204.223 328.263 204.088 327.839 203.817 327.54C203.556 327.232 203.173 327.078 202.669 327.078C202.174 327.078 201.782 327.232 201.493 327.54C201.213 327.848 201.073 328.273 201.073 328.814V332.664C201.073 332.757 201.04 332.837 200.975 332.902C200.919 332.967 200.84 333 200.737 333H199.505ZM210.913 333.14C210.213 333.14 209.625 333.037 209.149 332.832C208.673 332.617 208.319 332.37 208.085 332.09C207.861 331.801 207.749 331.553 207.749 331.348C207.749 331.255 207.782 331.18 207.847 331.124C207.913 331.068 207.987 331.04 208.071 331.04H209.177C209.261 331.04 209.331 331.073 209.387 331.138C209.425 331.166 209.523 331.25 209.681 331.39C209.84 331.539 210.027 331.656 210.241 331.74C210.456 331.824 210.694 331.866 210.955 331.866C211.329 331.866 211.637 331.791 211.879 331.642C212.122 331.493 212.243 331.287 212.243 331.026C212.243 330.83 212.187 330.671 212.075 330.55C211.973 330.429 211.781 330.321 211.501 330.228C211.221 330.125 210.806 330.018 210.255 329.906C209.462 329.738 208.874 329.481 208.491 329.136C208.118 328.791 207.931 328.333 207.931 327.764C207.931 327.391 208.043 327.041 208.267 326.714C208.491 326.378 208.823 326.107 209.261 325.902C209.709 325.687 210.241 325.58 210.857 325.58C211.483 325.58 212.024 325.683 212.481 325.888C212.939 326.084 213.284 326.322 213.517 326.602C213.76 326.873 213.881 327.115 213.881 327.33C213.881 327.414 213.849 327.489 213.783 327.554C213.727 327.61 213.657 327.638 213.573 327.638H212.537C212.463 327.638 212.383 327.605 212.299 327.54C212.234 327.493 212.131 327.405 211.991 327.274C211.851 327.143 211.688 327.041 211.501 326.966C211.315 326.891 211.095 326.854 210.843 326.854C210.498 326.854 210.227 326.929 210.031 327.078C209.845 327.227 209.751 327.423 209.751 327.666C209.751 327.843 209.798 327.988 209.891 328.1C209.985 328.212 210.167 328.319 210.437 328.422C210.708 328.525 211.114 328.627 211.655 328.73C212.551 328.907 213.191 329.183 213.573 329.556C213.965 329.929 214.161 330.387 214.161 330.928C214.161 331.581 213.877 332.113 213.307 332.524C212.738 332.935 211.94 333.14 210.913 333.14ZM216.137 324.516C216.043 324.516 215.964 324.483 215.899 324.418C215.833 324.353 215.801 324.273 215.801 324.18V323.172C215.801 323.079 215.833 322.999 215.899 322.934C215.964 322.869 216.043 322.836 216.137 322.836H217.411C217.504 322.836 217.583 322.869 217.649 322.934C217.723 322.999 217.761 323.079 217.761 323.172V324.18C217.761 324.273 217.728 324.353 217.663 324.418C217.597 324.483 217.513 324.516 217.411 324.516H216.137ZM216.193 333C216.099 333 216.02 332.967 215.955 332.902C215.889 332.837 215.857 332.757 215.857 332.664V326.056C215.857 325.963 215.889 325.883 215.955 325.818C216.02 325.753 216.099 325.72 216.193 325.72H217.355C217.457 325.72 217.537 325.753 217.593 325.818C217.658 325.874 217.691 325.953 217.691 326.056V332.664C217.691 332.757 217.658 332.837 217.593 332.902C217.537 332.967 217.457 333 217.355 333H216.193ZM223.018 333.14C221.926 333.14 221.081 332.86 220.484 332.3C219.887 331.731 219.565 330.956 219.518 329.976L219.504 329.36L219.518 328.744C219.565 327.773 219.891 327.003 220.498 326.434C221.105 325.865 221.945 325.58 223.018 325.58C224.091 325.58 224.931 325.865 225.538 326.434C226.145 327.003 226.471 327.773 226.518 328.744C226.527 328.856 226.532 329.061 226.532 329.36C226.532 329.659 226.527 329.864 226.518 329.976C226.471 330.956 226.149 331.731 225.552 332.3C224.955 332.86 224.11 333.14 223.018 333.14ZM223.018 331.754C223.513 331.754 223.895 331.6 224.166 331.292C224.437 330.975 224.586 330.513 224.614 329.906C224.623 329.813 224.628 329.631 224.628 329.36C224.628 329.089 224.623 328.907 224.614 328.814C224.586 328.207 224.437 327.75 224.166 327.442C223.895 327.125 223.513 326.966 223.018 326.966C222.523 326.966 222.141 327.125 221.87 327.442C221.599 327.75 221.45 328.207 221.422 328.814L221.408 329.36L221.422 329.906C221.45 330.513 221.599 330.975 221.87 331.292C222.141 331.6 222.523 331.754 223.018 331.754ZM228.669 333C228.576 333 228.497 332.967 228.431 332.902C228.366 332.837 228.333 332.757 228.333 332.664V326.056C228.333 325.963 228.366 325.883 228.431 325.818C228.497 325.753 228.576 325.72 228.669 325.72H229.817C229.911 325.72 229.99 325.753 230.055 325.818C230.121 325.883 230.153 325.963 230.153 326.056V326.63C230.704 325.93 231.483 325.58 232.491 325.58C233.35 325.58 234.031 325.865 234.535 326.434C235.039 326.994 235.291 327.759 235.291 328.73V332.664C235.291 332.757 235.259 332.837 235.193 332.902C235.137 332.967 235.058 333 234.955 333H233.723C233.63 333 233.551 332.967 233.485 332.902C233.42 332.837 233.387 332.757 233.387 332.664V328.814C233.387 328.263 233.252 327.839 232.981 327.54C232.72 327.232 232.337 327.078 231.833 327.078C231.339 327.078 230.947 327.232 230.657 327.54C230.377 327.848 230.237 328.273 230.237 328.814V332.664C230.237 332.757 230.205 332.837 230.139 332.902C230.083 332.967 230.004 333 229.901 333H228.669Z" fill="white"/>
</g>
<path d="M154.768 54.0094C154.768 54.0094 184.779 52.6852 200.684 82.2587C192.282 82.2587 152.216 82.2587 152.216 82.2587C152.216 82.2587 143.063 81.9633 135.26 92.8532C133.009 97.4141 130.609 102.123 133.31 111.391C129.409 104.919 112.602 76.2266 112.602 76.2266C112.602 76.2266 124.457 55.186 154.768 54.0094Z" fill="#E16B5A"/>
<path d="M199.122 129.095C199.122 129.095 185.284 155.238 151.21 153.952C155.414 146.819 175.45 112.799 175.45 112.799C175.45 112.799 180.287 105.173 174.575 93.1031C171.672 88.9109 162.875 84.5172 153.338 82.175C161.008 82.1 200.589 82.1797 200.589 82.1797C200.589 82.1797 213.241 102.77 199.122 129.095Z" fill="#FFD464"/>
<path d="M110.628 129.294C110.628 129.294 94.4579 104.469 112.632 76.1781C116.832 83.3148 136.857 117.341 136.857 117.341C136.857 117.341 141.171 125.261 154.689 126.445C159.842 126.077 165.203 125.763 172.04 118.837C168.27 125.387 151.327 153.999 151.327 153.999C151.327 153.999 126.817 154.448 110.628 129.294Z" fill="#74B340"/>
<ellipse cx="154.646" cy="104.406" rx="23.0643" ry="22.6562" fill="white"/>
<ellipse cx="154.638" cy="104.406" rx="18.2924" ry="17.9688" fill="#2995CC"/>
<path d="M154.643 86.4414C154.279 86.4414 153.918 86.4547 153.561 86.475C163.158 87.0258 170.77 94.8437 170.77 104.409C170.77 113.977 163.158 121.795 153.561 122.346C153.919 122.366 154.28 122.38 154.643 122.38C164.744 122.38 172.935 114.334 172.935 104.409C172.935 94.4867 164.744 86.4414 154.643 86.4414Z" fill="#268CBF"/>
</g>
<defs>
<filter id="filter0_d_0_843" x="0" y="0" width="310" height="401" filterUnits="userSpaceOnUse" color-interpolation-filters="sRGB">
<feFlood flood-opacity="0" result="BackgroundImageFix"/>
<feColorMatrix in="SourceAlpha" type="matrix" values="0 0 0 0 0 0 0 0 0 0 0 0 0 0 0 0 0 0 127 0" result="hardAlpha"/>
<feMorphology radius="5" operator="erode" in="SourceAlpha" result="effect1_dropShadow_0_843"/>
<feOffset dy="10"/>
<feGaussianBlur stdDeviation="10"/>
<feColorMatrix type="matrix" values="0 0 0 0 0.285333 0 0 0 0 0.363695 0 0 0 0 0.811481 0 0 0 0.20012 0"/>
<feBlend mode="normal" in2="BackgroundImageFix" result="effect1_dropShadow_0_843"/>
<feBlend mode="normal" in="SourceGraphic" in2="effect1_dropShadow_0_843" result="shape"/>
</filter>
<filter id="filter1_d_0_843" x="35" y="304" width="240" height="60" filterUnits="userSpaceOnUse" color-interpolation-filters="sRGB">
<feFlood flood-opacity="0" result="BackgroundImageFix"/>
<feColorMatrix in="SourceAlpha" type="matrix" values="0 0 0 0 0 0 0 0 0 0 0 0 0 0 0 0 0 0 127 0" result="hardAlpha"/>
<feMorphology radius="4" operator="erode" in="SourceAlpha" result="effect1_dropShadow_0_843"/>
<feOffset dy="8"/>
<feGaussianBlur stdDeviation="4"/>
<feColorMatrix type="matrix" values="0 0 0 0 0.285333 0 0 0 0 0.363695 0 0 0 0 0.811481 0 0 0 0.20012 0"/>
<feBlend mode="normal" in2="BackgroundImageFix" result="effect1_dropShadow_0_843"/>
<feBlend mode="normal" in="SourceGraphic" in2="effect1_dropShadow_0_843" result="shape"/>
</filter>
<clipPath id="clip0_0_843">
<rect width="232" height="48" fill="white" transform="translate(39 304)"/>
</clipPath>
</defs>
</svg>
