<svg width="310" height="401" viewBox="0 0 310 401" fill="none" xmlns="http://www.w3.org/2000/svg">
<g filter="url(#filter0_d_0_496)">
<rect x="15" y="5" width="280" height="371" rx="15" fill="white"/>
</g>
<mask id="mask0_0_496" style="mask-type:alpha" maskUnits="userSpaceOnUse" x="15" y="5" width="280" height="371">
<rect x="15" y="5" width="280" height="371" rx="15" fill="white"/>
</mask>
<g mask="url(#mask0_0_496)">
<path d="M208 104C208 132.862 184.487 154 155.5 154C126.513 154 103 130.588 103 101.726C103 92.6827 105.33 84.1359 109.392 76.7261C109.438 76.5889 109.53 76.4516 109.622 76.3602C107.338 72.9558 106.334 64.3176 112.128 58.5413C112.128 60.9524 113.592 65.0886 115.233 68.1793C116.558 70.6362 117.969 72.407 118.973 72.1783C121.257 71.6359 129.243 71.6359 130.385 72.1783C132.262 69.7737 136.83 63.0891 144.088 63.0891C140.026 67.1338 128.384 81.2739 148.655 81.2739C150.939 81.2739 153.223 81.2739 153.223 81.2739L139.52 90.363C139.52 90.363 141.076 93.3623 139.52 94.9109C137.788 93.1793 130.392 96.7731 130.392 101.726C130.392 106.679 135.688 113.089 146.372 113.089C157.055 113.089 154.358 108.541 160.068 108.541C165.777 108.541 166.912 113.089 166.912 113.089C159.057 113.089 153.354 122.178 144.088 122.178C148.655 125.543 151.667 126.726 157.784 126.726C172.897 126.726 185.176 114.501 185.176 99.4522C185.176 93.3623 183.167 87.769 179.788 83.2277C185.904 87.7755 190.012 94.7737 190.747 102.726C191.567 99.5436 192.027 96.1328 192.027 92.637C192.027 78.9543 186.186 60.861 176.047 54C190.655 58.3583 208 72.4658 208 99.4522C208 99.9553 208 103.497 208 104Z" fill="#FF9800"/>
<path d="M85.7 205C85.5933 205 85.4933 204.96 85.4 204.88C85.32 204.8 85.28 204.7 85.28 204.58L85.32 204.4L90.14 191.5C90.2333 191.167 90.4667 191 90.84 191H93.02C93.3667 191 93.6 191.167 93.72 191.5L98.54 204.4C98.5533 204.44 98.56 204.5 98.56 204.58C98.56 204.7 98.52 204.8 98.44 204.88C98.36 204.96 98.2667 205 98.16 205H96.42C96.2467 205 96.1133 204.96 96.02 204.88C95.9267 204.8 95.8667 204.713 95.84 204.62L94.9 202.18H88.96L88.02 204.62C87.9133 204.873 87.72 205 87.44 205H85.7ZM94.2 199.88L91.92 193.7L89.66 199.88H94.2ZM104.18 205.2C102.833 205.2 101.8 204.767 101.08 203.9C100.36 203.033 99.9733 201.88 99.92 200.44L99.9 199.78L99.92 199.14C99.96 197.74 100.34 196.6 101.06 195.72C101.793 194.84 102.833 194.4 104.18 194.4C105.473 194.4 106.5 194.84 107.26 195.72V191.28C107.26 191.133 107.307 191.02 107.4 190.94C107.493 190.847 107.607 190.8 107.74 190.8H109.44C109.587 190.8 109.7 190.847 109.78 190.94C109.873 191.02 109.92 191.133 109.92 191.28V204.52C109.92 204.653 109.873 204.767 109.78 204.86C109.7 204.953 109.587 205 109.44 205H107.86C107.727 205 107.613 204.953 107.52 204.86C107.427 204.767 107.38 204.653 107.38 204.52V203.78C106.62 204.727 105.553 205.2 104.18 205.2ZM104.92 203.06C105.693 203.06 106.267 202.813 106.64 202.32C107.013 201.827 107.22 201.22 107.26 200.5C107.273 200.34 107.28 200.08 107.28 199.72C107.28 199.373 107.273 199.12 107.26 198.96C107.233 198.293 107.02 197.727 106.62 197.26C106.233 196.78 105.667 196.54 104.92 196.54C103.48 196.54 102.713 197.427 102.62 199.2L102.6 199.8L102.62 200.4C102.713 202.173 103.48 203.06 104.92 203.06ZM116.696 205.2C115.349 205.2 114.316 204.767 113.596 203.9C112.876 203.033 112.489 201.88 112.436 200.44L112.416 199.78L112.436 199.14C112.476 197.74 112.856 196.6 113.576 195.72C114.309 194.84 115.349 194.4 116.696 194.4C117.989 194.4 119.016 194.84 119.776 195.72V191.28C119.776 191.133 119.822 191.02 119.916 190.94C120.009 190.847 120.122 190.8 120.256 190.8H121.956C122.102 190.8 122.216 190.847 122.296 190.94C122.389 191.02 122.436 191.133 122.436 191.28V204.52C122.436 204.653 122.389 204.767 122.296 204.86C122.216 204.953 122.102 205 121.956 205H120.376C120.242 205 120.129 204.953 120.036 204.86C119.942 204.767 119.896 204.653 119.896 204.52V203.78C119.136 204.727 118.069 205.2 116.696 205.2ZM117.436 203.06C118.209 203.06 118.782 202.813 119.156 202.32C119.529 201.827 119.736 201.22 119.776 200.5C119.789 200.34 119.796 200.08 119.796 199.72C119.796 199.373 119.789 199.12 119.776 198.96C119.749 198.293 119.536 197.727 119.136 197.26C118.749 196.78 118.182 196.54 117.436 196.54C115.996 196.54 115.229 197.427 115.136 199.2L115.116 199.8L115.136 200.4C115.229 202.173 115.996 203.06 117.436 203.06ZM134.481 205C133.268 205 132.354 204.687 131.741 204.06C131.141 203.42 130.841 202.487 130.841 201.26V196.72H129.261C129.128 196.72 129.014 196.673 128.921 196.58C128.828 196.473 128.781 196.353 128.781 196.22V195.08C128.781 194.947 128.828 194.833 128.921 194.74C129.014 194.647 129.128 194.6 129.261 194.6H130.841V191.28C130.841 191.133 130.888 191.02 130.981 190.94C131.074 190.847 131.188 190.8 131.321 190.8H132.941C133.088 190.8 133.201 190.847 133.281 190.94C133.374 191.02 133.421 191.133 133.421 191.28V194.6H135.921C136.068 194.6 136.181 194.647 136.261 194.74C136.354 194.82 136.401 194.933 136.401 195.08V196.22C136.401 196.367 136.354 196.487 136.261 196.58C136.168 196.673 136.054 196.72 135.921 196.72H133.421V201.06C133.421 201.633 133.521 202.067 133.721 202.36C133.921 202.653 134.254 202.8 134.721 202.8H136.101C136.234 202.8 136.348 202.847 136.441 202.94C136.534 203.033 136.581 203.147 136.581 203.28V204.52C136.581 204.653 136.534 204.767 136.441 204.86C136.361 204.953 136.248 205 136.101 205H134.481ZM143.205 205.2C141.645 205.2 140.438 204.8 139.585 204C138.732 203.187 138.272 202.08 138.205 200.68L138.185 199.8L138.205 198.92C138.272 197.533 138.738 196.433 139.605 195.62C140.472 194.807 141.672 194.4 143.205 194.4C144.738 194.4 145.938 194.807 146.805 195.62C147.672 196.433 148.138 197.533 148.205 198.92C148.218 199.08 148.225 199.373 148.225 199.8C148.225 200.227 148.218 200.52 148.205 200.68C148.138 202.08 147.678 203.187 146.825 204C145.972 204.8 144.765 205.2 143.205 205.2ZM143.205 203.22C143.912 203.22 144.458 203 144.845 202.56C145.232 202.107 145.445 201.447 145.485 200.58C145.498 200.447 145.505 200.187 145.505 199.8C145.505 199.413 145.498 199.153 145.485 199.02C145.445 198.153 145.232 197.5 144.845 197.06C144.458 196.607 143.912 196.38 143.205 196.38C142.498 196.38 141.952 196.607 141.565 197.06C141.178 197.5 140.965 198.153 140.925 199.02L140.905 199.8L140.925 200.58C140.965 201.447 141.178 202.107 141.565 202.56C141.952 203 142.498 203.22 143.205 203.22ZM156.231 205C156.098 205 155.985 204.953 155.891 204.86C155.798 204.767 155.751 204.653 155.751 204.52V191.5C155.751 191.353 155.791 191.233 155.871 191.14C155.965 191.047 156.085 191 156.231 191H164.911C165.058 191 165.178 191.047 165.271 191.14C165.365 191.233 165.411 191.353 165.411 191.5V192.9C165.411 193.047 165.365 193.167 165.271 193.26C165.178 193.34 165.058 193.38 164.911 193.38H158.491V197.18H164.511C164.658 197.18 164.778 197.227 164.871 197.32C164.965 197.413 165.011 197.533 165.011 197.68V199.08C165.011 199.227 164.965 199.347 164.871 199.44C164.778 199.52 164.658 199.56 164.511 199.56H158.491V204.52C158.491 204.667 158.445 204.787 158.351 204.88C158.258 204.96 158.138 205 157.991 205H156.231ZM168.173 192.88C168.04 192.88 167.926 192.833 167.833 192.74C167.74 192.647 167.693 192.533 167.693 192.4V190.96C167.693 190.827 167.74 190.713 167.833 190.62C167.926 190.527 168.04 190.48 168.173 190.48H169.993C170.126 190.48 170.24 190.527 170.333 190.62C170.44 190.713 170.493 190.827 170.493 190.96V192.4C170.493 192.533 170.446 192.647 170.353 192.74C170.26 192.833 170.14 192.88 169.993 192.88H168.173ZM168.253 205C168.12 205 168.006 204.953 167.913 204.86C167.82 204.767 167.773 204.653 167.773 204.52V195.08C167.773 194.947 167.82 194.833 167.913 194.74C168.006 194.647 168.12 194.6 168.253 194.6H169.913C170.06 194.6 170.173 194.647 170.253 194.74C170.346 194.82 170.393 194.933 170.393 195.08V204.52C170.393 204.653 170.346 204.767 170.253 204.86C170.173 204.953 170.06 205 169.913 205H168.253ZM173.777 205C173.643 205 173.53 204.953 173.437 204.86C173.343 204.767 173.297 204.653 173.297 204.52V195.1C173.297 194.967 173.343 194.853 173.437 194.76C173.53 194.653 173.643 194.6 173.777 194.6H175.397C175.543 194.6 175.663 194.647 175.757 194.74C175.85 194.833 175.897 194.953 175.897 195.1V195.92C176.217 195.493 176.617 195.167 177.097 194.94C177.59 194.713 178.15 194.6 178.777 194.6H179.597C179.743 194.6 179.857 194.647 179.937 194.74C180.03 194.82 180.077 194.933 180.077 195.08V196.52C180.077 196.653 180.03 196.767 179.937 196.86C179.857 196.953 179.743 197 179.597 197H178.037C177.41 197 176.917 197.18 176.557 197.54C176.197 197.9 176.017 198.393 176.017 199.02V204.52C176.017 204.653 175.97 204.767 175.877 204.86C175.783 204.953 175.663 205 175.517 205H173.777ZM186.23 205.2C184.75 205.2 183.57 204.773 182.69 203.92C181.823 203.053 181.363 201.84 181.31 200.28L181.29 199.78L181.31 199.28C181.376 197.76 181.843 196.567 182.71 195.7C183.59 194.833 184.763 194.4 186.23 194.4C187.803 194.4 189.016 194.88 189.87 195.84C190.736 196.8 191.17 198.08 191.17 199.68V200.1C191.17 200.233 191.123 200.347 191.03 200.44C190.936 200.533 190.816 200.58 190.67 200.58H184.03V200.74C184.056 201.473 184.256 202.093 184.63 202.6C185.016 203.093 185.543 203.34 186.21 203.34C186.996 203.34 187.63 203.033 188.11 202.42C188.23 202.273 188.323 202.18 188.39 202.14C188.47 202.1 188.583 202.08 188.73 202.08H190.45C190.57 202.08 190.67 202.12 190.75 202.2C190.843 202.267 190.89 202.353 190.89 202.46C190.89 202.78 190.696 203.16 190.31 203.6C189.936 204.027 189.396 204.4 188.69 204.72C187.983 205.04 187.163 205.2 186.23 205.2ZM188.45 198.9V198.84C188.45 198.053 188.25 197.42 187.85 196.94C187.463 196.46 186.923 196.22 186.23 196.22C185.536 196.22 184.996 196.46 184.61 196.94C184.223 197.42 184.03 198.053 184.03 198.84V198.9H188.45ZM195.045 205C194.912 205 194.798 204.953 194.705 204.86C194.612 204.767 194.565 204.653 194.565 204.52V196.72H192.945C192.812 196.72 192.698 196.673 192.605 196.58C192.512 196.473 192.465 196.353 192.465 196.22V195.08C192.465 194.947 192.512 194.833 192.605 194.74C192.698 194.647 192.812 194.6 192.945 194.6H194.565V193.78C194.565 191.393 195.872 190.2 198.485 190.2H199.845C199.992 190.2 200.105 190.247 200.185 190.34C200.278 190.42 200.325 190.533 200.325 190.68V191.82C200.325 191.967 200.278 192.087 200.185 192.18C200.092 192.273 199.978 192.32 199.845 192.32H198.565C198.045 192.32 197.678 192.447 197.465 192.7C197.265 192.953 197.165 193.347 197.165 193.88V194.6H199.645C199.792 194.6 199.905 194.647 199.985 194.74C200.078 194.82 200.125 194.933 200.125 195.08V196.22C200.125 196.367 200.078 196.487 199.985 196.58C199.892 196.673 199.778 196.72 199.645 196.72H197.165V204.52C197.165 204.653 197.118 204.767 197.025 204.86C196.932 204.953 196.818 205 196.685 205H195.045ZM206.42 205.2C204.86 205.2 203.653 204.8 202.8 204C201.947 203.187 201.487 202.08 201.42 200.68L201.4 199.8L201.42 198.92C201.487 197.533 201.953 196.433 202.82 195.62C203.687 194.807 204.887 194.4 206.42 194.4C207.953 194.4 209.153 194.807 210.02 195.62C210.887 196.433 211.353 197.533 211.42 198.92C211.433 199.08 211.44 199.373 211.44 199.8C211.44 200.227 211.433 200.52 211.42 200.68C211.353 202.08 210.893 203.187 210.04 204C209.187 204.8 207.98 205.2 206.42 205.2ZM206.42 203.22C207.127 203.22 207.673 203 208.06 202.56C208.447 202.107 208.66 201.447 208.7 200.58C208.713 200.447 208.72 200.187 208.72 199.8C208.72 199.413 208.713 199.153 208.7 199.02C208.66 198.153 208.447 197.5 208.06 197.06C207.673 196.607 207.127 196.38 206.42 196.38C205.713 196.38 205.167 196.607 204.78 197.06C204.393 197.5 204.18 198.153 204.14 199.02L204.12 199.8L204.14 200.58C204.18 201.447 204.393 202.107 204.78 202.56C205.167 203 205.713 203.22 206.42 203.22ZM213.466 205C213.346 205 213.239 204.96 213.146 204.88C213.066 204.787 213.026 204.68 213.026 204.56C213.026 204.44 213.073 204.327 213.166 204.22L216.566 199.66L213.406 195.38C213.326 195.273 213.286 195.16 213.286 195.04C213.286 194.92 213.326 194.82 213.406 194.74C213.499 194.647 213.606 194.6 213.726 194.6H215.466C215.599 194.6 215.699 194.633 215.766 194.7C215.846 194.753 215.926 194.833 216.006 194.94L218.266 197.94L220.526 194.94C220.539 194.927 220.593 194.867 220.686 194.76C220.766 194.653 220.893 194.6 221.066 194.6H222.726C222.846 194.6 222.946 194.647 223.026 194.74C223.119 194.82 223.166 194.913 223.166 195.02C223.166 195.153 223.126 195.273 223.046 195.38L219.846 199.7L223.266 204.22C223.359 204.327 223.406 204.44 223.406 204.56C223.406 204.68 223.359 204.787 223.266 204.88C223.186 204.96 223.086 205 222.966 205H221.146C220.933 205 220.753 204.893 220.606 204.68L218.206 201.5L215.766 204.68C215.619 204.893 215.439 205 215.226 205H213.466Z" fill="#242A45"/>
<path opacity="0.5" d="M86.733 235C86.633 235 86.548 234.97 86.478 234.91C86.418 234.84 86.388 234.755 86.388 234.655V224.86C86.388 224.75 86.418 224.665 86.478 224.605C86.548 224.535 86.633 224.5 86.733 224.5H87.483C87.643 224.5 87.773 224.58 87.873 224.74L91.038 230.8L94.233 224.74C94.253 224.68 94.293 224.625 94.353 224.575C94.423 224.525 94.508 224.5 94.608 224.5H95.343C95.453 224.5 95.538 224.535 95.598 224.605C95.668 224.665 95.703 224.75 95.703 224.86V234.655C95.703 234.755 95.668 234.84 95.598 234.91C95.528 234.97 95.443 235 95.343 235H94.608C94.508 235 94.423 234.97 94.353 234.91C94.293 234.84 94.263 234.755 94.263 234.655V227.275L91.758 232.165C91.658 232.375 91.498 232.48 91.278 232.48H90.813C90.593 232.48 90.433 232.375 90.333 232.165L87.813 227.275V234.655C87.813 234.755 87.778 234.84 87.708 234.91C87.648 234.97 87.568 235 87.468 235H86.733ZM98.3272 225.745C98.2272 225.745 98.1422 225.715 98.0722 225.655C98.0122 225.585 97.9822 225.5 97.9822 225.4V224.59C97.9822 224.49 98.0122 224.405 98.0722 224.335C98.1422 224.265 98.2272 224.23 98.3272 224.23H99.2722C99.3722 224.23 99.4572 224.265 99.5272 224.335C99.5972 224.405 99.6322 224.49 99.6322 224.59V225.4C99.6322 225.5 99.5972 225.585 99.5272 225.655C99.4572 225.715 99.3722 225.745 99.2722 225.745H98.3272ZM98.4472 235C98.3472 235 98.2622 234.97 98.1922 234.91C98.1322 234.84 98.1022 234.755 98.1022 234.655V227.545C98.1022 227.445 98.1322 227.365 98.1922 227.305C98.2622 227.235 98.3472 227.2 98.4472 227.2H99.1672C99.2672 227.2 99.3472 227.235 99.4072 227.305C99.4772 227.365 99.5122 227.445 99.5122 227.545V234.655C99.5122 234.755 99.4772 234.84 99.4072 234.91C99.3472 234.97 99.2672 235 99.1672 235H98.4472ZM102.08 235C101.98 235 101.895 234.97 101.825 234.91C101.765 234.84 101.735 234.755 101.735 234.655V227.545C101.735 227.445 101.765 227.365 101.825 227.305C101.895 227.235 101.98 227.2 102.08 227.2H102.785C102.885 227.2 102.965 227.235 103.025 227.305C103.095 227.365 103.13 227.445 103.13 227.545V228.205C103.42 227.835 103.76 227.55 104.15 227.35C104.55 227.15 105.045 227.05 105.635 227.05C106.595 227.05 107.34 227.36 107.87 227.98C108.41 228.59 108.68 229.405 108.68 230.425V234.655C108.68 234.755 108.645 234.84 108.575 234.91C108.515 234.97 108.435 235 108.335 235H107.585C107.485 235 107.4 234.97 107.33 234.91C107.27 234.84 107.24 234.755 107.24 234.655V230.5C107.24 229.79 107.065 229.24 106.715 228.85C106.375 228.46 105.88 228.265 105.23 228.265C104.6 228.265 104.1 228.465 103.73 228.865C103.36 229.255 103.175 229.8 103.175 230.5V234.655C103.175 234.755 103.14 234.84 103.07 234.91C103.01 234.97 102.93 235 102.83 235H102.08ZM111.057 225.745C110.957 225.745 110.872 225.715 110.802 225.655C110.742 225.585 110.712 225.5 110.712 225.4V224.59C110.712 224.49 110.742 224.405 110.802 224.335C110.872 224.265 110.957 224.23 111.057 224.23H112.002C112.102 224.23 112.187 224.265 112.257 224.335C112.327 224.405 112.362 224.49 112.362 224.59V225.4C112.362 225.5 112.327 225.585 112.257 225.655C112.187 225.715 112.102 225.745 112.002 225.745H111.057ZM111.177 235C111.077 235 110.992 234.97 110.922 234.91C110.862 234.84 110.832 234.755 110.832 234.655V227.545C110.832 227.445 110.862 227.365 110.922 227.305C110.992 227.235 111.077 227.2 111.177 227.2H111.897C111.997 227.2 112.077 227.235 112.137 227.305C112.207 227.365 112.242 227.445 112.242 227.545V234.655C112.242 234.755 112.207 234.84 112.137 234.91C112.077 234.97 111.997 235 111.897 235H111.177ZM114.809 235C114.709 235 114.624 234.97 114.554 234.91C114.494 234.84 114.464 234.755 114.464 234.655V227.545C114.464 227.445 114.494 227.365 114.554 227.305C114.624 227.235 114.709 227.2 114.809 227.2H115.484C115.584 227.2 115.664 227.235 115.724 227.305C115.794 227.365 115.829 227.445 115.829 227.545V228.07C116.349 227.39 117.074 227.05 118.004 227.05C119.114 227.05 119.899 227.51 120.359 228.43C120.599 228.01 120.939 227.675 121.379 227.425C121.819 227.175 122.314 227.05 122.864 227.05C123.684 227.05 124.354 227.33 124.874 227.89C125.394 228.45 125.654 229.26 125.654 230.32V234.655C125.654 234.755 125.619 234.84 125.549 234.91C125.489 234.97 125.409 235 125.309 235H124.604C124.504 235 124.419 234.97 124.349 234.91C124.289 234.84 124.259 234.755 124.259 234.655V230.455C124.259 229.675 124.094 229.115 123.764 228.775C123.444 228.435 123.019 228.265 122.489 228.265C122.019 228.265 121.614 228.44 121.274 228.79C120.934 229.13 120.764 229.685 120.764 230.455V234.655C120.764 234.755 120.729 234.84 120.659 234.91C120.599 234.97 120.519 235 120.419 235H119.714C119.614 235 119.529 234.97 119.459 234.91C119.399 234.84 119.369 234.755 119.369 234.655V230.455C119.369 229.675 119.199 229.115 118.859 228.775C118.529 228.435 118.109 228.265 117.599 228.265C117.129 228.265 116.724 228.44 116.384 228.79C116.044 229.13 115.874 229.68 115.874 230.44V234.655C115.874 234.755 115.839 234.84 115.769 234.91C115.709 234.97 115.629 235 115.529 235H114.809ZM130.705 235.15C129.755 235.15 129.02 234.845 128.5 234.235C127.98 233.615 127.72 232.795 127.72 231.775V227.545C127.72 227.445 127.75 227.365 127.81 227.305C127.88 227.235 127.965 227.2 128.065 227.2H128.815C128.915 227.2 128.995 227.235 129.055 227.305C129.125 227.365 129.16 227.445 129.16 227.545V231.7C129.16 233.19 129.81 233.935 131.11 233.935C131.74 233.935 132.24 233.74 132.61 233.35C132.98 232.95 133.165 232.4 133.165 231.7V227.545C133.165 227.445 133.195 227.365 133.255 227.305C133.325 227.235 133.41 227.2 133.51 227.2H134.26C134.36 227.2 134.44 227.235 134.5 227.305C134.56 227.365 134.59 227.445 134.59 227.545V234.655C134.59 234.755 134.56 234.84 134.5 234.91C134.44 234.97 134.36 235 134.26 235H133.555C133.455 235 133.37 234.97 133.3 234.91C133.24 234.84 133.21 234.755 133.21 234.655V233.995C132.93 234.375 132.59 234.665 132.19 234.865C131.79 235.055 131.295 235.15 130.705 235.15ZM137.163 235C137.063 235 136.978 234.97 136.908 234.91C136.848 234.84 136.818 234.755 136.818 234.655V227.545C136.818 227.445 136.848 227.365 136.908 227.305C136.978 227.235 137.063 227.2 137.163 227.2H137.838C137.938 227.2 138.018 227.235 138.078 227.305C138.148 227.365 138.183 227.445 138.183 227.545V228.07C138.703 227.39 139.428 227.05 140.358 227.05C141.468 227.05 142.253 227.51 142.713 228.43C142.953 228.01 143.293 227.675 143.733 227.425C144.173 227.175 144.668 227.05 145.218 227.05C146.038 227.05 146.708 227.33 147.228 227.89C147.748 228.45 148.008 229.26 148.008 230.32V234.655C148.008 234.755 147.973 234.84 147.903 234.91C147.843 234.97 147.763 235 147.663 235H146.958C146.858 235 146.773 234.97 146.703 234.91C146.643 234.84 146.613 234.755 146.613 234.655V230.455C146.613 229.675 146.448 229.115 146.118 228.775C145.798 228.435 145.373 228.265 144.843 228.265C144.373 228.265 143.968 228.44 143.628 228.79C143.288 229.13 143.118 229.685 143.118 230.455V234.655C143.118 234.755 143.083 234.84 143.013 234.91C142.953 234.97 142.873 235 142.773 235H142.068C141.968 235 141.883 234.97 141.813 234.91C141.753 234.84 141.723 234.755 141.723 234.655V230.455C141.723 229.675 141.553 229.115 141.213 228.775C140.883 228.435 140.463 228.265 139.953 228.265C139.483 228.265 139.078 228.44 138.738 228.79C138.398 229.13 138.228 229.68 138.228 230.44V234.655C138.228 234.755 138.193 234.84 138.123 234.91C138.063 234.97 137.983 235 137.883 235H137.163ZM156.144 235C155.884 235 155.699 234.875 155.589 234.625L152.814 227.665L152.784 227.515C152.784 227.425 152.814 227.35 152.874 227.29C152.934 227.23 153.009 227.2 153.099 227.2H153.819C153.989 227.2 154.114 227.285 154.194 227.455L156.474 233.365L158.754 227.455C158.844 227.285 158.964 227.2 159.114 227.2H159.849C159.929 227.2 159.999 227.23 160.059 227.29C160.129 227.35 160.164 227.425 160.164 227.515L160.134 227.665L157.344 234.625C157.234 234.875 157.049 235 156.789 235H156.144ZM164.577 235.15C163.547 235.15 162.722 234.835 162.102 234.205C161.492 233.565 161.157 232.695 161.097 231.595L161.082 231.085L161.097 230.59C161.167 229.51 161.507 228.65 162.117 228.01C162.737 227.37 163.552 227.05 164.562 227.05C165.672 227.05 166.532 227.405 167.142 228.115C167.752 228.815 168.057 229.765 168.057 230.965V231.22C168.057 231.32 168.022 231.405 167.952 231.475C167.892 231.535 167.812 231.565 167.712 231.565H162.522V231.7C162.552 232.35 162.747 232.905 163.107 233.365C163.477 233.815 163.962 234.04 164.562 234.04C165.022 234.04 165.397 233.95 165.687 233.77C165.987 233.58 166.207 233.385 166.347 233.185C166.437 233.065 166.502 232.995 166.542 232.975C166.592 232.945 166.677 232.93 166.797 232.93H167.532C167.622 232.93 167.697 232.955 167.757 233.005C167.817 233.055 167.847 233.125 167.847 233.215C167.847 233.435 167.707 233.7 167.427 234.01C167.157 234.32 166.772 234.59 166.272 234.82C165.782 235.04 165.217 235.15 164.577 235.15ZM166.632 230.53V230.485C166.632 229.795 166.442 229.235 166.062 228.805C165.692 228.365 165.192 228.145 164.562 228.145C163.932 228.145 163.432 228.365 163.062 228.805C162.702 229.235 162.522 229.795 162.522 230.485V230.53H166.632ZM170.195 235C170.095 235 170.01 234.97 169.94 234.91C169.88 234.84 169.85 234.755 169.85 234.655V227.56C169.85 227.46 169.88 227.375 169.94 227.305C170.01 227.235 170.095 227.2 170.195 227.2H170.885C170.985 227.2 171.07 227.235 171.14 227.305C171.21 227.375 171.245 227.46 171.245 227.56V228.22C171.655 227.54 172.355 227.2 173.345 227.2H173.93C174.03 227.2 174.11 227.235 174.17 227.305C174.24 227.365 174.275 227.445 174.275 227.545V228.16C174.275 228.26 174.24 228.34 174.17 228.4C174.11 228.46 174.03 228.49 173.93 228.49H173.03C172.49 228.49 172.065 228.65 171.755 228.97C171.445 229.28 171.29 229.705 171.29 230.245V234.655C171.29 234.755 171.255 234.84 171.185 234.91C171.115 234.97 171.03 235 170.93 235H170.195ZM178.248 235.15C177.548 235.15 176.958 235.04 176.478 234.82C176.008 234.59 175.653 234.33 175.413 234.04C175.183 233.75 175.068 233.51 175.068 233.32C175.068 233.22 175.103 233.145 175.173 233.095C175.253 233.035 175.333 233.005 175.413 233.005H176.088C176.188 233.005 176.278 233.055 176.358 233.155C176.598 233.435 176.858 233.655 177.138 233.815C177.418 233.975 177.793 234.055 178.263 234.055C178.783 234.055 179.203 233.955 179.523 233.755C179.853 233.545 180.018 233.26 180.018 232.9C180.018 232.66 179.948 232.465 179.808 232.315C179.678 232.155 179.448 232.02 179.118 231.91C178.798 231.79 178.318 231.66 177.678 231.52C176.808 231.33 176.188 231.055 175.818 230.695C175.458 230.335 175.278 229.87 175.278 229.3C175.278 228.92 175.388 228.56 175.608 228.22C175.838 227.87 176.168 227.59 176.598 227.38C177.038 227.16 177.563 227.05 178.173 227.05C178.813 227.05 179.358 227.155 179.808 227.365C180.258 227.575 180.593 227.825 180.813 228.115C181.043 228.395 181.158 228.63 181.158 228.82C181.158 228.91 181.123 228.985 181.053 229.045C180.993 229.105 180.918 229.135 180.828 229.135H180.198C180.078 229.135 179.978 229.085 179.898 228.985C179.738 228.795 179.598 228.65 179.478 228.55C179.368 228.44 179.203 228.345 178.983 228.265C178.773 228.185 178.503 228.145 178.173 228.145C177.693 228.145 177.323 228.25 177.063 228.46C176.803 228.66 176.673 228.925 176.673 229.255C176.673 229.465 176.728 229.645 176.838 229.795C176.948 229.935 177.158 230.065 177.468 230.185C177.788 230.305 178.248 230.43 178.848 230.56C179.798 230.76 180.468 231.05 180.858 231.43C181.258 231.8 181.458 232.275 181.458 232.855C181.458 233.285 181.333 233.675 181.083 234.025C180.833 234.375 180.463 234.65 179.973 234.85C179.493 235.05 178.918 235.15 178.248 235.15ZM183.42 225.745C183.32 225.745 183.235 225.715 183.165 225.655C183.105 225.585 183.075 225.5 183.075 225.4V224.59C183.075 224.49 183.105 224.405 183.165 224.335C183.235 224.265 183.32 224.23 183.42 224.23H184.365C184.465 224.23 184.55 224.265 184.62 224.335C184.69 224.405 184.725 224.49 184.725 224.59V225.4C184.725 225.5 184.69 225.585 184.62 225.655C184.55 225.715 184.465 225.745 184.365 225.745H183.42ZM183.54 235C183.44 235 183.355 234.97 183.285 234.91C183.225 234.84 183.195 234.755 183.195 234.655V227.545C183.195 227.445 183.225 227.365 183.285 227.305C183.355 227.235 183.44 227.2 183.54 227.2H184.26C184.36 227.2 184.44 227.235 184.5 227.305C184.57 227.365 184.605 227.445 184.605 227.545V234.655C184.605 234.755 184.57 234.84 184.5 234.91C184.44 234.97 184.36 235 184.26 235H183.54ZM190.023 235.15C188.923 235.15 188.068 234.84 187.458 234.22C186.858 233.6 186.538 232.775 186.498 231.745L186.483 231.1L186.498 230.455C186.538 229.435 186.863 228.615 187.473 227.995C188.083 227.365 188.933 227.05 190.023 227.05C191.113 227.05 191.963 227.365 192.573 227.995C193.183 228.615 193.508 229.435 193.548 230.455C193.558 230.565 193.563 230.78 193.563 231.1C193.563 231.42 193.558 231.635 193.548 231.745C193.508 232.775 193.183 233.6 192.573 234.22C191.973 234.84 191.123 235.15 190.023 235.15ZM190.023 233.995C190.653 233.995 191.148 233.795 191.508 233.395C191.878 232.995 192.078 232.42 192.108 231.67C192.118 231.57 192.123 231.38 192.123 231.1C192.123 230.82 192.118 230.63 192.108 230.53C192.078 229.78 191.878 229.205 191.508 228.805C191.148 228.405 190.653 228.205 190.023 228.205C189.393 228.205 188.893 228.405 188.523 228.805C188.153 229.205 187.958 229.78 187.938 230.53L187.923 231.1L187.938 231.67C187.958 232.42 188.153 232.995 188.523 233.395C188.893 233.795 189.393 233.995 190.023 233.995ZM195.786 235C195.686 235 195.601 234.97 195.531 234.91C195.471 234.84 195.441 234.755 195.441 234.655V227.545C195.441 227.445 195.471 227.365 195.531 227.305C195.601 227.235 195.686 227.2 195.786 227.2H196.491C196.591 227.2 196.671 227.235 196.731 227.305C196.801 227.365 196.836 227.445 196.836 227.545V228.205C197.126 227.835 197.466 227.55 197.856 227.35C198.256 227.15 198.751 227.05 199.341 227.05C200.301 227.05 201.046 227.36 201.576 227.98C202.116 228.59 202.386 229.405 202.386 230.425V234.655C202.386 234.755 202.351 234.84 202.281 234.91C202.221 234.97 202.141 235 202.041 235H201.291C201.191 235 201.106 234.97 201.036 234.91C200.976 234.84 200.946 234.755 200.946 234.655V230.5C200.946 229.79 200.771 229.24 200.421 228.85C200.081 228.46 199.586 228.265 198.936 228.265C198.306 228.265 197.806 228.465 197.436 228.865C197.066 229.255 196.881 229.8 196.881 230.5V234.655C196.881 234.755 196.846 234.84 196.776 234.91C196.716 234.97 196.636 235 196.536 235H195.786ZM211.484 235.15C210.724 235.15 210.069 235.015 209.519 234.745C208.969 234.475 208.544 234.12 208.244 233.68C207.954 233.24 207.799 232.77 207.779 232.27V232.24C207.779 232.16 207.809 232.095 207.869 232.045C207.929 231.995 207.999 231.97 208.079 231.97H208.889C209.099 231.97 209.234 232.08 209.294 232.3C209.434 232.83 209.704 233.225 210.104 233.485C210.504 233.745 210.964 233.875 211.484 233.875C212.154 233.875 212.709 233.675 213.149 233.275C213.599 232.865 213.824 232.3 213.824 231.58C213.824 230.93 213.599 230.405 213.149 230.005C212.709 229.605 212.154 229.405 211.484 229.405C211.124 229.405 210.834 229.455 210.614 229.555C210.394 229.645 210.174 229.775 209.954 229.945C209.834 230.035 209.729 230.105 209.639 230.155C209.559 230.195 209.469 230.215 209.369 230.215H208.589C208.499 230.215 208.419 230.185 208.349 230.125C208.279 230.055 208.249 229.975 208.259 229.885L208.739 224.875C208.749 224.755 208.784 224.665 208.844 224.605C208.914 224.535 209.004 224.5 209.114 224.5H214.349C214.449 224.5 214.529 224.535 214.589 224.605C214.659 224.665 214.694 224.745 214.694 224.845V225.43C214.694 225.53 214.659 225.615 214.589 225.685C214.529 225.745 214.449 225.775 214.349 225.775H210.029L209.744 228.73C210.284 228.39 210.934 228.22 211.694 228.22C212.354 228.22 212.959 228.355 213.509 228.625C214.069 228.895 214.509 229.285 214.829 229.795C215.159 230.305 215.324 230.905 215.324 231.595C215.324 232.335 215.159 232.975 214.829 233.515C214.509 234.045 214.059 234.45 213.479 234.73C212.899 235.01 212.234 235.15 211.484 235.15ZM220.391 235.15C219.631 235.15 218.976 235.015 218.426 234.745C217.876 234.475 217.451 234.12 217.151 233.68C216.861 233.24 216.706 232.77 216.686 232.27V232.24C216.686 232.16 216.716 232.095 216.776 232.045C216.836 231.995 216.906 231.97 216.986 231.97H217.796C218.006 231.97 218.141 232.08 218.201 232.3C218.341 232.83 218.611 233.225 219.011 233.485C219.411 233.745 219.871 233.875 220.391 233.875C221.061 233.875 221.616 233.675 222.056 233.275C222.506 232.865 222.731 232.3 222.731 231.58C222.731 230.93 222.506 230.405 222.056 230.005C221.616 229.605 221.061 229.405 220.391 229.405C220.031 229.405 219.741 229.455 219.521 229.555C219.301 229.645 219.081 229.775 218.861 229.945C218.741 230.035 218.636 230.105 218.546 230.155C218.466 230.195 218.376 230.215 218.276 230.215H217.496C217.406 230.215 217.326 230.185 217.256 230.125C217.186 230.055 217.156 229.975 217.166 229.885L217.646 224.875C217.656 224.755 217.691 224.665 217.751 224.605C217.821 224.535 217.911 224.5 218.021 224.5H223.256C223.356 224.5 223.436 224.535 223.496 224.605C223.566 224.665 223.601 224.745 223.601 224.845V225.43C223.601 225.53 223.566 225.615 223.496 225.685C223.436 225.745 223.356 225.775 223.256 225.775H218.936L218.651 228.73C219.191 228.39 219.841 228.22 220.601 228.22C221.261 228.22 221.866 228.355 222.416 228.625C222.976 228.895 223.416 229.285 223.736 229.795C224.066 230.305 224.231 230.905 224.231 231.595C224.231 232.335 224.066 232.975 223.736 233.515C223.416 234.045 222.966 234.45 222.386 234.73C221.806 235.01 221.141 235.15 220.391 235.15Z" fill="#242A45"/>
<path fill-rule="evenodd" clip-rule="evenodd" d="M17 278C17 279.105 16.1046 280 15 280C13.8954 280 13 279.105 13 278C13 276.895 13.8954 276 15 276C16.1046 276 17 276.895 17 278ZM297 278C297 279.105 296.105 280 295 280C293.895 280 293 279.105 293 278C293 276.895 293.895 276 295 276C296.105 276 297 276.895 297 278ZM278 280C279.105 280 280 279.105 280 278C280 276.895 279.105 276 278 276C276.895 276 276 276.895 276 278C276 279.105 276.895 280 278 280ZM245 278C245 279.105 244.105 280 243 280C241.895 280 241 279.105 241 278C241 276.895 241.895 276 243 276C244.105 276 245 276.895 245 278ZM208 280C209.105 280 210 279.105 210 278C210 276.895 209.105 276 208 276C206.895 276 206 276.895 206 278C206 279.105 206.895 280 208 280ZM175 278C175 279.105 174.105 280 173 280C171.895 280 171 279.105 171 278C171 276.895 171.895 276 173 276C174.105 276 175 276.895 175 278ZM155 280C156.105 280 157 279.105 157 278C157 276.895 156.105 276 155 276C153.895 276 153 276.895 153 278C153 279.105 153.895 280 155 280ZM140 278C140 279.105 139.105 280 138 280C136.895 280 136 279.105 136 278C136 276.895 136.895 276 138 276C139.105 276 140 276.895 140 278ZM260 280C261.105 280 262 279.105 262 278C262 276.895 261.105 276 260 276C258.895 276 258 276.895 258 278C258 279.105 258.895 280 260 280ZM227 278C227 279.105 226.105 280 225 280C223.895 280 223 279.105 223 278C223 276.895 223.895 276 225 276C226.105 276 227 276.895 227 278ZM190 280C191.105 280 192 279.105 192 278C192 276.895 191.105 276 190 276C188.895 276 188 276.895 188 278C188 279.105 188.895 280 190 280ZM122 278C122 279.105 121.105 280 120 280C118.895 280 118 279.105 118 278C118 276.895 118.895 276 120 276C121.105 276 122 276.895 122 278ZM103 280C104.105 280 105 279.105 105 278C105 276.895 104.105 276 103 276C101.895 276 101 276.895 101 278C101 279.105 101.895 280 103 280ZM87 278C87 279.105 86.1046 280 85 280C83.8954 280 83 279.105 83 278C83 276.895 83.8954 276 85 276C86.1046 276 87 276.895 87 278ZM68 280C69.1046 280 70 279.105 70 278C70 276.895 69.1046 276 68 276C66.8954 276 66 276.895 66 278C66 279.105 66.8954 280 68 280ZM52 278C52 279.105 51.1046 280 50 280C48.8954 280 48 279.105 48 278C48 276.895 48.8954 276 50 276C51.1046 276 52 276.895 52 278ZM33 280C34.1046 280 35 279.105 35 278C35 276.895 34.1046 276 33 276C31.8954 276 31 276.895 31 278C31 279.105 31.8954 280 33 280Z" fill="#495DCF" fill-opacity="0.20012"/>
<g clip-path="url(#clip0_0_496)">
<g filter="url(#filter1_d_0_496)">
<rect x="39" y="304" width="232" height="48" rx="5" fill="#5267DF"/>
</g>
<path d="M75.3445 333C75.2698 333 75.1998 332.972 75.1345 332.916C75.0785 332.86 75.0505 332.79 75.0505 332.706L75.0785 332.58L78.4525 323.55C78.5178 323.317 78.6812 323.2 78.9425 323.2H80.4685C80.7112 323.2 80.8745 323.317 80.9585 323.55L84.3325 332.58C84.3418 332.608 84.3465 332.65 84.3465 332.706C84.3465 332.79 84.3185 332.86 84.2625 332.916C84.2065 332.972 84.1412 333 84.0665 333H82.8485C82.7272 333 82.6338 332.972 82.5685 332.916C82.5032 332.86 82.4612 332.799 82.4425 332.734L81.7845 331.026H77.6265L76.9685 332.734C76.8938 332.911 76.7585 333 76.5625 333H75.3445ZM81.2945 329.416L79.6985 325.09L78.1165 329.416H81.2945ZM88.3555 333.14C87.4128 333.14 86.6895 332.837 86.1855 332.23C85.6815 331.623 85.4108 330.816 85.3735 329.808L85.3595 329.346L85.3735 328.898C85.4015 327.918 85.6675 327.12 86.1715 326.504C86.6848 325.888 87.4128 325.58 88.3555 325.58C89.2608 325.58 89.9795 325.888 90.5115 326.504V323.396C90.5115 323.293 90.5442 323.214 90.6095 323.158C90.6748 323.093 90.7542 323.06 90.8475 323.06H92.0375C92.1402 323.06 92.2195 323.093 92.2755 323.158C92.3408 323.214 92.3735 323.293 92.3735 323.396V332.664C92.3735 332.757 92.3408 332.837 92.2755 332.902C92.2195 332.967 92.1402 333 92.0375 333H90.9315C90.8382 333 90.7588 332.967 90.6935 332.902C90.6282 332.837 90.5955 332.757 90.5955 332.664V332.146C90.0635 332.809 89.3168 333.14 88.3555 333.14ZM88.8735 331.642C89.4148 331.642 89.8162 331.469 90.0775 331.124C90.3388 330.779 90.4835 330.354 90.5115 329.85C90.5208 329.738 90.5255 329.556 90.5255 329.304C90.5255 329.061 90.5208 328.884 90.5115 328.772C90.4928 328.305 90.3435 327.909 90.0635 327.582C89.7928 327.246 89.3962 327.078 88.8735 327.078C87.8655 327.078 87.3288 327.699 87.2635 328.94L87.2495 329.36L87.2635 329.78C87.3288 331.021 87.8655 331.642 88.8735 331.642ZM97.1914 333.14C96.2488 333.14 95.5254 332.837 95.0214 332.23C94.5174 331.623 94.2468 330.816 94.2094 329.808L94.1954 329.346L94.2094 328.898C94.2374 327.918 94.5034 327.12 95.0074 326.504C95.5208 325.888 96.2488 325.58 97.1914 325.58C98.0968 325.58 98.8154 325.888 99.3474 326.504V323.396C99.3474 323.293 99.3801 323.214 99.4454 323.158C99.5108 323.093 99.5901 323.06 99.6834 323.06H100.873C100.976 323.06 101.055 323.093 101.111 323.158C101.177 323.214 101.209 323.293 101.209 323.396V332.664C101.209 332.757 101.177 332.837 101.111 332.902C101.055 332.967 100.976 333 100.873 333H99.7674C99.6741 333 99.5948 332.967 99.5294 332.902C99.4641 332.837 99.4314 332.757 99.4314 332.664V332.146C98.8994 332.809 98.1528 333.14 97.1914 333.14ZM97.7094 331.642C98.2508 331.642 98.6521 331.469 98.9134 331.124C99.1748 330.779 99.3194 330.354 99.3474 329.85C99.3568 329.738 99.3614 329.556 99.3614 329.304C99.3614 329.061 99.3568 328.884 99.3474 328.772C99.3288 328.305 99.1794 327.909 98.8994 327.582C98.6288 327.246 98.2321 327.078 97.7094 327.078C96.7014 327.078 96.1648 327.699 96.0994 328.94L96.0854 329.36L96.0994 329.78C96.1648 331.021 96.7014 331.642 97.7094 331.642ZM109.953 333.14C109.281 333.14 108.683 333.023 108.161 332.79C107.647 332.557 107.251 332.23 106.971 331.81C106.691 331.381 106.551 330.886 106.551 330.326C106.551 329.747 106.719 329.248 107.055 328.828C107.391 328.399 107.867 328.007 108.483 327.652C108.081 327.223 107.797 326.84 107.629 326.504C107.461 326.168 107.377 325.818 107.377 325.454C107.377 325.015 107.489 324.614 107.713 324.25C107.937 323.886 108.263 323.597 108.693 323.382C109.122 323.167 109.631 323.06 110.219 323.06C110.769 323.06 111.25 323.167 111.661 323.382C112.081 323.587 112.403 323.872 112.627 324.236C112.851 324.6 112.963 324.997 112.963 325.426C112.963 325.977 112.785 326.448 112.431 326.84C112.085 327.223 111.581 327.601 110.919 327.974L112.935 329.976C113.271 329.407 113.518 328.786 113.677 328.114C113.686 328.039 113.714 327.983 113.761 327.946C113.817 327.899 113.887 327.876 113.971 327.876H114.993C115.067 327.876 115.133 327.904 115.189 327.96C115.245 328.016 115.273 328.081 115.273 328.156C115.263 328.52 115.133 328.973 114.881 329.514C114.638 330.055 114.344 330.559 113.999 331.026L115.483 332.538C115.557 332.594 115.595 332.664 115.595 332.748C115.595 332.823 115.571 332.883 115.525 332.93C115.478 332.977 115.413 333 115.329 333H113.985C113.845 333 113.719 332.953 113.607 332.86L112.837 332.104C112.062 332.795 111.101 333.14 109.953 333.14ZM109.939 326.938C110.396 326.695 110.741 326.467 110.975 326.252C111.217 326.028 111.339 325.767 111.339 325.468C111.339 325.16 111.231 324.913 111.017 324.726C110.802 324.53 110.531 324.432 110.205 324.432C109.887 324.432 109.617 324.53 109.393 324.726C109.178 324.913 109.071 325.16 109.071 325.468C109.071 325.683 109.131 325.897 109.253 326.112C109.383 326.327 109.612 326.602 109.939 326.938ZM109.953 331.698C110.279 331.698 110.597 331.637 110.905 331.516C111.222 331.395 111.507 331.213 111.759 330.97L109.519 328.758C109.145 328.963 108.851 329.187 108.637 329.43C108.422 329.673 108.315 329.953 108.315 330.27C108.315 330.699 108.478 331.045 108.805 331.306C109.131 331.567 109.514 331.698 109.953 331.698ZM121.027 333C120.933 333 120.854 332.967 120.789 332.902C120.723 332.837 120.691 332.757 120.691 332.664V323.536C120.691 323.433 120.723 323.354 120.789 323.298C120.854 323.233 120.933 323.2 121.027 323.2H122.343C122.445 323.2 122.525 323.233 122.581 323.298C122.646 323.354 122.679 323.433 122.679 323.536V332.664C122.679 332.757 122.646 332.837 122.581 332.902C122.525 332.967 122.445 333 122.343 333H121.027ZM125.292 333C125.199 333 125.12 332.967 125.054 332.902C124.989 332.837 124.956 332.757 124.956 332.664V326.056C124.956 325.963 124.989 325.883 125.054 325.818C125.12 325.753 125.199 325.72 125.292 325.72H126.44C126.534 325.72 126.613 325.753 126.678 325.818C126.744 325.883 126.776 325.963 126.776 326.056V326.63C127.327 325.93 128.106 325.58 129.114 325.58C129.973 325.58 130.654 325.865 131.158 326.434C131.662 326.994 131.914 327.759 131.914 328.73V332.664C131.914 332.757 131.882 332.837 131.816 332.902C131.76 332.967 131.681 333 131.578 333H130.346C130.253 333 130.174 332.967 130.108 332.902C130.043 332.837 130.01 332.757 130.01 332.664V328.814C130.01 328.263 129.875 327.839 129.604 327.54C129.343 327.232 128.96 327.078 128.456 327.078C127.962 327.078 127.57 327.232 127.28 327.54C127 327.848 126.86 328.273 126.86 328.814V332.664C126.86 332.757 126.828 332.837 126.762 332.902C126.706 332.967 126.627 333 126.524 333H125.292ZM136.701 333.14C136.001 333.14 135.413 333.037 134.937 332.832C134.461 332.617 134.106 332.37 133.873 332.09C133.649 331.801 133.537 331.553 133.537 331.348C133.537 331.255 133.569 331.18 133.635 331.124C133.7 331.068 133.775 331.04 133.859 331.04H134.965C135.049 331.04 135.119 331.073 135.175 331.138C135.212 331.166 135.31 331.25 135.469 331.39C135.627 331.539 135.814 331.656 136.029 331.74C136.243 331.824 136.481 331.866 136.743 331.866C137.116 331.866 137.424 331.791 137.667 331.642C137.909 331.493 138.031 331.287 138.031 331.026C138.031 330.83 137.975 330.671 137.863 330.55C137.76 330.429 137.569 330.321 137.289 330.228C137.009 330.125 136.593 330.018 136.043 329.906C135.249 329.738 134.661 329.481 134.279 329.136C133.905 328.791 133.719 328.333 133.719 327.764C133.719 327.391 133.831 327.041 134.055 326.714C134.279 326.378 134.61 326.107 135.049 325.902C135.497 325.687 136.029 325.58 136.645 325.58C137.27 325.58 137.811 325.683 138.269 325.888C138.726 326.084 139.071 326.322 139.305 326.602C139.547 326.873 139.669 327.115 139.669 327.33C139.669 327.414 139.636 327.489 139.571 327.554C139.515 327.61 139.445 327.638 139.361 327.638H138.325C138.25 327.638 138.171 327.605 138.087 327.54C138.021 327.493 137.919 327.405 137.779 327.274C137.639 327.143 137.475 327.041 137.289 326.966C137.102 326.891 136.883 326.854 136.631 326.854C136.285 326.854 136.015 326.929 135.819 327.078C135.632 327.227 135.539 327.423 135.539 327.666C135.539 327.843 135.585 327.988 135.679 328.1C135.772 328.212 135.954 328.319 136.225 328.422C136.495 328.525 136.901 328.627 137.443 328.73C138.339 328.907 138.978 329.183 139.361 329.556C139.753 329.929 139.949 330.387 139.949 330.928C139.949 331.581 139.664 332.113 139.095 332.524C138.525 332.935 137.727 333.14 136.701 333.14ZM144.906 333C144.057 333 143.418 332.781 142.988 332.342C142.568 331.894 142.358 331.241 142.358 330.382V327.204H141.252C141.159 327.204 141.08 327.171 141.014 327.106C140.949 327.031 140.916 326.947 140.916 326.854V326.056C140.916 325.963 140.949 325.883 141.014 325.818C141.08 325.753 141.159 325.72 141.252 325.72H142.358V323.396C142.358 323.293 142.391 323.214 142.456 323.158C142.522 323.093 142.601 323.06 142.694 323.06H143.828C143.931 323.06 144.01 323.093 144.066 323.158C144.132 323.214 144.164 323.293 144.164 323.396V325.72H145.914C146.017 325.72 146.096 325.753 146.152 325.818C146.218 325.874 146.25 325.953 146.25 326.056V326.854C146.25 326.957 146.218 327.041 146.152 327.106C146.087 327.171 146.008 327.204 145.914 327.204H144.164V330.242C144.164 330.643 144.234 330.947 144.374 331.152C144.514 331.357 144.748 331.46 145.074 331.46H146.04C146.134 331.46 146.213 331.493 146.278 331.558C146.344 331.623 146.376 331.703 146.376 331.796V332.664C146.376 332.757 146.344 332.837 146.278 332.902C146.222 332.967 146.143 333 146.04 333H144.906ZM149.982 333.14C149.506 333.14 149.068 333.047 148.666 332.86C148.274 332.664 147.962 332.403 147.728 332.076C147.504 331.749 147.392 331.39 147.392 330.998C147.392 330.363 147.649 329.85 148.162 329.458C148.676 329.066 149.38 328.8 150.276 328.66L152.194 328.38V328.086C152.194 327.675 152.092 327.367 151.886 327.162C151.681 326.957 151.35 326.854 150.892 326.854C150.584 326.854 150.332 326.915 150.136 327.036C149.95 327.148 149.8 327.26 149.688 327.372C149.576 327.493 149.502 327.573 149.464 327.61C149.427 327.722 149.357 327.778 149.254 327.778H148.176C148.092 327.778 148.018 327.75 147.952 327.694C147.896 327.638 147.868 327.563 147.868 327.47C147.878 327.237 147.99 326.971 148.204 326.672C148.428 326.373 148.769 326.117 149.226 325.902C149.684 325.687 150.244 325.58 150.906 325.58C152.008 325.58 152.81 325.827 153.314 326.322C153.818 326.817 154.07 327.465 154.07 328.268V332.664C154.07 332.757 154.038 332.837 153.972 332.902C153.916 332.967 153.837 333 153.734 333H152.6C152.507 333 152.428 332.967 152.362 332.902C152.297 332.837 152.264 332.757 152.264 332.664V332.118C152.059 332.417 151.765 332.664 151.382 332.86C151.009 333.047 150.542 333.14 149.982 333.14ZM150.458 331.81C150.972 331.81 151.392 331.642 151.718 331.306C152.045 330.97 152.208 330.48 152.208 329.836V329.542L150.808 329.766C150.267 329.85 149.856 329.985 149.576 330.172C149.306 330.359 149.17 330.587 149.17 330.858C149.17 331.157 149.296 331.39 149.548 331.558C149.8 331.726 150.104 331.81 150.458 331.81ZM156.466 333C156.373 333 156.294 332.967 156.228 332.902C156.163 332.837 156.13 332.757 156.13 332.664V323.396C156.13 323.293 156.163 323.214 156.228 323.158C156.294 323.093 156.373 323.06 156.466 323.06H157.628C157.731 323.06 157.81 323.093 157.866 323.158C157.932 323.214 157.964 323.293 157.964 323.396V332.664C157.964 332.757 157.932 332.837 157.866 332.902C157.81 332.967 157.731 333 157.628 333H156.466ZM160.421 333C160.328 333 160.249 332.967 160.183 332.902C160.118 332.837 160.085 332.757 160.085 332.664V323.396C160.085 323.293 160.118 323.214 160.183 323.158C160.249 323.093 160.328 323.06 160.421 323.06H161.583C161.686 323.06 161.765 323.093 161.821 323.158C161.887 323.214 161.919 323.293 161.919 323.396V332.664C161.919 332.757 161.887 332.837 161.821 332.902C161.765 332.967 161.686 333 161.583 333H160.421ZM167.98 333C167.886 333 167.807 332.967 167.742 332.902C167.676 332.837 167.644 332.757 167.644 332.664V323.55C167.644 323.447 167.672 323.363 167.728 323.298C167.793 323.233 167.877 323.2 167.98 323.2H174.14C174.242 323.2 174.326 323.233 174.392 323.298C174.457 323.363 174.49 323.447 174.49 323.55V324.474C174.49 324.577 174.457 324.661 174.392 324.726C174.326 324.782 174.242 324.81 174.14 324.81H169.534V327.288H173.832C173.934 327.288 174.018 327.321 174.084 327.386C174.149 327.442 174.182 327.521 174.182 327.624V328.492C174.182 328.595 174.149 328.679 174.084 328.744C174.018 328.8 173.934 328.828 173.832 328.828H169.534V331.39H174.252C174.354 331.39 174.438 331.423 174.504 331.488C174.569 331.553 174.602 331.637 174.602 331.74V332.664C174.602 332.767 174.569 332.851 174.504 332.916C174.438 332.972 174.354 333 174.252 333H167.98ZM176.127 333C176.043 333 175.968 332.972 175.903 332.916C175.847 332.851 175.819 332.776 175.819 332.692C175.819 332.608 175.851 332.529 175.917 332.454L178.297 329.262L176.085 326.266C176.029 326.191 176.001 326.112 176.001 326.028C176.001 325.944 176.029 325.874 176.085 325.818C176.15 325.753 176.225 325.72 176.309 325.72H177.527C177.62 325.72 177.69 325.743 177.737 325.79C177.793 325.827 177.849 325.883 177.905 325.958L179.487 328.058L181.069 325.958C181.078 325.949 181.115 325.907 181.181 325.832C181.237 325.757 181.325 325.72 181.447 325.72H182.609C182.693 325.72 182.763 325.753 182.819 325.818C182.884 325.874 182.917 325.939 182.917 326.014C182.917 326.107 182.889 326.191 182.833 326.266L180.593 329.29L182.987 332.454C183.052 332.529 183.085 332.608 183.085 332.692C183.085 332.776 183.052 332.851 182.987 332.916C182.931 332.972 182.861 333 182.777 333H181.503C181.353 333 181.227 332.925 181.125 332.776L179.445 330.55L177.737 332.776C177.634 332.925 177.508 333 177.359 333H176.127ZM187.877 333C187.028 333 186.388 332.781 185.959 332.342C185.539 331.894 185.329 331.241 185.329 330.382V327.204H184.223C184.13 327.204 184.05 327.171 183.985 327.106C183.92 327.031 183.887 326.947 183.887 326.854V326.056C183.887 325.963 183.92 325.883 183.985 325.818C184.05 325.753 184.13 325.72 184.223 325.72H185.329V323.396C185.329 323.293 185.362 323.214 185.427 323.158C185.492 323.093 185.572 323.06 185.665 323.06H186.799C186.902 323.06 186.981 323.093 187.037 323.158C187.102 323.214 187.135 323.293 187.135 323.396V325.72H188.885C188.988 325.72 189.067 325.753 189.123 325.818C189.188 325.874 189.221 325.953 189.221 326.056V326.854C189.221 326.957 189.188 327.041 189.123 327.106C189.058 327.171 188.978 327.204 188.885 327.204H187.135V330.242C187.135 330.643 187.205 330.947 187.345 331.152C187.485 331.357 187.718 331.46 188.045 331.46H189.011C189.104 331.46 189.184 331.493 189.249 331.558C189.314 331.623 189.347 331.703 189.347 331.796V332.664C189.347 332.757 189.314 332.837 189.249 332.902C189.193 332.967 189.114 333 189.011 333H187.877ZM193.975 333.14C192.939 333.14 192.113 332.841 191.497 332.244C190.89 331.637 190.568 330.788 190.531 329.696L190.517 329.346L190.531 328.996C190.578 327.932 190.904 327.097 191.511 326.49C192.127 325.883 192.948 325.58 193.975 325.58C195.076 325.58 195.926 325.916 196.523 326.588C197.13 327.26 197.433 328.156 197.433 329.276V329.57C197.433 329.663 197.4 329.743 197.335 329.808C197.27 329.873 197.186 329.906 197.083 329.906H192.435V330.018C192.454 330.531 192.594 330.965 192.855 331.32C193.126 331.665 193.494 331.838 193.961 331.838C194.512 331.838 194.955 331.623 195.291 331.194C195.375 331.091 195.44 331.026 195.487 330.998C195.543 330.97 195.622 330.956 195.725 330.956H196.929C197.013 330.956 197.083 330.984 197.139 331.04C197.204 331.087 197.237 331.147 197.237 331.222C197.237 331.446 197.102 331.712 196.831 332.02C196.57 332.319 196.192 332.58 195.697 332.804C195.202 333.028 194.628 333.14 193.975 333.14ZM195.529 328.73V328.688C195.529 328.137 195.389 327.694 195.109 327.358C194.838 327.022 194.46 326.854 193.975 326.854C193.49 326.854 193.112 327.022 192.841 327.358C192.57 327.694 192.435 328.137 192.435 328.688V328.73H195.529ZM199.505 333C199.412 333 199.332 332.967 199.267 332.902C199.202 332.837 199.169 332.757 199.169 332.664V326.056C199.169 325.963 199.202 325.883 199.267 325.818C199.332 325.753 199.412 325.72 199.505 325.72H200.653C200.746 325.72 200.826 325.753 200.891 325.818C200.956 325.883 200.989 325.963 200.989 326.056V326.63C201.54 325.93 202.319 325.58 203.327 325.58C204.186 325.58 204.867 325.865 205.371 326.434C205.875 326.994 206.127 327.759 206.127 328.73V332.664C206.127 332.757 206.094 332.837 206.029 332.902C205.973 332.967 205.894 333 205.791 333H204.559C204.466 333 204.386 332.967 204.321 332.902C204.256 332.837 204.223 332.757 204.223 332.664V328.814C204.223 328.263 204.088 327.839 203.817 327.54C203.556 327.232 203.173 327.078 202.669 327.078C202.174 327.078 201.782 327.232 201.493 327.54C201.213 327.848 201.073 328.273 201.073 328.814V332.664C201.073 332.757 201.04 332.837 200.975 332.902C200.919 332.967 200.84 333 200.737 333H199.505ZM210.913 333.14C210.213 333.14 209.625 333.037 209.149 332.832C208.673 332.617 208.319 332.37 208.085 332.09C207.861 331.801 207.749 331.553 207.749 331.348C207.749 331.255 207.782 331.18 207.847 331.124C207.913 331.068 207.987 331.04 208.071 331.04H209.177C209.261 331.04 209.331 331.073 209.387 331.138C209.425 331.166 209.523 331.25 209.681 331.39C209.84 331.539 210.027 331.656 210.241 331.74C210.456 331.824 210.694 331.866 210.955 331.866C211.329 331.866 211.637 331.791 211.879 331.642C212.122 331.493 212.243 331.287 212.243 331.026C212.243 330.83 212.187 330.671 212.075 330.55C211.973 330.429 211.781 330.321 211.501 330.228C211.221 330.125 210.806 330.018 210.255 329.906C209.462 329.738 208.874 329.481 208.491 329.136C208.118 328.791 207.931 328.333 207.931 327.764C207.931 327.391 208.043 327.041 208.267 326.714C208.491 326.378 208.823 326.107 209.261 325.902C209.709 325.687 210.241 325.58 210.857 325.58C211.483 325.58 212.024 325.683 212.481 325.888C212.939 326.084 213.284 326.322 213.517 326.602C213.76 326.873 213.881 327.115 213.881 327.33C213.881 327.414 213.849 327.489 213.783 327.554C213.727 327.61 213.657 327.638 213.573 327.638H212.537C212.463 327.638 212.383 327.605 212.299 327.54C212.234 327.493 212.131 327.405 211.991 327.274C211.851 327.143 211.688 327.041 211.501 326.966C211.315 326.891 211.095 326.854 210.843 326.854C210.498 326.854 210.227 326.929 210.031 327.078C209.845 327.227 209.751 327.423 209.751 327.666C209.751 327.843 209.798 327.988 209.891 328.1C209.985 328.212 210.167 328.319 210.437 328.422C210.708 328.525 211.114 328.627 211.655 328.73C212.551 328.907 213.191 329.183 213.573 329.556C213.965 329.929 214.161 330.387 214.161 330.928C214.161 331.581 213.877 332.113 213.307 332.524C212.738 332.935 211.94 333.14 210.913 333.14ZM216.137 324.516C216.043 324.516 215.964 324.483 215.899 324.418C215.833 324.353 215.801 324.273 215.801 324.18V323.172C215.801 323.079 215.833 322.999 215.899 322.934C215.964 322.869 216.043 322.836 216.137 322.836H217.411C217.504 322.836 217.583 322.869 217.649 322.934C217.723 322.999 217.761 323.079 217.761 323.172V324.18C217.761 324.273 217.728 324.353 217.663 324.418C217.597 324.483 217.513 324.516 217.411 324.516H216.137ZM216.193 333C216.099 333 216.02 332.967 215.955 332.902C215.889 332.837 215.857 332.757 215.857 332.664V326.056C215.857 325.963 215.889 325.883 215.955 325.818C216.02 325.753 216.099 325.72 216.193 325.72H217.355C217.457 325.72 217.537 325.753 217.593 325.818C217.658 325.874 217.691 325.953 217.691 326.056V332.664C217.691 332.757 217.658 332.837 217.593 332.902C217.537 332.967 217.457 333 217.355 333H216.193ZM223.018 333.14C221.926 333.14 221.081 332.86 220.484 332.3C219.887 331.731 219.565 330.956 219.518 329.976L219.504 329.36L219.518 328.744C219.565 327.773 219.891 327.003 220.498 326.434C221.105 325.865 221.945 325.58 223.018 325.58C224.091 325.58 224.931 325.865 225.538 326.434C226.145 327.003 226.471 327.773 226.518 328.744C226.527 328.856 226.532 329.061 226.532 329.36C226.532 329.659 226.527 329.864 226.518 329.976C226.471 330.956 226.149 331.731 225.552 332.3C224.955 332.86 224.11 333.14 223.018 333.14ZM223.018 331.754C223.513 331.754 223.895 331.6 224.166 331.292C224.437 330.975 224.586 330.513 224.614 329.906C224.623 329.813 224.628 329.631 224.628 329.36C224.628 329.089 224.623 328.907 224.614 328.814C224.586 328.207 224.437 327.75 224.166 327.442C223.895 327.125 223.513 326.966 223.018 326.966C222.523 326.966 222.141 327.125 221.87 327.442C221.599 327.75 221.45 328.207 221.422 328.814L221.408 329.36L221.422 329.906C221.45 330.513 221.599 330.975 221.87 331.292C222.141 331.6 222.523 331.754 223.018 331.754ZM228.669 333C228.576 333 228.497 332.967 228.431 332.902C228.366 332.837 228.333 332.757 228.333 332.664V326.056C228.333 325.963 228.366 325.883 228.431 325.818C228.497 325.753 228.576 325.72 228.669 325.72H229.817C229.911 325.72 229.99 325.753 230.055 325.818C230.121 325.883 230.153 325.963 230.153 326.056V326.63C230.704 325.93 231.483 325.58 232.491 325.58C233.35 325.58 234.031 325.865 234.535 326.434C235.039 326.994 235.291 327.759 235.291 328.73V332.664C235.291 332.757 235.259 332.837 235.193 332.902C235.137 332.967 235.058 333 234.955 333H233.723C233.63 333 233.551 332.967 233.485 332.902C233.42 332.837 233.387 332.757 233.387 332.664V328.814C233.387 328.263 233.252 327.839 232.981 327.54C232.72 327.232 232.337 327.078 231.833 327.078C231.339 327.078 230.947 327.232 230.657 327.54C230.377 327.848 230.237 328.273 230.237 328.814V332.664C230.237 332.757 230.205 332.837 230.139 332.902C230.083 332.967 230.004 333 229.901 333H228.669Z" fill="white"/>
</g>
</g>
<defs>
<filter id="filter0_d_0_496" x="0" y="0" width="310" height="401" filterUnits="userSpaceOnUse" color-interpolation-filters="sRGB">
<feFlood flood-opacity="0" result="BackgroundImageFix"/>
<feColorMatrix in="SourceAlpha" type="matrix" values="0 0 0 0 0 0 0 0 0 0 0 0 0 0 0 0 0 0 127 0" result="hardAlpha"/>
<feMorphology radius="5" operator="erode" in="SourceAlpha" result="effect1_dropShadow_0_496"/>
<feOffset dy="10"/>
<feGaussianBlur stdDeviation="10"/>
<feColorMatrix type="matrix" values="0 0 0 0 0.285333 0 0 0 0 0.363695 0 0 0 0 0.811481 0 0 0 0.20012 0"/>
<feBlend mode="normal" in2="BackgroundImageFix" result="effect1_dropShadow_0_496"/>
<feBlend mode="normal" in="SourceGraphic" in2="effect1_dropShadow_0_496" result="shape"/>
</filter>
<filter id="filter1_d_0_496" x="35" y="304" width="240" height="60" filterUnits="userSpaceOnUse" color-interpolation-filters="sRGB">
<feFlood flood-opacity="0" result="BackgroundImageFix"/>
<feColorMatrix in="SourceAlpha" type="matrix" values="0 0 0 0 0 0 0 0 0 0 0 0 0 0 0 0 0 0 127 0" result="hardAlpha"/>
<feMorphology radius="4" operator="erode" in="SourceAlpha" result="effect1_dropShadow_0_496"/>
<feOffset dy="8"/>
<feGaussianBlur stdDeviation="4"/>
<feColorMatrix type="matrix" values="0 0 0 0 0.285333 0 0 0 0 0.363695 0 0 0 0 0.811481 0 0 0 0.20012 0"/>
<feBlend mode="normal" in2="BackgroundImageFix" result="effect1_dropShadow_0_496"/>
<feBlend mode="normal" in="SourceGraphic" in2="effect1_dropShadow_0_496" result="shape"/>
</filter>
<clipPath id="clip0_0_496">
<rect width="232" height="48" fill="white" transform="translate(39 304)"/>
</clipPath>
</defs>
</svg>
