<svg width="310" height="401" viewBox="0 0 310 401" fill="none" xmlns="http://www.w3.org/2000/svg">
<g filter="url(#filter0_d_0_879)">
<rect x="15" y="5" width="280" height="371" rx="15" fill="white"/>
</g>
<mask id="mask0_0_879" style="mask-type:alpha" maskUnits="userSpaceOnUse" x="15" y="5" width="280" height="371">
<rect x="15" y="5" width="280" height="371" rx="15" fill="white"/>
</mask>
<g mask="url(#mask0_0_879)">
<path d="M91.9324 205C91.8258 205 91.7258 204.96 91.6324 204.88C91.5524 204.8 91.5124 204.7 91.5124 204.58L91.5524 204.4L96.3724 191.5C96.4658 191.167 96.6991 191 97.0724 191H99.2524C99.5991 191 99.8324 191.167 99.9524 191.5L104.772 204.4C104.786 204.44 104.792 204.5 104.792 204.58C104.792 204.7 104.752 204.8 104.672 204.88C104.592 204.96 104.499 205 104.392 205H102.652C102.479 205 102.346 204.96 102.252 204.88C102.159 204.8 102.099 204.713 102.072 204.62L101.132 202.18H95.1924L94.2524 204.62C94.1458 204.873 93.9524 205 93.6724 205H91.9324ZM100.432 199.88L98.1524 193.7L95.8924 199.88H100.432ZM110.412 205.2C109.066 205.2 108.032 204.767 107.312 203.9C106.592 203.033 106.206 201.88 106.152 200.44L106.132 199.78L106.152 199.14C106.192 197.74 106.572 196.6 107.292 195.72C108.026 194.84 109.066 194.4 110.412 194.4C111.706 194.4 112.732 194.84 113.492 195.72V191.28C113.492 191.133 113.539 191.02 113.632 190.94C113.726 190.847 113.839 190.8 113.972 190.8H115.672C115.819 190.8 115.932 190.847 116.012 190.94C116.106 191.02 116.152 191.133 116.152 191.28V204.52C116.152 204.653 116.106 204.767 116.012 204.86C115.932 204.953 115.819 205 115.672 205H114.092C113.959 205 113.846 204.953 113.752 204.86C113.659 204.767 113.612 204.653 113.612 204.52V203.78C112.852 204.727 111.786 205.2 110.412 205.2ZM111.152 203.06C111.926 203.06 112.499 202.813 112.872 202.32C113.246 201.827 113.452 201.22 113.492 200.5C113.506 200.34 113.512 200.08 113.512 199.72C113.512 199.373 113.506 199.12 113.492 198.96C113.466 198.293 113.252 197.727 112.852 197.26C112.466 196.78 111.899 196.54 111.152 196.54C109.712 196.54 108.946 197.427 108.852 199.2L108.832 199.8L108.852 200.4C108.946 202.173 109.712 203.06 111.152 203.06ZM122.928 205.2C121.581 205.2 120.548 204.767 119.828 203.9C119.108 203.033 118.721 201.88 118.668 200.44L118.648 199.78L118.668 199.14C118.708 197.74 119.088 196.6 119.808 195.72C120.541 194.84 121.581 194.4 122.928 194.4C124.221 194.4 125.248 194.84 126.008 195.72V191.28C126.008 191.133 126.055 191.02 126.148 190.94C126.241 190.847 126.355 190.8 126.488 190.8H128.188C128.335 190.8 128.448 190.847 128.528 190.94C128.621 191.02 128.668 191.133 128.668 191.28V204.52C128.668 204.653 128.621 204.767 128.528 204.86C128.448 204.953 128.335 205 128.188 205H126.608C126.475 205 126.361 204.953 126.268 204.86C126.175 204.767 126.128 204.653 126.128 204.52V203.78C125.368 204.727 124.301 205.2 122.928 205.2ZM123.668 203.06C124.441 203.06 125.015 202.813 125.388 202.32C125.761 201.827 125.968 201.22 126.008 200.5C126.021 200.34 126.028 200.08 126.028 199.72C126.028 199.373 126.021 199.12 126.008 198.96C125.981 198.293 125.768 197.727 125.368 197.26C124.981 196.78 124.415 196.54 123.668 196.54C122.228 196.54 121.461 197.427 121.368 199.2L121.348 199.8L121.368 200.4C121.461 202.173 122.228 203.06 123.668 203.06ZM140.713 205C139.5 205 138.587 204.687 137.973 204.06C137.373 203.42 137.073 202.487 137.073 201.26V196.72H135.493C135.36 196.72 135.247 196.673 135.153 196.58C135.06 196.473 135.013 196.353 135.013 196.22V195.08C135.013 194.947 135.06 194.833 135.153 194.74C135.247 194.647 135.36 194.6 135.493 194.6H137.073V191.28C137.073 191.133 137.12 191.02 137.213 190.94C137.307 190.847 137.42 190.8 137.553 190.8H139.173C139.32 190.8 139.433 190.847 139.513 190.94C139.607 191.02 139.653 191.133 139.653 191.28V194.6H142.153C142.3 194.6 142.413 194.647 142.493 194.74C142.587 194.82 142.633 194.933 142.633 195.08V196.22C142.633 196.367 142.587 196.487 142.493 196.58C142.4 196.673 142.287 196.72 142.153 196.72H139.653V201.06C139.653 201.633 139.753 202.067 139.953 202.36C140.153 202.653 140.487 202.8 140.953 202.8H142.333C142.467 202.8 142.58 202.847 142.673 202.94C142.767 203.033 142.813 203.147 142.813 203.28V204.52C142.813 204.653 142.767 204.767 142.673 204.86C142.593 204.953 142.48 205 142.333 205H140.713ZM149.438 205.2C147.878 205.2 146.671 204.8 145.818 204C144.964 203.187 144.504 202.08 144.438 200.68L144.418 199.8L144.438 198.92C144.504 197.533 144.971 196.433 145.838 195.62C146.704 194.807 147.904 194.4 149.438 194.4C150.971 194.4 152.171 194.807 153.038 195.62C153.904 196.433 154.371 197.533 154.438 198.92C154.451 199.08 154.458 199.373 154.458 199.8C154.458 200.227 154.451 200.52 154.438 200.68C154.371 202.08 153.911 203.187 153.058 204C152.204 204.8 150.998 205.2 149.438 205.2ZM149.438 203.22C150.144 203.22 150.691 203 151.078 202.56C151.464 202.107 151.678 201.447 151.718 200.58C151.731 200.447 151.738 200.187 151.738 199.8C151.738 199.413 151.731 199.153 151.718 199.02C151.678 198.153 151.464 197.5 151.078 197.06C150.691 196.607 150.144 196.38 149.438 196.38C148.731 196.38 148.184 196.607 147.798 197.06C147.411 197.5 147.198 198.153 147.158 199.02L147.138 199.8L147.158 200.58C147.198 201.447 147.411 202.107 147.798 202.56C148.184 203 148.731 203.22 149.438 203.22ZM167.364 205.2C165.55 205.2 164.137 204.74 163.124 203.82C162.11 202.9 161.577 201.533 161.524 199.72C161.51 199.333 161.504 198.767 161.504 198.02C161.504 197.26 161.51 196.687 161.524 196.3C161.577 194.527 162.124 193.167 163.164 192.22C164.204 191.273 165.604 190.8 167.364 190.8C169.124 190.8 170.524 191.273 171.564 192.22C172.617 193.167 173.17 194.527 173.224 196.3C173.25 197.073 173.264 197.647 173.264 198.02C173.264 198.38 173.25 198.947 173.224 199.72C173.157 201.533 172.617 202.9 171.604 203.82C170.59 204.74 169.177 205.2 167.364 205.2ZM167.364 202.9C168.257 202.9 168.97 202.633 169.504 202.1C170.037 201.553 170.324 200.727 170.364 199.62C170.39 198.82 170.404 198.28 170.404 198C170.404 197.693 170.39 197.153 170.364 196.38C170.324 195.273 170.037 194.453 169.504 193.92C168.97 193.373 168.257 193.1 167.364 193.1C166.484 193.1 165.777 193.373 165.244 193.92C164.71 194.453 164.424 195.273 164.384 196.38C164.37 196.767 164.364 197.307 164.364 198C164.364 198.68 164.37 199.22 164.384 199.62C164.424 200.727 164.704 201.553 165.224 202.1C165.757 202.633 166.47 202.9 167.364 202.9ZM176.4 208.8C176.267 208.8 176.153 208.753 176.06 208.66C175.967 208.58 175.92 208.467 175.92 208.32V195.08C175.92 194.933 175.967 194.82 176.06 194.74C176.153 194.647 176.267 194.6 176.4 194.6H177.98C178.127 194.6 178.24 194.647 178.32 194.74C178.413 194.82 178.46 194.933 178.46 195.08V195.88C179.207 194.893 180.273 194.4 181.66 194.4C183.007 194.4 184.04 194.827 184.76 195.68C185.48 196.52 185.867 197.66 185.92 199.1C185.933 199.26 185.94 199.493 185.94 199.8C185.94 200.12 185.933 200.36 185.92 200.52C185.867 201.92 185.48 203.053 184.76 203.92C184.04 204.773 183.007 205.2 181.66 205.2C180.313 205.2 179.287 204.727 178.58 203.78V208.32C178.58 208.467 178.533 208.58 178.44 208.66C178.36 208.753 178.247 208.8 178.1 208.8H176.4ZM180.92 203.06C182.36 203.06 183.127 202.173 183.22 200.4C183.233 200.267 183.24 200.067 183.24 199.8C183.24 199.533 183.233 199.333 183.22 199.2C183.127 197.427 182.36 196.54 180.92 196.54C180.147 196.54 179.573 196.787 179.2 197.28C178.827 197.773 178.62 198.38 178.58 199.1L178.56 199.86L178.58 200.64C178.607 201.307 178.813 201.88 179.2 202.36C179.6 202.827 180.173 203.06 180.92 203.06ZM192.915 205.2C191.435 205.2 190.255 204.773 189.375 203.92C188.509 203.053 188.049 201.84 187.995 200.28L187.975 199.78L187.995 199.28C188.062 197.76 188.529 196.567 189.395 195.7C190.275 194.833 191.449 194.4 192.915 194.4C194.489 194.4 195.702 194.88 196.555 195.84C197.422 196.8 197.855 198.08 197.855 199.68V200.1C197.855 200.233 197.809 200.347 197.715 200.44C197.622 200.533 197.502 200.58 197.355 200.58H190.715V200.74C190.742 201.473 190.942 202.093 191.315 202.6C191.702 203.093 192.229 203.34 192.895 203.34C193.682 203.34 194.315 203.033 194.795 202.42C194.915 202.273 195.009 202.18 195.075 202.14C195.155 202.1 195.269 202.08 195.415 202.08H197.135C197.255 202.08 197.355 202.12 197.435 202.2C197.529 202.267 197.575 202.353 197.575 202.46C197.575 202.78 197.382 203.16 196.995 203.6C196.622 204.027 196.082 204.4 195.375 204.72C194.669 205.04 193.849 205.2 192.915 205.2ZM195.135 198.9V198.84C195.135 198.053 194.935 197.42 194.535 196.94C194.149 196.46 193.609 196.22 192.915 196.22C192.222 196.22 191.682 196.46 191.295 196.94C190.909 197.42 190.715 198.053 190.715 198.84V198.9H195.135ZM200.708 205C200.575 205 200.462 204.953 200.368 204.86C200.275 204.767 200.228 204.653 200.228 204.52V195.1C200.228 194.967 200.275 194.853 200.368 194.76C200.462 194.653 200.575 194.6 200.708 194.6H202.328C202.475 194.6 202.595 194.647 202.688 194.74C202.782 194.833 202.828 194.953 202.828 195.1V195.92C203.148 195.493 203.548 195.167 204.028 194.94C204.522 194.713 205.082 194.6 205.708 194.6H206.528C206.675 194.6 206.788 194.647 206.868 194.74C206.962 194.82 207.008 194.933 207.008 195.08V196.52C207.008 196.653 206.962 196.767 206.868 196.86C206.788 196.953 206.675 197 206.528 197H204.968C204.342 197 203.848 197.18 203.488 197.54C203.128 197.9 202.948 198.393 202.948 199.02V204.52C202.948 204.653 202.902 204.767 202.808 204.86C202.715 204.953 202.595 205 202.448 205H200.708ZM211.682 205.2C211.002 205.2 210.375 205.067 209.802 204.8C209.242 204.52 208.795 204.147 208.462 203.68C208.142 203.213 207.982 202.7 207.982 202.14C207.982 201.233 208.348 200.5 209.082 199.94C209.815 199.38 210.822 199 212.102 198.8L214.842 198.4V197.98C214.842 197.393 214.695 196.953 214.402 196.66C214.108 196.367 213.635 196.22 212.982 196.22C212.542 196.22 212.182 196.307 211.902 196.48C211.635 196.64 211.422 196.8 211.262 196.96C211.102 197.133 210.995 197.247 210.942 197.3C210.888 197.46 210.788 197.54 210.642 197.54H209.102C208.982 197.54 208.875 197.5 208.782 197.42C208.702 197.34 208.662 197.233 208.662 197.1C208.675 196.767 208.835 196.387 209.142 195.96C209.462 195.533 209.948 195.167 210.602 194.86C211.255 194.553 212.055 194.4 213.002 194.4C214.575 194.4 215.722 194.753 216.442 195.46C217.162 196.167 217.522 197.093 217.522 198.24V204.52C217.522 204.653 217.475 204.767 217.382 204.86C217.302 204.953 217.188 205 217.042 205H215.422C215.288 205 215.175 204.953 215.082 204.86C214.988 204.767 214.942 204.653 214.942 204.52V203.74C214.648 204.167 214.228 204.52 213.682 204.8C213.148 205.067 212.482 205.2 211.682 205.2ZM212.362 203.3C213.095 203.3 213.695 203.06 214.162 202.58C214.628 202.1 214.862 201.4 214.862 200.48V200.06L212.862 200.38C212.088 200.5 211.502 200.693 211.102 200.96C210.715 201.227 210.522 201.553 210.522 201.94C210.522 202.367 210.702 202.7 211.062 202.94C211.422 203.18 211.855 203.3 212.362 203.3Z" fill="#242A45"/>
<path opacity="0.5" d="M86.462 235C86.362 235 86.277 234.97 86.207 234.91C86.147 234.84 86.117 234.755 86.117 234.655V224.86C86.117 224.75 86.147 224.665 86.207 224.605C86.277 224.535 86.362 224.5 86.462 224.5H87.212C87.372 224.5 87.502 224.58 87.602 224.74L90.767 230.8L93.962 224.74C93.982 224.68 94.022 224.625 94.082 224.575C94.152 224.525 94.237 224.5 94.337 224.5H95.072C95.182 224.5 95.267 224.535 95.327 224.605C95.397 224.665 95.432 224.75 95.432 224.86V234.655C95.432 234.755 95.397 234.84 95.327 234.91C95.257 234.97 95.172 235 95.072 235H94.337C94.237 235 94.152 234.97 94.082 234.91C94.022 234.84 93.992 234.755 93.992 234.655V227.275L91.487 232.165C91.387 232.375 91.227 232.48 91.007 232.48H90.542C90.322 232.48 90.162 232.375 90.062 232.165L87.542 227.275V234.655C87.542 234.755 87.507 234.84 87.437 234.91C87.377 234.97 87.297 235 87.197 235H86.462ZM98.0562 225.745C97.9562 225.745 97.8712 225.715 97.8012 225.655C97.7412 225.585 97.7112 225.5 97.7112 225.4V224.59C97.7112 224.49 97.7412 224.405 97.8012 224.335C97.8712 224.265 97.9562 224.23 98.0562 224.23H99.0012C99.1012 224.23 99.1862 224.265 99.2562 224.335C99.3262 224.405 99.3612 224.49 99.3612 224.59V225.4C99.3612 225.5 99.3262 225.585 99.2562 225.655C99.1862 225.715 99.1012 225.745 99.0012 225.745H98.0562ZM98.1762 235C98.0762 235 97.9912 234.97 97.9212 234.91C97.8612 234.84 97.8312 234.755 97.8312 234.655V227.545C97.8312 227.445 97.8612 227.365 97.9212 227.305C97.9912 227.235 98.0762 227.2 98.1762 227.2H98.8962C98.9962 227.2 99.0762 227.235 99.1362 227.305C99.2062 227.365 99.2412 227.445 99.2412 227.545V234.655C99.2412 234.755 99.2062 234.84 99.1362 234.91C99.0762 234.97 98.9962 235 98.8962 235H98.1762ZM101.809 235C101.709 235 101.624 234.97 101.554 234.91C101.494 234.84 101.464 234.755 101.464 234.655V227.545C101.464 227.445 101.494 227.365 101.554 227.305C101.624 227.235 101.709 227.2 101.809 227.2H102.514C102.614 227.2 102.694 227.235 102.754 227.305C102.824 227.365 102.859 227.445 102.859 227.545V228.205C103.149 227.835 103.489 227.55 103.879 227.35C104.279 227.15 104.774 227.05 105.364 227.05C106.324 227.05 107.069 227.36 107.599 227.98C108.139 228.59 108.409 229.405 108.409 230.425V234.655C108.409 234.755 108.374 234.84 108.304 234.91C108.244 234.97 108.164 235 108.064 235H107.314C107.214 235 107.129 234.97 107.059 234.91C106.999 234.84 106.969 234.755 106.969 234.655V230.5C106.969 229.79 106.794 229.24 106.444 228.85C106.104 228.46 105.609 228.265 104.959 228.265C104.329 228.265 103.829 228.465 103.459 228.865C103.089 229.255 102.904 229.8 102.904 230.5V234.655C102.904 234.755 102.869 234.84 102.799 234.91C102.739 234.97 102.659 235 102.559 235H101.809ZM110.786 225.745C110.686 225.745 110.601 225.715 110.531 225.655C110.471 225.585 110.441 225.5 110.441 225.4V224.59C110.441 224.49 110.471 224.405 110.531 224.335C110.601 224.265 110.686 224.23 110.786 224.23H111.731C111.831 224.23 111.916 224.265 111.986 224.335C112.056 224.405 112.091 224.49 112.091 224.59V225.4C112.091 225.5 112.056 225.585 111.986 225.655C111.916 225.715 111.831 225.745 111.731 225.745H110.786ZM110.906 235C110.806 235 110.721 234.97 110.651 234.91C110.591 234.84 110.561 234.755 110.561 234.655V227.545C110.561 227.445 110.591 227.365 110.651 227.305C110.721 227.235 110.806 227.2 110.906 227.2H111.626C111.726 227.2 111.806 227.235 111.866 227.305C111.936 227.365 111.971 227.445 111.971 227.545V234.655C111.971 234.755 111.936 234.84 111.866 234.91C111.806 234.97 111.726 235 111.626 235H110.906ZM114.538 235C114.438 235 114.353 234.97 114.283 234.91C114.223 234.84 114.193 234.755 114.193 234.655V227.545C114.193 227.445 114.223 227.365 114.283 227.305C114.353 227.235 114.438 227.2 114.538 227.2H115.213C115.313 227.2 115.393 227.235 115.453 227.305C115.523 227.365 115.558 227.445 115.558 227.545V228.07C116.078 227.39 116.803 227.05 117.733 227.05C118.843 227.05 119.628 227.51 120.088 228.43C120.328 228.01 120.668 227.675 121.108 227.425C121.548 227.175 122.043 227.05 122.593 227.05C123.413 227.05 124.083 227.33 124.603 227.89C125.123 228.45 125.383 229.26 125.383 230.32V234.655C125.383 234.755 125.348 234.84 125.278 234.91C125.218 234.97 125.138 235 125.038 235H124.333C124.233 235 124.148 234.97 124.078 234.91C124.018 234.84 123.988 234.755 123.988 234.655V230.455C123.988 229.675 123.823 229.115 123.493 228.775C123.173 228.435 122.748 228.265 122.218 228.265C121.748 228.265 121.343 228.44 121.003 228.79C120.663 229.13 120.493 229.685 120.493 230.455V234.655C120.493 234.755 120.458 234.84 120.388 234.91C120.328 234.97 120.248 235 120.148 235H119.443C119.343 235 119.258 234.97 119.188 234.91C119.128 234.84 119.098 234.755 119.098 234.655V230.455C119.098 229.675 118.928 229.115 118.588 228.775C118.258 228.435 117.838 228.265 117.328 228.265C116.858 228.265 116.453 228.44 116.113 228.79C115.773 229.13 115.603 229.68 115.603 230.44V234.655C115.603 234.755 115.568 234.84 115.498 234.91C115.438 234.97 115.358 235 115.258 235H114.538ZM130.434 235.15C129.484 235.15 128.749 234.845 128.229 234.235C127.709 233.615 127.449 232.795 127.449 231.775V227.545C127.449 227.445 127.479 227.365 127.539 227.305C127.609 227.235 127.694 227.2 127.794 227.2H128.544C128.644 227.2 128.724 227.235 128.784 227.305C128.854 227.365 128.889 227.445 128.889 227.545V231.7C128.889 233.19 129.539 233.935 130.839 233.935C131.469 233.935 131.969 233.74 132.339 233.35C132.709 232.95 132.894 232.4 132.894 231.7V227.545C132.894 227.445 132.924 227.365 132.984 227.305C133.054 227.235 133.139 227.2 133.239 227.2H133.989C134.089 227.2 134.169 227.235 134.229 227.305C134.289 227.365 134.319 227.445 134.319 227.545V234.655C134.319 234.755 134.289 234.84 134.229 234.91C134.169 234.97 134.089 235 133.989 235H133.284C133.184 235 133.099 234.97 133.029 234.91C132.969 234.84 132.939 234.755 132.939 234.655V233.995C132.659 234.375 132.319 234.665 131.919 234.865C131.519 235.055 131.024 235.15 130.434 235.15ZM136.892 235C136.792 235 136.707 234.97 136.637 234.91C136.577 234.84 136.547 234.755 136.547 234.655V227.545C136.547 227.445 136.577 227.365 136.637 227.305C136.707 227.235 136.792 227.2 136.892 227.2H137.567C137.667 227.2 137.747 227.235 137.807 227.305C137.877 227.365 137.912 227.445 137.912 227.545V228.07C138.432 227.39 139.157 227.05 140.087 227.05C141.197 227.05 141.982 227.51 142.442 228.43C142.682 228.01 143.022 227.675 143.462 227.425C143.902 227.175 144.397 227.05 144.947 227.05C145.767 227.05 146.437 227.33 146.957 227.89C147.477 228.45 147.737 229.26 147.737 230.32V234.655C147.737 234.755 147.702 234.84 147.632 234.91C147.572 234.97 147.492 235 147.392 235H146.687C146.587 235 146.502 234.97 146.432 234.91C146.372 234.84 146.342 234.755 146.342 234.655V230.455C146.342 229.675 146.177 229.115 145.847 228.775C145.527 228.435 145.102 228.265 144.572 228.265C144.102 228.265 143.697 228.44 143.357 228.79C143.017 229.13 142.847 229.685 142.847 230.455V234.655C142.847 234.755 142.812 234.84 142.742 234.91C142.682 234.97 142.602 235 142.502 235H141.797C141.697 235 141.612 234.97 141.542 234.91C141.482 234.84 141.452 234.755 141.452 234.655V230.455C141.452 229.675 141.282 229.115 140.942 228.775C140.612 228.435 140.192 228.265 139.682 228.265C139.212 228.265 138.807 228.44 138.467 228.79C138.127 229.13 137.957 229.68 137.957 230.44V234.655C137.957 234.755 137.922 234.84 137.852 234.91C137.792 234.97 137.712 235 137.612 235H136.892ZM155.873 235C155.613 235 155.428 234.875 155.318 234.625L152.543 227.665L152.513 227.515C152.513 227.425 152.543 227.35 152.603 227.29C152.663 227.23 152.738 227.2 152.828 227.2H153.548C153.718 227.2 153.843 227.285 153.923 227.455L156.203 233.365L158.483 227.455C158.573 227.285 158.693 227.2 158.843 227.2H159.578C159.658 227.2 159.728 227.23 159.788 227.29C159.858 227.35 159.893 227.425 159.893 227.515L159.863 227.665L157.073 234.625C156.963 234.875 156.778 235 156.518 235H155.873ZM164.306 235.15C163.276 235.15 162.451 234.835 161.831 234.205C161.221 233.565 160.886 232.695 160.826 231.595L160.811 231.085L160.826 230.59C160.896 229.51 161.236 228.65 161.846 228.01C162.466 227.37 163.281 227.05 164.291 227.05C165.401 227.05 166.261 227.405 166.871 228.115C167.481 228.815 167.786 229.765 167.786 230.965V231.22C167.786 231.32 167.751 231.405 167.681 231.475C167.621 231.535 167.541 231.565 167.441 231.565H162.251V231.7C162.281 232.35 162.476 232.905 162.836 233.365C163.206 233.815 163.691 234.04 164.291 234.04C164.751 234.04 165.126 233.95 165.416 233.77C165.716 233.58 165.936 233.385 166.076 233.185C166.166 233.065 166.231 232.995 166.271 232.975C166.321 232.945 166.406 232.93 166.526 232.93H167.261C167.351 232.93 167.426 232.955 167.486 233.005C167.546 233.055 167.576 233.125 167.576 233.215C167.576 233.435 167.436 233.7 167.156 234.01C166.886 234.32 166.501 234.59 166.001 234.82C165.511 235.04 164.946 235.15 164.306 235.15ZM166.361 230.53V230.485C166.361 229.795 166.171 229.235 165.791 228.805C165.421 228.365 164.921 228.145 164.291 228.145C163.661 228.145 163.161 228.365 162.791 228.805C162.431 229.235 162.251 229.795 162.251 230.485V230.53H166.361ZM169.924 235C169.824 235 169.739 234.97 169.669 234.91C169.609 234.84 169.579 234.755 169.579 234.655V227.56C169.579 227.46 169.609 227.375 169.669 227.305C169.739 227.235 169.824 227.2 169.924 227.2H170.614C170.714 227.2 170.799 227.235 170.869 227.305C170.939 227.375 170.974 227.46 170.974 227.56V228.22C171.384 227.54 172.084 227.2 173.074 227.2H173.659C173.759 227.2 173.839 227.235 173.899 227.305C173.969 227.365 174.004 227.445 174.004 227.545V228.16C174.004 228.26 173.969 228.34 173.899 228.4C173.839 228.46 173.759 228.49 173.659 228.49H172.759C172.219 228.49 171.794 228.65 171.484 228.97C171.174 229.28 171.019 229.705 171.019 230.245V234.655C171.019 234.755 170.984 234.84 170.914 234.91C170.844 234.97 170.759 235 170.659 235H169.924ZM177.977 235.15C177.277 235.15 176.687 235.04 176.207 234.82C175.737 234.59 175.382 234.33 175.142 234.04C174.912 233.75 174.797 233.51 174.797 233.32C174.797 233.22 174.832 233.145 174.902 233.095C174.982 233.035 175.062 233.005 175.142 233.005H175.817C175.917 233.005 176.007 233.055 176.087 233.155C176.327 233.435 176.587 233.655 176.867 233.815C177.147 233.975 177.522 234.055 177.992 234.055C178.512 234.055 178.932 233.955 179.252 233.755C179.582 233.545 179.747 233.26 179.747 232.9C179.747 232.66 179.677 232.465 179.537 232.315C179.407 232.155 179.177 232.02 178.847 231.91C178.527 231.79 178.047 231.66 177.407 231.52C176.537 231.33 175.917 231.055 175.547 230.695C175.187 230.335 175.007 229.87 175.007 229.3C175.007 228.92 175.117 228.56 175.337 228.22C175.567 227.87 175.897 227.59 176.327 227.38C176.767 227.16 177.292 227.05 177.902 227.05C178.542 227.05 179.087 227.155 179.537 227.365C179.987 227.575 180.322 227.825 180.542 228.115C180.772 228.395 180.887 228.63 180.887 228.82C180.887 228.91 180.852 228.985 180.782 229.045C180.722 229.105 180.647 229.135 180.557 229.135H179.927C179.807 229.135 179.707 229.085 179.627 228.985C179.467 228.795 179.327 228.65 179.207 228.55C179.097 228.44 178.932 228.345 178.712 228.265C178.502 228.185 178.232 228.145 177.902 228.145C177.422 228.145 177.052 228.25 176.792 228.46C176.532 228.66 176.402 228.925 176.402 229.255C176.402 229.465 176.457 229.645 176.567 229.795C176.677 229.935 176.887 230.065 177.197 230.185C177.517 230.305 177.977 230.43 178.577 230.56C179.527 230.76 180.197 231.05 180.587 231.43C180.987 231.8 181.187 232.275 181.187 232.855C181.187 233.285 181.062 233.675 180.812 234.025C180.562 234.375 180.192 234.65 179.702 234.85C179.222 235.05 178.647 235.15 177.977 235.15ZM183.149 225.745C183.049 225.745 182.964 225.715 182.894 225.655C182.834 225.585 182.804 225.5 182.804 225.4V224.59C182.804 224.49 182.834 224.405 182.894 224.335C182.964 224.265 183.049 224.23 183.149 224.23H184.094C184.194 224.23 184.279 224.265 184.349 224.335C184.419 224.405 184.454 224.49 184.454 224.59V225.4C184.454 225.5 184.419 225.585 184.349 225.655C184.279 225.715 184.194 225.745 184.094 225.745H183.149ZM183.269 235C183.169 235 183.084 234.97 183.014 234.91C182.954 234.84 182.924 234.755 182.924 234.655V227.545C182.924 227.445 182.954 227.365 183.014 227.305C183.084 227.235 183.169 227.2 183.269 227.2H183.989C184.089 227.2 184.169 227.235 184.229 227.305C184.299 227.365 184.334 227.445 184.334 227.545V234.655C184.334 234.755 184.299 234.84 184.229 234.91C184.169 234.97 184.089 235 183.989 235H183.269ZM189.752 235.15C188.652 235.15 187.797 234.84 187.187 234.22C186.587 233.6 186.267 232.775 186.227 231.745L186.212 231.1L186.227 230.455C186.267 229.435 186.592 228.615 187.202 227.995C187.812 227.365 188.662 227.05 189.752 227.05C190.842 227.05 191.692 227.365 192.302 227.995C192.912 228.615 193.237 229.435 193.277 230.455C193.287 230.565 193.292 230.78 193.292 231.1C193.292 231.42 193.287 231.635 193.277 231.745C193.237 232.775 192.912 233.6 192.302 234.22C191.702 234.84 190.852 235.15 189.752 235.15ZM189.752 233.995C190.382 233.995 190.877 233.795 191.237 233.395C191.607 232.995 191.807 232.42 191.837 231.67C191.847 231.57 191.852 231.38 191.852 231.1C191.852 230.82 191.847 230.63 191.837 230.53C191.807 229.78 191.607 229.205 191.237 228.805C190.877 228.405 190.382 228.205 189.752 228.205C189.122 228.205 188.622 228.405 188.252 228.805C187.882 229.205 187.687 229.78 187.667 230.53L187.652 231.1L187.667 231.67C187.687 232.42 187.882 232.995 188.252 233.395C188.622 233.795 189.122 233.995 189.752 233.995ZM195.515 235C195.415 235 195.33 234.97 195.26 234.91C195.2 234.84 195.17 234.755 195.17 234.655V227.545C195.17 227.445 195.2 227.365 195.26 227.305C195.33 227.235 195.415 227.2 195.515 227.2H196.22C196.32 227.2 196.4 227.235 196.46 227.305C196.53 227.365 196.565 227.445 196.565 227.545V228.205C196.855 227.835 197.195 227.55 197.585 227.35C197.985 227.15 198.48 227.05 199.07 227.05C200.03 227.05 200.775 227.36 201.305 227.98C201.845 228.59 202.115 229.405 202.115 230.425V234.655C202.115 234.755 202.08 234.84 202.01 234.91C201.95 234.97 201.87 235 201.77 235H201.02C200.92 235 200.835 234.97 200.765 234.91C200.705 234.84 200.675 234.755 200.675 234.655V230.5C200.675 229.79 200.5 229.24 200.15 228.85C199.81 228.46 199.315 228.265 198.665 228.265C198.035 228.265 197.535 228.465 197.165 228.865C196.795 229.255 196.61 229.8 196.61 230.5V234.655C196.61 234.755 196.575 234.84 196.505 234.91C196.445 234.97 196.365 235 196.265 235H195.515ZM212.848 235C212.748 235 212.663 234.97 212.593 234.91C212.533 234.84 212.503 234.755 212.503 234.655V232.495H207.643C207.543 232.495 207.458 232.465 207.388 232.405C207.328 232.335 207.298 232.25 207.298 232.15V231.55C207.298 231.4 207.353 231.25 207.463 231.1L211.963 224.755C212.013 224.675 212.088 224.615 212.188 224.575C212.288 224.525 212.398 224.5 212.518 224.5H213.598C213.698 224.5 213.778 224.535 213.838 224.605C213.908 224.665 213.943 224.745 213.943 224.845V231.19H215.293C215.393 231.19 215.478 231.225 215.548 231.295C215.618 231.355 215.653 231.435 215.653 231.535V232.15C215.653 232.25 215.618 232.335 215.548 232.405C215.488 232.465 215.408 232.495 215.308 232.495H213.943V234.655C213.943 234.755 213.908 234.84 213.838 234.91C213.778 234.97 213.698 235 213.598 235H212.848ZM212.518 231.22V226.075L208.903 231.22H212.518ZM220.77 235.15C219.97 235.15 219.275 234.99 218.685 234.67C218.095 234.34 217.645 233.9 217.335 233.35C217.025 232.8 216.87 232.2 216.87 231.55C216.87 231.02 216.975 230.52 217.185 230.05C217.405 229.57 217.65 229.145 217.92 228.775L220.77 224.8C220.78 224.79 220.81 224.755 220.86 224.695C220.9 224.635 220.955 224.59 221.025 224.56C221.095 224.52 221.175 224.5 221.265 224.5H222.06C222.15 224.5 222.22 224.535 222.27 224.605C222.33 224.665 222.36 224.74 222.36 224.83C222.36 224.9 222.34 224.965 222.3 225.025L220.11 228.085C220.33 228.015 220.615 227.98 220.965 227.98C221.685 227.99 222.32 228.155 222.87 228.475C223.43 228.795 223.86 229.225 224.16 229.765C224.47 230.305 224.625 230.895 224.625 231.535C224.625 232.175 224.47 232.775 224.16 233.335C223.86 233.885 223.415 234.325 222.825 234.655C222.245 234.985 221.56 235.15 220.77 235.15ZM220.755 233.875C221.185 233.875 221.58 233.785 221.94 233.605C222.31 233.425 222.6 233.16 222.81 232.81C223.03 232.45 223.14 232.025 223.14 231.535C223.14 231.055 223.03 230.64 222.81 230.29C222.6 229.94 222.31 229.675 221.94 229.495C221.58 229.315 221.185 229.225 220.755 229.225C220.335 229.225 219.94 229.315 219.57 229.495C219.21 229.675 218.92 229.94 218.7 230.29C218.48 230.64 218.37 231.055 218.37 231.535C218.37 232.025 218.48 232.45 218.7 232.81C218.92 233.16 219.21 233.425 219.57 233.605C219.93 233.785 220.325 233.875 220.755 233.875Z" fill="#242A45"/>
<path fill-rule="evenodd" clip-rule="evenodd" d="M17 278C17 279.105 16.1046 280 15 280C13.8954 280 13 279.105 13 278C13 276.895 13.8954 276 15 276C16.1046 276 17 276.895 17 278ZM297 278C297 279.105 296.105 280 295 280C293.895 280 293 279.105 293 278C293 276.895 293.895 276 295 276C296.105 276 297 276.895 297 278ZM278 280C279.105 280 280 279.105 280 278C280 276.895 279.105 276 278 276C276.895 276 276 276.895 276 278C276 279.105 276.895 280 278 280ZM245 278C245 279.105 244.105 280 243 280C241.895 280 241 279.105 241 278C241 276.895 241.895 276 243 276C244.105 276 245 276.895 245 278ZM208 280C209.105 280 210 279.105 210 278C210 276.895 209.105 276 208 276C206.895 276 206 276.895 206 278C206 279.105 206.895 280 208 280ZM175 278C175 279.105 174.105 280 173 280C171.895 280 171 279.105 171 278C171 276.895 171.895 276 173 276C174.105 276 175 276.895 175 278ZM155 280C156.105 280 157 279.105 157 278C157 276.895 156.105 276 155 276C153.895 276 153 276.895 153 278C153 279.105 153.895 280 155 280ZM140 278C140 279.105 139.105 280 138 280C136.895 280 136 279.105 136 278C136 276.895 136.895 276 138 276C139.105 276 140 276.895 140 278ZM260 280C261.105 280 262 279.105 262 278C262 276.895 261.105 276 260 276C258.895 276 258 276.895 258 278C258 279.105 258.895 280 260 280ZM227 278C227 279.105 226.105 280 225 280C223.895 280 223 279.105 223 278C223 276.895 223.895 276 225 276C226.105 276 227 276.895 227 278ZM190 280C191.105 280 192 279.105 192 278C192 276.895 191.105 276 190 276C188.895 276 188 276.895 188 278C188 279.105 188.895 280 190 280ZM122 278C122 279.105 121.105 280 120 280C118.895 280 118 279.105 118 278C118 276.895 118.895 276 120 276C121.105 276 122 276.895 122 278ZM103 280C104.105 280 105 279.105 105 278C105 276.895 104.105 276 103 276C101.895 276 101 276.895 101 278C101 279.105 101.895 280 103 280ZM87 278C87 279.105 86.1046 280 85 280C83.8954 280 83 279.105 83 278C83 276.895 83.8954 276 85 276C86.1046 276 87 276.895 87 278ZM68 280C69.1046 280 70 279.105 70 278C70 276.895 69.1046 276 68 276C66.8954 276 66 276.895 66 278C66 279.105 66.8954 280 68 280ZM52 278C52 279.105 51.1046 280 50 280C48.8954 280 48 279.105 48 278C48 276.895 48.8954 276 50 276C51.1046 276 52 276.895 52 278ZM33 280C34.1046 280 35 279.105 35 278C35 276.895 34.1046 276 33 276C31.8954 276 31 276.895 31 278C31 279.105 31.8954 280 33 280Z" fill="#495DCF" fill-opacity="0.20012"/>
<g clip-path="url(#clip0_0_879)">
<g filter="url(#filter1_d_0_879)">
<rect x="39" y="304" width="232" height="48" rx="5" fill="#5267DF"/>
</g>
<path d="M75.3445 333C75.2698 333 75.1998 332.972 75.1345 332.916C75.0785 332.86 75.0505 332.79 75.0505 332.706L75.0785 332.58L78.4525 323.55C78.5178 323.317 78.6812 323.2 78.9425 323.2H80.4685C80.7112 323.2 80.8745 323.317 80.9585 323.55L84.3325 332.58C84.3418 332.608 84.3465 332.65 84.3465 332.706C84.3465 332.79 84.3185 332.86 84.2625 332.916C84.2065 332.972 84.1412 333 84.0665 333H82.8485C82.7272 333 82.6338 332.972 82.5685 332.916C82.5032 332.86 82.4612 332.799 82.4425 332.734L81.7845 331.026H77.6265L76.9685 332.734C76.8938 332.911 76.7585 333 76.5625 333H75.3445ZM81.2945 329.416L79.6985 325.09L78.1165 329.416H81.2945ZM88.3555 333.14C87.4128 333.14 86.6895 332.837 86.1855 332.23C85.6815 331.623 85.4108 330.816 85.3735 329.808L85.3595 329.346L85.3735 328.898C85.4015 327.918 85.6675 327.12 86.1715 326.504C86.6848 325.888 87.4128 325.58 88.3555 325.58C89.2608 325.58 89.9795 325.888 90.5115 326.504V323.396C90.5115 323.293 90.5442 323.214 90.6095 323.158C90.6748 323.093 90.7542 323.06 90.8475 323.06H92.0375C92.1402 323.06 92.2195 323.093 92.2755 323.158C92.3408 323.214 92.3735 323.293 92.3735 323.396V332.664C92.3735 332.757 92.3408 332.837 92.2755 332.902C92.2195 332.967 92.1402 333 92.0375 333H90.9315C90.8382 333 90.7588 332.967 90.6935 332.902C90.6282 332.837 90.5955 332.757 90.5955 332.664V332.146C90.0635 332.809 89.3168 333.14 88.3555 333.14ZM88.8735 331.642C89.4148 331.642 89.8162 331.469 90.0775 331.124C90.3388 330.779 90.4835 330.354 90.5115 329.85C90.5208 329.738 90.5255 329.556 90.5255 329.304C90.5255 329.061 90.5208 328.884 90.5115 328.772C90.4928 328.305 90.3435 327.909 90.0635 327.582C89.7928 327.246 89.3962 327.078 88.8735 327.078C87.8655 327.078 87.3288 327.699 87.2635 328.94L87.2495 329.36L87.2635 329.78C87.3288 331.021 87.8655 331.642 88.8735 331.642ZM97.1914 333.14C96.2488 333.14 95.5254 332.837 95.0214 332.23C94.5174 331.623 94.2468 330.816 94.2094 329.808L94.1954 329.346L94.2094 328.898C94.2374 327.918 94.5034 327.12 95.0074 326.504C95.5208 325.888 96.2488 325.58 97.1914 325.58C98.0968 325.58 98.8154 325.888 99.3474 326.504V323.396C99.3474 323.293 99.3801 323.214 99.4454 323.158C99.5108 323.093 99.5901 323.06 99.6834 323.06H100.873C100.976 323.06 101.055 323.093 101.111 323.158C101.177 323.214 101.209 323.293 101.209 323.396V332.664C101.209 332.757 101.177 332.837 101.111 332.902C101.055 332.967 100.976 333 100.873 333H99.7674C99.6741 333 99.5948 332.967 99.5294 332.902C99.4641 332.837 99.4314 332.757 99.4314 332.664V332.146C98.8994 332.809 98.1528 333.14 97.1914 333.14ZM97.7094 331.642C98.2508 331.642 98.6521 331.469 98.9134 331.124C99.1748 330.779 99.3194 330.354 99.3474 329.85C99.3568 329.738 99.3614 329.556 99.3614 329.304C99.3614 329.061 99.3568 328.884 99.3474 328.772C99.3288 328.305 99.1794 327.909 98.8994 327.582C98.6288 327.246 98.2321 327.078 97.7094 327.078C96.7014 327.078 96.1648 327.699 96.0994 328.94L96.0854 329.36L96.0994 329.78C96.1648 331.021 96.7014 331.642 97.7094 331.642ZM109.953 333.14C109.281 333.14 108.683 333.023 108.161 332.79C107.647 332.557 107.251 332.23 106.971 331.81C106.691 331.381 106.551 330.886 106.551 330.326C106.551 329.747 106.719 329.248 107.055 328.828C107.391 328.399 107.867 328.007 108.483 327.652C108.081 327.223 107.797 326.84 107.629 326.504C107.461 326.168 107.377 325.818 107.377 325.454C107.377 325.015 107.489 324.614 107.713 324.25C107.937 323.886 108.263 323.597 108.693 323.382C109.122 323.167 109.631 323.06 110.219 323.06C110.769 323.06 111.25 323.167 111.661 323.382C112.081 323.587 112.403 323.872 112.627 324.236C112.851 324.6 112.963 324.997 112.963 325.426C112.963 325.977 112.785 326.448 112.431 326.84C112.085 327.223 111.581 327.601 110.919 327.974L112.935 329.976C113.271 329.407 113.518 328.786 113.677 328.114C113.686 328.039 113.714 327.983 113.761 327.946C113.817 327.899 113.887 327.876 113.971 327.876H114.993C115.067 327.876 115.133 327.904 115.189 327.96C115.245 328.016 115.273 328.081 115.273 328.156C115.263 328.52 115.133 328.973 114.881 329.514C114.638 330.055 114.344 330.559 113.999 331.026L115.483 332.538C115.557 332.594 115.595 332.664 115.595 332.748C115.595 332.823 115.571 332.883 115.525 332.93C115.478 332.977 115.413 333 115.329 333H113.985C113.845 333 113.719 332.953 113.607 332.86L112.837 332.104C112.062 332.795 111.101 333.14 109.953 333.14ZM109.939 326.938C110.396 326.695 110.741 326.467 110.975 326.252C111.217 326.028 111.339 325.767 111.339 325.468C111.339 325.16 111.231 324.913 111.017 324.726C110.802 324.53 110.531 324.432 110.205 324.432C109.887 324.432 109.617 324.53 109.393 324.726C109.178 324.913 109.071 325.16 109.071 325.468C109.071 325.683 109.131 325.897 109.253 326.112C109.383 326.327 109.612 326.602 109.939 326.938ZM109.953 331.698C110.279 331.698 110.597 331.637 110.905 331.516C111.222 331.395 111.507 331.213 111.759 330.97L109.519 328.758C109.145 328.963 108.851 329.187 108.637 329.43C108.422 329.673 108.315 329.953 108.315 330.27C108.315 330.699 108.478 331.045 108.805 331.306C109.131 331.567 109.514 331.698 109.953 331.698ZM121.027 333C120.933 333 120.854 332.967 120.789 332.902C120.723 332.837 120.691 332.757 120.691 332.664V323.536C120.691 323.433 120.723 323.354 120.789 323.298C120.854 323.233 120.933 323.2 121.027 323.2H122.343C122.445 323.2 122.525 323.233 122.581 323.298C122.646 323.354 122.679 323.433 122.679 323.536V332.664C122.679 332.757 122.646 332.837 122.581 332.902C122.525 332.967 122.445 333 122.343 333H121.027ZM125.292 333C125.199 333 125.12 332.967 125.054 332.902C124.989 332.837 124.956 332.757 124.956 332.664V326.056C124.956 325.963 124.989 325.883 125.054 325.818C125.12 325.753 125.199 325.72 125.292 325.72H126.44C126.534 325.72 126.613 325.753 126.678 325.818C126.744 325.883 126.776 325.963 126.776 326.056V326.63C127.327 325.93 128.106 325.58 129.114 325.58C129.973 325.58 130.654 325.865 131.158 326.434C131.662 326.994 131.914 327.759 131.914 328.73V332.664C131.914 332.757 131.882 332.837 131.816 332.902C131.76 332.967 131.681 333 131.578 333H130.346C130.253 333 130.174 332.967 130.108 332.902C130.043 332.837 130.01 332.757 130.01 332.664V328.814C130.01 328.263 129.875 327.839 129.604 327.54C129.343 327.232 128.96 327.078 128.456 327.078C127.962 327.078 127.57 327.232 127.28 327.54C127 327.848 126.86 328.273 126.86 328.814V332.664C126.86 332.757 126.828 332.837 126.762 332.902C126.706 332.967 126.627 333 126.524 333H125.292ZM136.701 333.14C136.001 333.14 135.413 333.037 134.937 332.832C134.461 332.617 134.106 332.37 133.873 332.09C133.649 331.801 133.537 331.553 133.537 331.348C133.537 331.255 133.569 331.18 133.635 331.124C133.7 331.068 133.775 331.04 133.859 331.04H134.965C135.049 331.04 135.119 331.073 135.175 331.138C135.212 331.166 135.31 331.25 135.469 331.39C135.627 331.539 135.814 331.656 136.029 331.74C136.243 331.824 136.481 331.866 136.743 331.866C137.116 331.866 137.424 331.791 137.667 331.642C137.909 331.493 138.031 331.287 138.031 331.026C138.031 330.83 137.975 330.671 137.863 330.55C137.76 330.429 137.569 330.321 137.289 330.228C137.009 330.125 136.593 330.018 136.043 329.906C135.249 329.738 134.661 329.481 134.279 329.136C133.905 328.791 133.719 328.333 133.719 327.764C133.719 327.391 133.831 327.041 134.055 326.714C134.279 326.378 134.61 326.107 135.049 325.902C135.497 325.687 136.029 325.58 136.645 325.58C137.27 325.58 137.811 325.683 138.269 325.888C138.726 326.084 139.071 326.322 139.305 326.602C139.547 326.873 139.669 327.115 139.669 327.33C139.669 327.414 139.636 327.489 139.571 327.554C139.515 327.61 139.445 327.638 139.361 327.638H138.325C138.25 327.638 138.171 327.605 138.087 327.54C138.021 327.493 137.919 327.405 137.779 327.274C137.639 327.143 137.475 327.041 137.289 326.966C137.102 326.891 136.883 326.854 136.631 326.854C136.285 326.854 136.015 326.929 135.819 327.078C135.632 327.227 135.539 327.423 135.539 327.666C135.539 327.843 135.585 327.988 135.679 328.1C135.772 328.212 135.954 328.319 136.225 328.422C136.495 328.525 136.901 328.627 137.443 328.73C138.339 328.907 138.978 329.183 139.361 329.556C139.753 329.929 139.949 330.387 139.949 330.928C139.949 331.581 139.664 332.113 139.095 332.524C138.525 332.935 137.727 333.14 136.701 333.14ZM144.906 333C144.057 333 143.418 332.781 142.988 332.342C142.568 331.894 142.358 331.241 142.358 330.382V327.204H141.252C141.159 327.204 141.08 327.171 141.014 327.106C140.949 327.031 140.916 326.947 140.916 326.854V326.056C140.916 325.963 140.949 325.883 141.014 325.818C141.08 325.753 141.159 325.72 141.252 325.72H142.358V323.396C142.358 323.293 142.391 323.214 142.456 323.158C142.522 323.093 142.601 323.06 142.694 323.06H143.828C143.931 323.06 144.01 323.093 144.066 323.158C144.132 323.214 144.164 323.293 144.164 323.396V325.72H145.914C146.017 325.72 146.096 325.753 146.152 325.818C146.218 325.874 146.25 325.953 146.25 326.056V326.854C146.25 326.957 146.218 327.041 146.152 327.106C146.087 327.171 146.008 327.204 145.914 327.204H144.164V330.242C144.164 330.643 144.234 330.947 144.374 331.152C144.514 331.357 144.748 331.46 145.074 331.46H146.04C146.134 331.46 146.213 331.493 146.278 331.558C146.344 331.623 146.376 331.703 146.376 331.796V332.664C146.376 332.757 146.344 332.837 146.278 332.902C146.222 332.967 146.143 333 146.04 333H144.906ZM149.982 333.14C149.506 333.14 149.068 333.047 148.666 332.86C148.274 332.664 147.962 332.403 147.728 332.076C147.504 331.749 147.392 331.39 147.392 330.998C147.392 330.363 147.649 329.85 148.162 329.458C148.676 329.066 149.38 328.8 150.276 328.66L152.194 328.38V328.086C152.194 327.675 152.092 327.367 151.886 327.162C151.681 326.957 151.35 326.854 150.892 326.854C150.584 326.854 150.332 326.915 150.136 327.036C149.95 327.148 149.8 327.26 149.688 327.372C149.576 327.493 149.502 327.573 149.464 327.61C149.427 327.722 149.357 327.778 149.254 327.778H148.176C148.092 327.778 148.018 327.75 147.952 327.694C147.896 327.638 147.868 327.563 147.868 327.47C147.878 327.237 147.99 326.971 148.204 326.672C148.428 326.373 148.769 326.117 149.226 325.902C149.684 325.687 150.244 325.58 150.906 325.58C152.008 325.58 152.81 325.827 153.314 326.322C153.818 326.817 154.07 327.465 154.07 328.268V332.664C154.07 332.757 154.038 332.837 153.972 332.902C153.916 332.967 153.837 333 153.734 333H152.6C152.507 333 152.428 332.967 152.362 332.902C152.297 332.837 152.264 332.757 152.264 332.664V332.118C152.059 332.417 151.765 332.664 151.382 332.86C151.009 333.047 150.542 333.14 149.982 333.14ZM150.458 331.81C150.972 331.81 151.392 331.642 151.718 331.306C152.045 330.97 152.208 330.48 152.208 329.836V329.542L150.808 329.766C150.267 329.85 149.856 329.985 149.576 330.172C149.306 330.359 149.17 330.587 149.17 330.858C149.17 331.157 149.296 331.39 149.548 331.558C149.8 331.726 150.104 331.81 150.458 331.81ZM156.466 333C156.373 333 156.294 332.967 156.228 332.902C156.163 332.837 156.13 332.757 156.13 332.664V323.396C156.13 323.293 156.163 323.214 156.228 323.158C156.294 323.093 156.373 323.06 156.466 323.06H157.628C157.731 323.06 157.81 323.093 157.866 323.158C157.932 323.214 157.964 323.293 157.964 323.396V332.664C157.964 332.757 157.932 332.837 157.866 332.902C157.81 332.967 157.731 333 157.628 333H156.466ZM160.421 333C160.328 333 160.249 332.967 160.183 332.902C160.118 332.837 160.085 332.757 160.085 332.664V323.396C160.085 323.293 160.118 323.214 160.183 323.158C160.249 323.093 160.328 323.06 160.421 323.06H161.583C161.686 323.06 161.765 323.093 161.821 323.158C161.887 323.214 161.919 323.293 161.919 323.396V332.664C161.919 332.757 161.887 332.837 161.821 332.902C161.765 332.967 161.686 333 161.583 333H160.421ZM167.98 333C167.886 333 167.807 332.967 167.742 332.902C167.676 332.837 167.644 332.757 167.644 332.664V323.55C167.644 323.447 167.672 323.363 167.728 323.298C167.793 323.233 167.877 323.2 167.98 323.2H174.14C174.242 323.2 174.326 323.233 174.392 323.298C174.457 323.363 174.49 323.447 174.49 323.55V324.474C174.49 324.577 174.457 324.661 174.392 324.726C174.326 324.782 174.242 324.81 174.14 324.81H169.534V327.288H173.832C173.934 327.288 174.018 327.321 174.084 327.386C174.149 327.442 174.182 327.521 174.182 327.624V328.492C174.182 328.595 174.149 328.679 174.084 328.744C174.018 328.8 173.934 328.828 173.832 328.828H169.534V331.39H174.252C174.354 331.39 174.438 331.423 174.504 331.488C174.569 331.553 174.602 331.637 174.602 331.74V332.664C174.602 332.767 174.569 332.851 174.504 332.916C174.438 332.972 174.354 333 174.252 333H167.98ZM176.127 333C176.043 333 175.968 332.972 175.903 332.916C175.847 332.851 175.819 332.776 175.819 332.692C175.819 332.608 175.851 332.529 175.917 332.454L178.297 329.262L176.085 326.266C176.029 326.191 176.001 326.112 176.001 326.028C176.001 325.944 176.029 325.874 176.085 325.818C176.15 325.753 176.225 325.72 176.309 325.72H177.527C177.62 325.72 177.69 325.743 177.737 325.79C177.793 325.827 177.849 325.883 177.905 325.958L179.487 328.058L181.069 325.958C181.078 325.949 181.115 325.907 181.181 325.832C181.237 325.757 181.325 325.72 181.447 325.72H182.609C182.693 325.72 182.763 325.753 182.819 325.818C182.884 325.874 182.917 325.939 182.917 326.014C182.917 326.107 182.889 326.191 182.833 326.266L180.593 329.29L182.987 332.454C183.052 332.529 183.085 332.608 183.085 332.692C183.085 332.776 183.052 332.851 182.987 332.916C182.931 332.972 182.861 333 182.777 333H181.503C181.353 333 181.227 332.925 181.125 332.776L179.445 330.55L177.737 332.776C177.634 332.925 177.508 333 177.359 333H176.127ZM187.877 333C187.028 333 186.388 332.781 185.959 332.342C185.539 331.894 185.329 331.241 185.329 330.382V327.204H184.223C184.13 327.204 184.05 327.171 183.985 327.106C183.92 327.031 183.887 326.947 183.887 326.854V326.056C183.887 325.963 183.92 325.883 183.985 325.818C184.05 325.753 184.13 325.72 184.223 325.72H185.329V323.396C185.329 323.293 185.362 323.214 185.427 323.158C185.492 323.093 185.572 323.06 185.665 323.06H186.799C186.902 323.06 186.981 323.093 187.037 323.158C187.102 323.214 187.135 323.293 187.135 323.396V325.72H188.885C188.988 325.72 189.067 325.753 189.123 325.818C189.188 325.874 189.221 325.953 189.221 326.056V326.854C189.221 326.957 189.188 327.041 189.123 327.106C189.058 327.171 188.978 327.204 188.885 327.204H187.135V330.242C187.135 330.643 187.205 330.947 187.345 331.152C187.485 331.357 187.718 331.46 188.045 331.46H189.011C189.104 331.46 189.184 331.493 189.249 331.558C189.314 331.623 189.347 331.703 189.347 331.796V332.664C189.347 332.757 189.314 332.837 189.249 332.902C189.193 332.967 189.114 333 189.011 333H187.877ZM193.975 333.14C192.939 333.14 192.113 332.841 191.497 332.244C190.89 331.637 190.568 330.788 190.531 329.696L190.517 329.346L190.531 328.996C190.578 327.932 190.904 327.097 191.511 326.49C192.127 325.883 192.948 325.58 193.975 325.58C195.076 325.58 195.926 325.916 196.523 326.588C197.13 327.26 197.433 328.156 197.433 329.276V329.57C197.433 329.663 197.4 329.743 197.335 329.808C197.27 329.873 197.186 329.906 197.083 329.906H192.435V330.018C192.454 330.531 192.594 330.965 192.855 331.32C193.126 331.665 193.494 331.838 193.961 331.838C194.512 331.838 194.955 331.623 195.291 331.194C195.375 331.091 195.44 331.026 195.487 330.998C195.543 330.97 195.622 330.956 195.725 330.956H196.929C197.013 330.956 197.083 330.984 197.139 331.04C197.204 331.087 197.237 331.147 197.237 331.222C197.237 331.446 197.102 331.712 196.831 332.02C196.57 332.319 196.192 332.58 195.697 332.804C195.202 333.028 194.628 333.14 193.975 333.14ZM195.529 328.73V328.688C195.529 328.137 195.389 327.694 195.109 327.358C194.838 327.022 194.46 326.854 193.975 326.854C193.49 326.854 193.112 327.022 192.841 327.358C192.57 327.694 192.435 328.137 192.435 328.688V328.73H195.529ZM199.505 333C199.412 333 199.332 332.967 199.267 332.902C199.202 332.837 199.169 332.757 199.169 332.664V326.056C199.169 325.963 199.202 325.883 199.267 325.818C199.332 325.753 199.412 325.72 199.505 325.72H200.653C200.746 325.72 200.826 325.753 200.891 325.818C200.956 325.883 200.989 325.963 200.989 326.056V326.63C201.54 325.93 202.319 325.58 203.327 325.58C204.186 325.58 204.867 325.865 205.371 326.434C205.875 326.994 206.127 327.759 206.127 328.73V332.664C206.127 332.757 206.094 332.837 206.029 332.902C205.973 332.967 205.894 333 205.791 333H204.559C204.466 333 204.386 332.967 204.321 332.902C204.256 332.837 204.223 332.757 204.223 332.664V328.814C204.223 328.263 204.088 327.839 203.817 327.54C203.556 327.232 203.173 327.078 202.669 327.078C202.174 327.078 201.782 327.232 201.493 327.54C201.213 327.848 201.073 328.273 201.073 328.814V332.664C201.073 332.757 201.04 332.837 200.975 332.902C200.919 332.967 200.84 333 200.737 333H199.505ZM210.913 333.14C210.213 333.14 209.625 333.037 209.149 332.832C208.673 332.617 208.319 332.37 208.085 332.09C207.861 331.801 207.749 331.553 207.749 331.348C207.749 331.255 207.782 331.18 207.847 331.124C207.913 331.068 207.987 331.04 208.071 331.04H209.177C209.261 331.04 209.331 331.073 209.387 331.138C209.425 331.166 209.523 331.25 209.681 331.39C209.84 331.539 210.027 331.656 210.241 331.74C210.456 331.824 210.694 331.866 210.955 331.866C211.329 331.866 211.637 331.791 211.879 331.642C212.122 331.493 212.243 331.287 212.243 331.026C212.243 330.83 212.187 330.671 212.075 330.55C211.973 330.429 211.781 330.321 211.501 330.228C211.221 330.125 210.806 330.018 210.255 329.906C209.462 329.738 208.874 329.481 208.491 329.136C208.118 328.791 207.931 328.333 207.931 327.764C207.931 327.391 208.043 327.041 208.267 326.714C208.491 326.378 208.823 326.107 209.261 325.902C209.709 325.687 210.241 325.58 210.857 325.58C211.483 325.58 212.024 325.683 212.481 325.888C212.939 326.084 213.284 326.322 213.517 326.602C213.76 326.873 213.881 327.115 213.881 327.33C213.881 327.414 213.849 327.489 213.783 327.554C213.727 327.61 213.657 327.638 213.573 327.638H212.537C212.463 327.638 212.383 327.605 212.299 327.54C212.234 327.493 212.131 327.405 211.991 327.274C211.851 327.143 211.688 327.041 211.501 326.966C211.315 326.891 211.095 326.854 210.843 326.854C210.498 326.854 210.227 326.929 210.031 327.078C209.845 327.227 209.751 327.423 209.751 327.666C209.751 327.843 209.798 327.988 209.891 328.1C209.985 328.212 210.167 328.319 210.437 328.422C210.708 328.525 211.114 328.627 211.655 328.73C212.551 328.907 213.191 329.183 213.573 329.556C213.965 329.929 214.161 330.387 214.161 330.928C214.161 331.581 213.877 332.113 213.307 332.524C212.738 332.935 211.94 333.14 210.913 333.14ZM216.137 324.516C216.043 324.516 215.964 324.483 215.899 324.418C215.833 324.353 215.801 324.273 215.801 324.18V323.172C215.801 323.079 215.833 322.999 215.899 322.934C215.964 322.869 216.043 322.836 216.137 322.836H217.411C217.504 322.836 217.583 322.869 217.649 322.934C217.723 322.999 217.761 323.079 217.761 323.172V324.18C217.761 324.273 217.728 324.353 217.663 324.418C217.597 324.483 217.513 324.516 217.411 324.516H216.137ZM216.193 333C216.099 333 216.02 332.967 215.955 332.902C215.889 332.837 215.857 332.757 215.857 332.664V326.056C215.857 325.963 215.889 325.883 215.955 325.818C216.02 325.753 216.099 325.72 216.193 325.72H217.355C217.457 325.72 217.537 325.753 217.593 325.818C217.658 325.874 217.691 325.953 217.691 326.056V332.664C217.691 332.757 217.658 332.837 217.593 332.902C217.537 332.967 217.457 333 217.355 333H216.193ZM223.018 333.14C221.926 333.14 221.081 332.86 220.484 332.3C219.887 331.731 219.565 330.956 219.518 329.976L219.504 329.36L219.518 328.744C219.565 327.773 219.891 327.003 220.498 326.434C221.105 325.865 221.945 325.58 223.018 325.58C224.091 325.58 224.931 325.865 225.538 326.434C226.145 327.003 226.471 327.773 226.518 328.744C226.527 328.856 226.532 329.061 226.532 329.36C226.532 329.659 226.527 329.864 226.518 329.976C226.471 330.956 226.149 331.731 225.552 332.3C224.955 332.86 224.11 333.14 223.018 333.14ZM223.018 331.754C223.513 331.754 223.895 331.6 224.166 331.292C224.437 330.975 224.586 330.513 224.614 329.906C224.623 329.813 224.628 329.631 224.628 329.36C224.628 329.089 224.623 328.907 224.614 328.814C224.586 328.207 224.437 327.75 224.166 327.442C223.895 327.125 223.513 326.966 223.018 326.966C222.523 326.966 222.141 327.125 221.87 327.442C221.599 327.75 221.45 328.207 221.422 328.814L221.408 329.36L221.422 329.906C221.45 330.513 221.599 330.975 221.87 331.292C222.141 331.6 222.523 331.754 223.018 331.754ZM228.669 333C228.576 333 228.497 332.967 228.431 332.902C228.366 332.837 228.333 332.757 228.333 332.664V326.056C228.333 325.963 228.366 325.883 228.431 325.818C228.497 325.753 228.576 325.72 228.669 325.72H229.817C229.911 325.72 229.99 325.753 230.055 325.818C230.121 325.883 230.153 325.963 230.153 326.056V326.63C230.704 325.93 231.483 325.58 232.491 325.58C233.35 325.58 234.031 325.865 234.535 326.434C235.039 326.994 235.291 327.759 235.291 328.73V332.664C235.291 332.757 235.259 332.837 235.193 332.902C235.137 332.967 235.058 333 234.955 333H233.723C233.63 333 233.551 332.967 233.485 332.902C233.42 332.837 233.387 332.757 233.387 332.664V328.814C233.387 328.263 233.252 327.839 232.981 327.54C232.72 327.232 232.337 327.078 231.833 327.078C231.339 327.078 230.947 327.232 230.657 327.54C230.377 327.848 230.237 328.273 230.237 328.814V332.664C230.237 332.757 230.205 332.837 230.139 332.902C230.083 332.967 230.004 333 229.901 333H228.669Z" fill="white"/>
</g>
<path fill-rule="evenodd" clip-rule="evenodd" d="M155 154C181.51 154 203 131.614 203 104C203 76.3858 181.51 54 155 54C128.49 54 107 76.3858 107 104C107 131.614 128.49 154 155 154ZM155 144C168.807 144 180 126.091 180 104C180 81.9086 168.807 64 155 64C141.193 64 130 81.9086 130 104C130 126.091 141.193 144 155 144Z" fill="#EB6060"/>
</g>
<defs>
<filter id="filter0_d_0_879" x="0" y="0" width="310" height="401" filterUnits="userSpaceOnUse" color-interpolation-filters="sRGB">
<feFlood flood-opacity="0" result="BackgroundImageFix"/>
<feColorMatrix in="SourceAlpha" type="matrix" values="0 0 0 0 0 0 0 0 0 0 0 0 0 0 0 0 0 0 127 0" result="hardAlpha"/>
<feMorphology radius="5" operator="erode" in="SourceAlpha" result="effect1_dropShadow_0_879"/>
<feOffset dy="10"/>
<feGaussianBlur stdDeviation="10"/>
<feColorMatrix type="matrix" values="0 0 0 0 0.285333 0 0 0 0 0.363695 0 0 0 0 0.811481 0 0 0 0.20012 0"/>
<feBlend mode="normal" in2="BackgroundImageFix" result="effect1_dropShadow_0_879"/>
<feBlend mode="normal" in="SourceGraphic" in2="effect1_dropShadow_0_879" result="shape"/>
</filter>
<filter id="filter1_d_0_879" x="35" y="304" width="240" height="60" filterUnits="userSpaceOnUse" color-interpolation-filters="sRGB">
<feFlood flood-opacity="0" result="BackgroundImageFix"/>
<feColorMatrix in="SourceAlpha" type="matrix" values="0 0 0 0 0 0 0 0 0 0 0 0 0 0 0 0 0 0 127 0" result="hardAlpha"/>
<feMorphology radius="4" operator="erode" in="SourceAlpha" result="effect1_dropShadow_0_879"/>
<feOffset dy="8"/>
<feGaussianBlur stdDeviation="4"/>
<feColorMatrix type="matrix" values="0 0 0 0 0.285333 0 0 0 0 0.363695 0 0 0 0 0.811481 0 0 0 0.20012 0"/>
<feBlend mode="normal" in2="BackgroundImageFix" result="effect1_dropShadow_0_879"/>
<feBlend mode="normal" in="SourceGraphic" in2="effect1_dropShadow_0_879" result="shape"/>
</filter>
<clipPath id="clip0_0_879">
<rect width="232" height="48" fill="white" transform="translate(39 304)"/>
</clipPath>
</defs>
</svg>
